<?xml version="1.0" encoding="UTF-8"?>
<svg version="1.1" xmlns="http://www.w3.org/2000/svg" width="64" height="64">
<path d="M0 0 C1.16595703 -0.02416992 1.16595703 -0.02416992 2.35546875 -0.04882812 C7.68865128 -0.05330979 11.36261894 0.9059101 16.125 3.3125 C16.125 5.3125 16.125 5.3125 14.4375 7.5 C13.674375 8.098125 12.91125 8.69625 12.125 9.3125 C10.44813465 9.03499059 8.78231564 8.68958586 7.125 8.3125 C-3.01653134 7.57339198 -9.732773 8.10522337 -17.625 14.5625 C-23.27446046 21.46739612 -24.54108121 26.9578126 -24.26171875 35.96484375 C-23.4501041 42.99063926 -20.34260319 47.83900648 -14.875 52.3125 C-8.22898293 57.24445914 -0.8816108 57.2374177 7.125 56.3125 C13.90744065 54.33384727 18.7774177 49.85611011 22.4375 43.875 C25.56477279 37.27998521 25.22811735 28.22030008 23.125 21.3125 C27.875 18.3125 27.875 18.3125 30.125 18.3125 C33.84469575 25.79670711 33.5387058 36.66022513 31.14453125 44.5390625 C29.95758623 46.9567782 28.67725312 49.11497887 27.125 51.3125 C26.25875 52.67375 26.25875 52.67375 25.375 54.0625 C17.23182068 62.20567932 9.18444903 64.7473622 -1.99121094 64.75073242 C-8.60832118 64.59863805 -13.43382976 63.19905017 -18.875 59.3125 C-19.9475 58.590625 -21.02 57.86875 -22.125 57.125 C-29.94153152 49.13082004 -32.19296252 41.18064319 -32.26660156 30.29614258 C-32.15699822 23.62571015 -30.76279591 18.81644363 -26.875 13.3125 C-26.2975 12.405 -25.72 11.4975 -25.125 10.5625 C-17.77160229 3.20910229 -10.24661459 -0.04206328 0 0 Z " fill="#478AFF" transform="translate(31.875,-0.3125)"/>
<path d="M0 0 C4.83858548 2.32968931 7.67031069 5.16141452 10 10 C10.7971639 14.99447589 10.57907893 18.79729761 8.375 23.375 C5.13226355 26.95907713 2.53524104 29.59535241 -2.3984375 30.3828125 C-8.08222994 30.63883919 -11.64938655 29.93626932 -16 26 C-19.93626932 21.64938655 -20.63883919 18.08222994 -20.3828125 12.3984375 C-19.59535241 7.46475896 -16.95907713 4.86773645 -13.375 1.625 C-8.79729761 -0.57907893 -4.99447589 -0.7971639 0 0 Z " fill="#478AFF" transform="translate(37,17)"/>
<path d="M0 0 C2.375 1.625 2.375 1.625 4 4 C4.61195145 7.6717087 4.48706506 9.28813568 2.375 12.375 C-0.69477548 14.4753727 -2.34556561 14.53293835 -6 14 C-8.375 12.9375 -8.375 12.9375 -10 11 C-10.57491549 7.04745604 -10.61372366 4.92058549 -8.375 1.5625 C-5.28314769 -0.47161336 -3.63632575 -0.60605429 0 0 Z " fill="#478AFF" transform="translate(56,5)"/>
</svg>
