<?xml version="1.0" encoding="UTF-8"?>
<svg version="1.1" xmlns="http://www.w3.org/2000/svg" width="256" height="256">
<path d="M0 0 C9.83740686 7.55927054 19.29530079 16.21948246 21.0625 29.0625 C21.56389854 34.05899471 21.84201639 39.04649785 22.0625 44.0625 C22.13984375 45.17753906 22.2171875 46.29257813 22.296875 47.44140625 C24.25880881 93.601349 -16.27507319 137.05439611 -43.44482422 170.23339844 C-44.76393983 171.84982209 -46.07225675 173.47504521 -47.37890625 175.1015625 C-65.98484254 198.20088233 -65.98484254 198.20088233 -76.12109375 199.45703125 C-84.92118275 199.87149327 -91.1915682 198.03920606 -98.9375 194.0625 C-100.05705078 193.5065918 -100.05705078 193.5065918 -101.19921875 192.93945312 C-113.46156802 186.8467788 -125.16961013 180.09142586 -136.61572266 172.58300781 C-138.95774922 171.049239 -141.31202287 169.53571648 -143.66796875 168.0234375 C-151.98189567 162.63842817 -159.75073357 156.98495225 -167.19140625 150.4453125 C-169.40646405 148.5232851 -171.6191618 146.76657642 -174 145.0625 C-192.9345331 131.09177685 -205.21345772 112.48735111 -208.9375 89.0625 C-210.37140501 74.65310735 -209.51728323 58.30438583 -200.9375 46.0625 C-199.4525 45.5675 -199.4525 45.5675 -197.9375 45.0625 C-196.74429859 43.24040021 -196.74429859 43.24040021 -195.625 40.9375 C-186.92923328 25.89792331 -171.76968633 11.87645521 -155.15625 6.484375 C-138.93829157 3.40067868 -124.87543622 8.63334298 -110.78808594 16.08886719 C-108.19169944 17.45488161 -105.56593232 18.75945282 -102.9375 20.0625 C-101.60416667 20.72916667 -100.27083333 21.39583333 -98.9375 22.0625 C-94.25382639 17.48831487 -89.78857434 12.81200529 -85.5078125 7.859375 C-83.41901735 5.46921139 -81.23559517 3.25370703 -78.9375 1.0625 C-78.24140625 0.38316406 -77.5453125 -0.29617187 -76.828125 -0.99609375 C-52.31470513 -24.14331984 -25.54237969 -17.85832118 0 0 Z M-201.9375 51.0625 C-200.9375 53.0625 -200.9375 53.0625 -200.9375 53.0625 Z M-202.9375 53.0625 C-201.9375 55.0625 -201.9375 55.0625 -201.9375 55.0625 Z M-203.9375 57.0625 C-202.9375 59.0625 -202.9375 59.0625 -202.9375 59.0625 Z " fill="#E62D1B" transform="translate(220.9375,36.9375)"/>
<path d="M0 0 C9.83740686 7.55927054 19.29530079 16.21948246 21.0625 29.0625 C21.56389854 34.05899471 21.84201639 39.04649785 22.0625 44.0625 C22.13984375 45.17753906 22.2171875 46.29257813 22.296875 47.44140625 C24.25880881 93.601349 -16.27507319 137.05439611 -43.44482422 170.23339844 C-44.76393983 171.84982209 -46.07225675 173.47504521 -47.37890625 175.1015625 C-65.98484254 198.20088233 -65.98484254 198.20088233 -76.12109375 199.45703125 C-84.92118275 199.87149327 -91.1915682 198.03920606 -98.9375 194.0625 C-100.05705078 193.5065918 -100.05705078 193.5065918 -101.19921875 192.93945312 C-113.46156802 186.8467788 -125.16961013 180.09142586 -136.61572266 172.58300781 C-138.95774922 171.049239 -141.31202287 169.53571648 -143.66796875 168.0234375 C-151.98189567 162.63842817 -159.75073357 156.98495225 -167.19140625 150.4453125 C-169.40646405 148.5232851 -171.6191618 146.76657642 -174 145.0625 C-192.9345331 131.09177685 -205.21345772 112.48735111 -208.9375 89.0625 C-210.37140501 74.65310735 -209.51728323 58.30438583 -200.9375 46.0625 C-199.4525 45.5675 -199.4525 45.5675 -197.9375 45.0625 C-196.74429859 43.24040021 -196.74429859 43.24040021 -195.625 40.9375 C-186.92923328 25.89792331 -171.76968633 11.87645521 -155.15625 6.484375 C-138.93829157 3.40067868 -124.87543622 8.63334298 -110.78808594 16.08886719 C-108.19169944 17.45488161 -105.56593232 18.75945282 -102.9375 20.0625 C-101.60416667 20.72916667 -100.27083333 21.39583333 -98.9375 22.0625 C-94.25382639 17.48831487 -89.78857434 12.81200529 -85.5078125 7.859375 C-83.41901735 5.46921139 -81.23559517 3.25370703 -78.9375 1.0625 C-78.24140625 0.38316406 -77.5453125 -0.29617187 -76.828125 -0.99609375 C-52.31470513 -24.14331984 -25.54237969 -17.85832118 0 0 Z M-88.93359375 20.52734375 C-89.61550781 21.34332031 -90.29742187 22.15929688 -91 23 C-91.60972656 23.75152344 -92.21945313 24.50304688 -92.84765625 25.27734375 C-95.57717814 27.60891665 -97.37742511 27.79882092 -100.9375 28.0625 C-103.5871582 27.12207031 -103.5871582 27.12207031 -106.23828125 25.640625 C-107.21603516 25.10953125 -108.19378906 24.5784375 -109.20117188 24.03125 C-110.20728516 23.4640625 -111.21339844 22.896875 -112.25 22.3125 C-125.74072994 14.82833615 -139.77084768 8.94930058 -155.53125 12.67578125 C-174.71948876 20.56659683 -188.86118263 38.60843444 -196.9375 57.0625 C-200.75130089 67.57985399 -199.61018861 78.72729586 -195.9375 89.0625 C-195.669375 90.17625 -195.40125 91.29 -195.125 92.4375 C-190.67851843 106.01097007 -182.37945499 116.04505784 -172.125 125.6875 C-171.29826782 126.46963867 -171.29826782 126.46963867 -170.45483398 127.26757812 C-166.70895516 130.70264043 -166.70895516 130.70264043 -161.9375 132.0625 C-161.9375 132.7225 -161.9375 133.3825 -161.9375 134.0625 C-160.28928756 135.09263277 -158.61638441 136.08315076 -156.9375 137.0625 C-152.60016352 140.07759996 -148.52588265 143.38865839 -144.49804688 146.80297852 C-136.17766435 154.64494415 -136.17766435 154.64494415 -125.9375 158.0625 C-125.9375 158.7225 -125.9375 159.3825 -125.9375 160.0625 C-124.81601563 160.65998047 -124.81601563 160.65998047 -123.671875 161.26953125 C-122.68703125 161.79933594 -121.7021875 162.32914063 -120.6875 162.875 C-119.22570312 163.65810547 -119.22570312 163.65810547 -117.734375 164.45703125 C-114.9375 166.0625 -114.9375 166.0625 -112.765625 167.76171875 C-110.90405024 169.35237751 -110.90405024 169.35237751 -107.9375 169.0625 C-107.9375 169.7225 -107.9375 170.3825 -107.9375 171.0625 C-106.14796815 171.90040789 -104.35580305 172.73269396 -102.5625 173.5625 C-101.56476563 174.0265625 -100.56703125 174.490625 -99.5390625 174.96875 C-97.10057374 176.1916873 -97.10057374 176.1916873 -94.9375 176.0625 C-94.9375 176.7225 -94.9375 177.3825 -94.9375 178.0625 C-92.71062452 179.0619256 -90.48160699 180.05515747 -88.24609375 181.03515625 C-86.58320414 181.7751562 -84.94045621 182.56102189 -83.3125 183.375 C-79.57931263 184.4556595 -77.70170088 184.23495601 -73.9375 183.0625 C-63.17387858 175.47564185 -54.60360699 163.75243761 -46.6875 153.33935547 C-44.8969157 151.00969738 -43.06583619 148.71791826 -41.22265625 146.4296875 C1.37014 94.20936645 1.37014 94.20936645 15.0625 30.0625 C13.06652838 19.11848611 6.45826002 11.59850091 -2.41015625 5.328125 C-37.52213314 -17.71254457 -62.32337563 -12.33184927 -88.93359375 20.52734375 Z M-201.9375 51.0625 C-200.9375 53.0625 -200.9375 53.0625 -200.9375 53.0625 Z M-202.9375 53.0625 C-201.9375 55.0625 -201.9375 55.0625 -201.9375 55.0625 Z M-203.9375 57.0625 C-202.9375 59.0625 -202.9375 59.0625 -202.9375 59.0625 Z " fill="#7E1700" transform="translate(220.9375,36.9375)"/>
<path d="M0 0 C0.33 0 0.66 0 1 0 C1.33847511 4.31555767 1.63383204 8.63100103 1.87988281 12.95263672 C1.98666358 14.77268449 2.1130317 16.59155932 2.2421875 18.41015625 C4.11369483 64.59235178 -36.31064167 107.95900804 -63.50732422 141.17089844 C-64.82643983 142.78732209 -66.13475675 144.41254521 -67.44140625 146.0390625 C-86.04734254 169.13838233 -86.04734254 169.13838233 -96.18359375 170.39453125 C-104.98368275 170.80899327 -111.2540682 168.97670606 -119 165 C-120.11955078 164.4440918 -120.11955078 164.4440918 -121.26171875 163.87695312 C-133.52406802 157.7842788 -145.23211013 151.02892586 -156.67822266 143.52050781 C-159.02024922 141.986739 -161.37452287 140.47321648 -163.73046875 138.9609375 C-172.04439567 133.57592817 -179.81323357 127.92245225 -187.25390625 121.3828125 C-189.46896405 119.4607851 -191.6816618 117.70407642 -194.0625 116 C-212.9970331 102.02927685 -225.27595772 83.42485111 -229 60 C-230.52124092 44.71296387 -228.69228236 30.46909519 -221 17 C-220.34 17.99 -219.68 18.98 -219 20 C-219.66 20.99 -220.32 21.98 -221 23 C-221.38499891 24.65549531 -221.72793135 26.3222433 -222 28 C-222.66 28 -223.32 28 -224 28 C-223.814375 28.61875 -223.62875 29.2375 -223.4375 29.875 C-223 32 -223 32 -224 34 C-224.29366922 53.96950664 -220.25603911 73.94557485 -206.5625 89.1875 C-205.88316406 89.88230469 -205.20382813 90.57710938 -204.50390625 91.29296875 C-203 93 -203 93 -203 95 C-202.45472656 95.22429687 -201.90945312 95.44859375 -201.34765625 95.6796875 C-198.28984462 97.39938855 -195.94828483 99.71247745 -193.4375 102.125 C-188.74869933 106.53074404 -183.90432616 110.41373358 -178.62890625 114.11328125 C-176.08919733 115.93598468 -173.70960837 117.87007297 -171.3125 119.875 C-166.41490983 123.85429202 -161.18073595 127.14265982 -155.79614258 130.41162109 C-152.5518839 132.38358193 -149.39325253 134.39713428 -146.3203125 136.62890625 C-143.65993828 138.55959926 -140.97792983 140.21904495 -138.0625 141.75 C-134.73047529 143.52128237 -131.42337115 145.3192357 -128.15625 147.20703125 C-112.14976994 157.23194454 -112.14976994 157.23194454 -94 159 C-83.87203633 154.91327782 -76.91487112 144.93002132 -70.30126953 136.62207031 C-68.8698501 134.83776436 -67.41907708 133.07044508 -65.96484375 131.3046875 C-58.92820992 122.74647584 -52.15177773 114.03533049 -45.57421875 105.12011719 C-43.92901125 102.90439418 -42.26296892 100.70549181 -40.59375 98.5078125 C-17.82766566 68.36497275 -1.37311187 38.25773765 0 0 Z " fill="#020000" transform="translate(241,66)"/>
<path d="M0 0 C0.69609375 0.4021875 0.69609375 0.4021875 1.40625 0.8125 C-2.12766867 1.99047289 -2.96834011 1.53471473 -6.40625 0.375 C-17.02590488 -2.65517893 -27.75278357 -2.44073532 -37.59375 2.8125 C-54.16801969 13.42262571 -67.95646229 28.68426734 -73.59375 47.8125 C-76.65531518 65.99773678 -71.50742144 84.22324284 -61.375 99.421875 C-59.02708505 102.57302401 -56.50859489 105.18203022 -53.59375 107.8125 C-53.92375 108.4725 -54.25375 109.1325 -54.59375 109.8125 C-56.59375 108.4375 -56.59375 108.4375 -58.59375 106.8125 C-58.59375 106.1525 -58.59375 105.4925 -58.59375 104.8125 C-59.26921875 104.61269531 -59.9446875 104.41289062 -60.640625 104.20703125 C-64.69870243 102.29071691 -67.59402068 99.55885852 -70.84375 96.5 C-71.50544189 95.87770508 -72.16713379 95.25541016 -72.84887695 94.61425781 C-81.78395106 85.98367689 -89.05171011 76.06072383 -92.08984375 63.8125 C-92.57028913 61.7725873 -92.57028913 61.7725873 -93.34765625 59.69140625 C-97.59182475 47.53299118 -96.35070034 35.02317843 -91.03515625 23.40625 C-83.28820783 8.34541238 -68.73066334 -7.94377409 -52.8046875 -14.30078125 C-33.59105361 -19.60673611 -16.10052998 -9.13164387 0 0 Z " fill="#E5502C" transform="translate(117.59375,64.1875)"/>
<path d="M0 0 C-3 1 -3 1 -6 0 C-16.43944124 -1.16845122 -24.73620961 2.46724335 -33.07421875 8.53125 C-39.21303833 13.71113514 -44.76494158 19.53689675 -50.34936523 25.30175781 C-51.88572155 26.88242554 -53.43776979 28.44495429 -55 30 C-55.78375 30.78375 -56.5675 31.5675 -57.375 32.375 C-58.24125 33.24125 -59.1075 34.1075 -60 35 C-61.3303125 36.36125 -61.3303125 36.36125 -62.6875 37.75 C-65 40 -65 40 -67 41 C-69.53125 40.51171875 -69.53125 40.51171875 -72.5 39.6875 C-73.4796875 39.42324219 -74.459375 39.15898438 -75.46875 38.88671875 C-78 38 -78 38 -80 36 C-81.31747324 35.30251417 -82.64914193 34.63040043 -84 34 C-84 33.34 -84 32.68 -84 32 C-85.65 31.67 -87.3 31.34 -89 31 C-89.495 29.515 -89.495 29.515 -90 28 C-89.29617187 27.30519531 -88.59234375 26.61039063 -87.8671875 25.89453125 C-84.87240756 22.89869755 -81.99345814 19.80383259 -79.125 16.6875 C-78.32630493 15.82547974 -78.32630493 15.82547974 -77.51147461 14.94604492 C-74.76472412 11.96980529 -72.12048354 8.9538833 -69.5625 5.8125 C-48.37059317 -18.65168657 -25.47047857 -14.74799262 0 0 Z " fill="#E6392A" transform="translate(213,39)"/>
<path d="M0 0 C1.6875 1.578125 1.6875 1.578125 3 3 C1.5608866 2.71640113 0.12374482 2.42278601 -1.3125 2.125 C-2.11300781 1.96257812 -2.91351563 1.80015625 -3.73828125 1.6328125 C-6 1 -6 1 -9 -1 C-5.17456525 -2.27514492 -3.66576992 -1.52740413 0 0 Z " fill="#F65F3D" transform="translate(116,63)"/>
<path d="M0 0 C0.99 0.99 1.98 1.98 3 3 C-1.29 2.34 -5.58 1.68 -10 1 C-5.63624057 -1.18187972 -4.5342242 -1.25414712 0 0 Z " fill="#F5593A" transform="translate(210,37)"/>
<path d="" fill="#000000" transform="translate(0,0)"/>
<path d="" fill="#000000" transform="translate(0,0)"/>
<path d="" fill="#000000" transform="translate(0,0)"/>
<path d="" fill="#000000" transform="translate(0,0)"/>
</svg>
