<?xml version="1.0" encoding="UTF-8"?>
<svg version="1.1" xmlns="http://www.w3.org/2000/svg" width="256" height="256">
<path d="M0 0 C1.88138672 0.08314453 1.88138672 0.08314453 3.80078125 0.16796875 C11.29539875 1.41079477 17.07541485 5.51661472 23.0625 10 C23.710979 10.48194824 24.35945801 10.96389648 25.02758789 11.46044922 C37.36330794 20.7409252 50.28802734 31.04417684 53.6875 46.8125 C55.02874054 63.02660785 53.82884873 77.7351787 47.6875 92.8125 C47.36072266 93.61768066 47.03394531 94.42286133 46.69726562 95.25244141 C41.7452492 107.1066255 35.30447045 117.5091873 27.6875 127.8125 C26.5428125 129.39804687 26.5428125 129.39804687 25.375 131.015625 C20.26632284 137.98532027 14.77367177 144.5813732 9.13769531 151.12402344 C7.66462388 152.83913489 6.20231896 154.56292689 4.7421875 156.2890625 C-1.54656445 163.70698748 -8.00359466 170.9347624 -14.65283203 178.03076172 C-16.48764739 180.00052967 -18.3045813 181.98600213 -20.12109375 183.97265625 C-21.43468201 185.3986345 -22.74848134 186.82441835 -24.0625 188.25 C-24.96512573 189.24362549 -24.96512573 189.24362549 -25.88598633 190.25732422 C-38.00072193 203.32434594 -38.00072193 203.32434594 -45.8203125 204.04296875 C-46.68398437 204.02878906 -47.54765625 204.01460937 -48.4375 204 C-49.30632812 203.99355469 -50.17515625 203.98710937 -51.0703125 203.98046875 C-53.3125 203.8125 -53.3125 203.8125 -55.3125 202.8125 C-55.4671875 203.9571875 -55.4671875 203.9571875 -55.625 205.125 C-56.36844134 208.03117978 -56.97136963 209.01163049 -59.3125 210.8125 C-69.17190567 214.09896856 -78.14861375 210.63423101 -87.3125 206.8125 C-87.97604492 206.544375 -88.63958984 206.27625 -89.32324219 206 C-102.07825297 200.81396267 -113.92605371 194.182491 -125.81201172 187.26464844 C-127.92063849 186.04007198 -130.03631242 184.83069985 -132.16015625 183.6328125 C-137.03983683 180.8567616 -141.65220606 177.98825956 -146.0703125 174.5234375 C-148.41302436 172.73579326 -150.82383877 171.06339324 -153.24780273 169.38842773 C-174.65450225 154.48466479 -188.45850229 136.09043064 -193.84765625 110.24609375 C-194.12994478 108.08718289 -194.25582233 105.98892251 -194.3125 103.8125 C-194.38791016 102.3584375 -194.38791016 102.3584375 -194.46484375 100.875 C-195.12559137 78.88531937 -185.59388569 59.09969829 -171.3125 42.8125 C-170.62414062 42.01714844 -169.93578125 41.22179688 -169.2265625 40.40234375 C-163.60479225 34.32393151 -156.56859669 28.754278 -148.1328125 27.484375 C-146.3125 27.5 -146.3125 27.5 -143.3125 27.8125 C-142.66829102 27.64371338 -142.02408203 27.47492676 -141.36035156 27.30102539 C-130.76604101 24.7736988 -116.87745255 32.49536942 -107.85839844 37.44628906 C-104.73772623 39.12094208 -101.57753389 40.71307492 -98.4140625 42.3046875 C-96.56031151 43.24316074 -94.7072357 44.18295164 -92.85446167 45.12335205 C-91.62517728 45.74589386 -90.39465677 46.36600121 -89.16287231 46.98358154 C-87.42015441 47.85971397 -85.68454594 48.74994366 -83.94921875 49.640625 C-82.93561279 50.1552832 -81.92200684 50.66994141 -80.87768555 51.20019531 C-78.24328067 52.85600666 -76.83630066 54.11345706 -75.3125 56.8125 C-75.56220136 63.7573192 -77.59717574 70.47993485 -79.3125 77.1875 C-79.72242187 78.82525391 -79.72242187 78.82525391 -80.140625 80.49609375 C-82.17175752 88.53101504 -82.17175752 88.53101504 -83.3125 90.8125 C-82.55066406 90.86148438 -81.78882812 90.91046875 -81.00390625 90.9609375 C-74.58279384 91.42588696 -68.55808627 92.25110343 -62.3125 93.8125 C-61.6525 92.1625 -60.9925 90.5125 -60.3125 88.8125 C-60.76689453 88.42505615 -61.22128906 88.0376123 -61.68945312 87.63842773 C-63.74881643 85.8623589 -65.78027183 84.05703532 -67.8125 82.25 C-68.52792969 81.64091797 -69.24335938 81.03183594 -69.98046875 80.40429688 C-73.24209508 77.46883318 -75.10448059 75.78962903 -76.03515625 71.41796875 C-75.10137169 66.75914093 -73.38246648 62.9126577 -71.25 58.6875 C-70.84313965 57.85871338 -70.4362793 57.02992676 -70.01708984 56.17602539 C-68.79927332 53.71250887 -67.559889 51.26115349 -66.3125 48.8125 C-65.96106934 48.11527832 -65.60963867 47.41805664 -65.24755859 46.69970703 C-59.94529178 36.23436118 -59.94529178 36.23436118 -56.3125 33.8125 C-54.3228005 33.42236284 -52.32230131 33.08047351 -50.3125 32.8125 C-50.24546875 32.09449219 -50.1784375 31.37648438 -50.109375 30.63671875 C-47.39121363 21.00323508 -32.10487026 10.65837391 -23.54980469 5.81445312 C-15.4951705 1.62551198 -9.09142239 -0.49218119 0 0 Z M-66.3125 118.8125 C-67.9625 122.4425 -69.6125 126.0725 -71.3125 129.8125 C-70.15621094 130.96878906 -70.15621094 130.96878906 -68.9765625 132.1484375 C-65.421875 135.703125 -61.8671875 139.2578125 -58.3125 142.8125 C-55.60560584 137.93568421 -55.60560584 137.93568421 -55.98632812 132.65234375 C-57.22761614 130.43152203 -58.58312441 128.3820928 -60.0625 126.3125 C-60.54460937 125.58546875 -61.02671875 124.8584375 -61.5234375 124.109375 C-62.74179312 122.29885771 -63.94477062 120.51318793 -65.3125 118.8125 C-65.6425 118.8125 -65.9725 118.8125 -66.3125 118.8125 Z " fill="#DF2217" transform="translate(198.3125,22.1875)"/>
<path d="M0 0 C0.79664063 0.6496875 1.59328125 1.299375 2.4140625 1.96875 C9.67612369 8.08928317 15.97096223 15.25923459 17.26782227 25.01464844 C19.81721186 57.44317098 0.00640894 85.76385524 -19.8828125 109.55078125 C-23.52235782 113.76110398 -27.25621808 117.8825319 -31 122 C-36.00491329 127.60152546 -40.80633754 133.36139863 -45.5703125 139.16796875 C-47.93227186 141.92105642 -50.40838912 144.46407663 -53 147 C-53.886875 147.928125 -54.77375 148.85625 -55.6875 149.8125 C-58 152 -58 152 -60 152 C-60.33 152.99 -60.66 153.98 -61 155 C-61.66 155 -62.32 155 -63 155 C-63.25136719 155.58136719 -63.50273437 156.16273438 -63.76171875 156.76171875 C-65.15780723 159.28524777 -66.68086218 160.87650007 -68.8125 162.8125 C-69.47894531 163.43769531 -70.14539063 164.06289062 -70.83203125 164.70703125 C-73 166 -73 166 -75.58203125 165.8203125 C-79.26250629 164.57168607 -80.77699532 163.20374203 -83 160 C-83.77346971 153.31407538 -81.14467762 146.11537575 -79.37329102 139.7097168 C-78.29373999 135.71216652 -77.65282612 132.14128842 -78 128 C-78.7734375 127.2575 -78.7734375 127.2575 -79.5625 126.5 C-80.036875 126.005 -80.51125 125.51 -81 125 C-80.88904122 120.00685503 -78.91537089 116.94985734 -76 113 C-69.96668638 117.98404168 -64.4815829 123.41915303 -59 129 C-69.55572567 108.14116854 -69.55572567 108.14116854 -85 91 C-86.485 89.7625 -86.485 89.7625 -88 88.5 C-88.66 88.005 -89.32 87.51 -90 87 C-88.29446645 77.58612364 -84.74350677 70.78139164 -78 64 C-78.59167969 63.73703125 -79.18335938 63.4740625 -79.79296875 63.203125 C-82.09864378 61.94622604 -83.5172985 60.65231376 -85.3125 58.75 C-88.24723382 55.70751138 -91.31491826 52.99526704 -94.6171875 50.359375 C-96 49 -96 49 -97 46 C-96.11220983 43.6526226 -95.16845928 41.49225803 -94.0625 39.25 C-93.74474609 38.59692871 -93.42699219 37.94385742 -93.09960938 37.27099609 C-92.42188552 35.88813558 -91.73895326 34.50781746 -91.05126953 33.12988281 C-90.00182723 31.00370199 -88.99786868 28.85991424 -87.99609375 26.7109375 C-87.33273455 25.34798048 -86.66742972 23.98596835 -86 22.625 C-85.70488525 21.97692383 -85.40977051 21.32884766 -85.10571289 20.66113281 C-84.1875 18.8515625 -84.1875 18.8515625 -82 16 C-80.94039062 15.87367187 -79.88078125 15.74734375 -78.7890625 15.6171875 C-72.93665676 14.66390904 -70.27658303 10.74200087 -66.375 6.5 C-43.12973359 -17.74247811 -26.44598656 -22.25228643 0 0 Z " fill="#ED3A20" transform="translate(226,46)"/>
<path d="M0 0 C1.88138672 0.08314453 1.88138672 0.08314453 3.80078125 0.16796875 C11.29539875 1.41079477 17.07541485 5.51661472 23.0625 10 C23.710979 10.48194824 24.35945801 10.96389648 25.02758789 11.46044922 C37.36330794 20.7409252 50.28802734 31.04417684 53.6875 46.8125 C55.02874054 63.02660785 53.82884873 77.7351787 47.6875 92.8125 C47.36072266 93.61768066 47.03394531 94.42286133 46.69726562 95.25244141 C41.7452492 107.1066255 35.30447045 117.5091873 27.6875 127.8125 C26.5428125 129.39804687 26.5428125 129.39804687 25.375 131.015625 C20.26632284 137.98532027 14.77367177 144.5813732 9.13769531 151.12402344 C7.66462388 152.83913489 6.20231896 154.56292689 4.7421875 156.2890625 C-1.54656445 163.70698748 -8.00359466 170.9347624 -14.65283203 178.03076172 C-16.48764739 180.00052967 -18.3045813 181.98600213 -20.12109375 183.97265625 C-21.43468201 185.3986345 -22.74848134 186.82441835 -24.0625 188.25 C-24.96512573 189.24362549 -24.96512573 189.24362549 -25.88598633 190.25732422 C-38.00072193 203.32434594 -38.00072193 203.32434594 -45.8203125 204.04296875 C-46.68398437 204.02878906 -47.54765625 204.01460937 -48.4375 204 C-49.30632812 203.99355469 -50.17515625 203.98710937 -51.0703125 203.98046875 C-53.3125 203.8125 -53.3125 203.8125 -55.3125 202.8125 C-55.4671875 203.9571875 -55.4671875 203.9571875 -55.625 205.125 C-56.36844134 208.03117978 -56.97136963 209.01163049 -59.3125 210.8125 C-69.17190567 214.09896856 -78.14861375 210.63423101 -87.3125 206.8125 C-87.97604492 206.544375 -88.63958984 206.27625 -89.32324219 206 C-102.07825297 200.81396267 -113.92605371 194.182491 -125.81201172 187.26464844 C-127.92063849 186.04007198 -130.03631242 184.83069985 -132.16015625 183.6328125 C-137.03983683 180.8567616 -141.65220606 177.98825956 -146.0703125 174.5234375 C-148.41302436 172.73579326 -150.82383877 171.06339324 -153.24780273 169.38842773 C-174.65450225 154.48466479 -188.45850229 136.09043064 -193.84765625 110.24609375 C-194.12994478 108.08718289 -194.25582233 105.98892251 -194.3125 103.8125 C-194.38791016 102.3584375 -194.38791016 102.3584375 -194.46484375 100.875 C-195.12559137 78.88531937 -185.59388569 59.09969829 -171.3125 42.8125 C-170.62414062 42.01714844 -169.93578125 41.22179688 -169.2265625 40.40234375 C-163.60479225 34.32393151 -156.56859669 28.754278 -148.1328125 27.484375 C-146.3125 27.5 -146.3125 27.5 -143.3125 27.8125 C-142.66829102 27.64371338 -142.02408203 27.47492676 -141.36035156 27.30102539 C-130.76604101 24.7736988 -116.87745255 32.49536942 -107.85839844 37.44628906 C-104.73772623 39.12094208 -101.57753389 40.71307492 -98.4140625 42.3046875 C-96.56031151 43.24316074 -94.7072357 44.18295164 -92.85446167 45.12335205 C-91.62517728 45.74589386 -90.39465677 46.36600121 -89.16287231 46.98358154 C-87.42015441 47.85971397 -85.68454594 48.74994366 -83.94921875 49.640625 C-82.93561279 50.1552832 -81.92200684 50.66994141 -80.87768555 51.20019531 C-78.24328067 52.85600666 -76.83630066 54.11345706 -75.3125 56.8125 C-75.56220136 63.7573192 -77.59717574 70.47993485 -79.3125 77.1875 C-79.72242187 78.82525391 -79.72242187 78.82525391 -80.140625 80.49609375 C-82.17175752 88.53101504 -82.17175752 88.53101504 -83.3125 90.8125 C-82.55066406 90.86148438 -81.78882812 90.91046875 -81.00390625 90.9609375 C-74.58279384 91.42588696 -68.55808627 92.25110343 -62.3125 93.8125 C-61.6525 92.1625 -60.9925 90.5125 -60.3125 88.8125 C-60.76689453 88.42505615 -61.22128906 88.0376123 -61.68945312 87.63842773 C-63.74881643 85.8623589 -65.78027183 84.05703532 -67.8125 82.25 C-68.52792969 81.64091797 -69.24335938 81.03183594 -69.98046875 80.40429688 C-73.24209508 77.46883318 -75.10448059 75.78962903 -76.03515625 71.41796875 C-75.10137169 66.75914093 -73.38246648 62.9126577 -71.25 58.6875 C-70.84313965 57.85871338 -70.4362793 57.02992676 -70.01708984 56.17602539 C-68.79927332 53.71250887 -67.559889 51.26115349 -66.3125 48.8125 C-65.96106934 48.11527832 -65.60963867 47.41805664 -65.24755859 46.69970703 C-59.94529178 36.23436118 -59.94529178 36.23436118 -56.3125 33.8125 C-54.3228005 33.42236284 -52.32230131 33.08047351 -50.3125 32.8125 C-50.24546875 32.09449219 -50.1784375 31.37648438 -50.109375 30.63671875 C-47.39121363 21.00323508 -32.10487026 10.65837391 -23.54980469 5.81445312 C-15.4951705 1.62551198 -9.09142239 -0.49218119 0 0 Z M-29.27758789 21.08496094 C-33.00293495 24.54127646 -36.63550037 28.06349843 -40.109375 31.7734375 C-40.96015625 32.67320313 -41.8109375 33.57296875 -42.6875 34.5 C-43.41710937 35.30824219 -44.14671875 36.11648437 -44.8984375 36.94921875 C-47.3125 38.8125 -47.3125 38.8125 -50.78125 39.03125 C-54.27467427 39.43311544 -54.27467427 39.43311544 -55.72900391 41.46606445 C-57.10137859 43.80392228 -58.28744256 46.17013235 -59.4375 48.625 C-59.86272949 49.48198486 -60.28795898 50.33896973 -60.72607422 51.22192383 C-63.86824896 57.63092455 -66.78084954 64.13693746 -69.3125 70.8125 C-65.55422913 75.41638182 -61.68586029 79.40066922 -57.14453125 83.234375 C-55.3125 84.8125 -55.3125 84.8125 -53.69921875 86.515625 C-52.38548484 88.04018365 -52.38548484 88.04018365 -50.3125 87.8125 C-50.84359375 88.41835937 -51.3746875 89.02421875 -51.921875 89.6484375 C-59.60108961 98.63812964 -59.60108961 98.63812964 -62.22265625 109.8359375 C-60.87640078 112.75956526 -58.71313848 114.08239944 -56.1875 116.0625 C-45.02970739 125.4796288 -37.75478117 139.92793766 -31.3125 152.8125 C-36.5925 147.5325 -41.8725 142.2525 -47.3125 136.8125 C-51.17387315 140.42961546 -51.17387315 140.42961546 -53.3125 144.8125 C-52.99347423 148.16227063 -52.72070361 149.40429639 -50.3125 151.8125 C-49.85336232 158.80669736 -52.22051144 166.11032111 -53.93994141 172.83422852 C-55.34242789 178.26609748 -55.34242789 178.26609748 -55.3125 183.8125 C-54.23953486 185.70452763 -54.23953486 185.70452763 -52.625 187.1875 C-52.12613281 187.71085938 -51.62726563 188.23421875 -51.11328125 188.7734375 C-49.31116164 190.02599976 -49.31116164 190.02599976 -46.90625 189.72265625 C-43.76687524 188.6210383 -41.94672789 187.11884829 -39.5 184.875 C-38.70980469 184.16472656 -37.91960937 183.45445312 -37.10546875 182.72265625 C-35.08437087 181.00609641 -35.08437087 181.00609641 -35.3125 178.8125 C-34.3225 178.4825 -33.3325 178.1525 -32.3125 177.8125 C-32.3125 177.1525 -32.3125 176.4925 -32.3125 175.8125 C-31.71308594 175.55210937 -31.11367187 175.29171875 -30.49609375 175.0234375 C-28.16311626 173.72965749 -27.01472219 172.51781236 -25.375 170.4375 C-23.6548525 168.26216026 -22.07705938 166.62740279 -19.8828125 164.90234375 C-17.19864627 162.71992896 -15.25815354 160.46746952 -13.125 157.75 C-9.97143014 153.81196002 -6.73343872 150.02073373 -3.3125 146.3125 C1.5798238 140.98228302 6.18821405 135.47712417 10.6875 129.8125 C11.49058594 128.80445313 12.29367188 127.79640625 13.12109375 126.7578125 C23.95138895 113.01893068 32.91699173 99.00104728 39.6875 82.8125 C39.97560547 82.12542969 40.26371094 81.43835938 40.56054688 80.73046875 C43.81347188 72.66575981 45.13336665 65.07423902 45.25 56.375 C45.26490479 55.55845947 45.27980957 54.74191895 45.29516602 53.90063477 C45.11871492 43.65081001 40.08342495 35.19632647 32.9453125 28.07421875 C27.20971302 22.89789971 20.94774194 18.32766773 14.6875 13.8125 C13.95144531 13.28011719 13.21539062 12.74773438 12.45703125 12.19921875 C-2.45818887 2.10688418 -17.08621544 10.10432035 -29.27758789 21.08496094 Z M-167.21484375 52.12109375 C-177.9091572 66.50142906 -184.79658026 82.71891871 -183.3125 100.8125 C-179.1997325 126.12674337 -165.50543937 142.5252126 -145.49804688 157.203125 C-143.40682303 158.74304319 -141.33415682 160.30478705 -139.265625 161.875 C-133.12912722 166.50466817 -127.06103102 170.78940513 -120.203125 174.30859375 C-117.43747984 175.7474767 -114.7552193 177.29707494 -112.06567383 178.87231445 C-104.47483392 183.28319501 -96.66804836 187.09388078 -88.6875 190.75 C-87.6560083 191.22268311 -86.6245166 191.69536621 -85.56176758 192.18237305 C-78.20946148 195.50535724 -72.48505047 197.91736848 -64.3125 197.8125 C-63.04625806 192.65368003 -61.78291984 187.49416073 -60.5222168 182.33398438 C-60.09331875 180.58021039 -59.66364072 178.82662696 -59.2331543 177.07324219 C-58.61299653 174.54672662 -57.99568665 172.01952939 -57.37890625 169.4921875 C-57.18720352 168.71382538 -56.99550079 167.93546326 -56.79798889 167.1335144 C-56.28622141 165.02998679 -55.79641734 162.92257678 -55.3125 160.8125 C-55.04880615 159.71292969 -54.7851123 158.61335938 -54.51342773 157.48046875 C-54.06318621 154.84593861 -54.06318621 154.84593861 -55.37304688 152.97314453 C-56.19385742 152.21686768 -56.19385742 152.21686768 -57.03125 151.4453125 C-57.63098633 150.87337158 -58.23072266 150.30143066 -58.84863281 149.7121582 C-59.82074707 148.83370239 -59.82074707 148.83370239 -60.8125 147.9375 C-62.1110601 146.70620181 -63.40795183 145.47314158 -64.703125 144.23828125 C-65.32896484 143.64998535 -65.95480469 143.06168945 -66.59960938 142.45556641 C-70.62349832 138.59570714 -74.22250622 134.44749067 -77.3125 129.8125 C-76.36206055 126.94921875 -76.36206055 126.94921875 -74.69921875 123.5 C-74.41021194 122.88987061 -74.12120514 122.27974121 -73.82344055 121.65112305 C-72.89521367 119.69842676 -71.94823267 117.75554856 -71 115.8125 C-70.06674071 113.86762897 -69.1373335 111.92095757 -68.20869446 109.97387695 C-67.36241507 108.20484425 -66.50698094 106.44019979 -65.65112305 104.67578125 C-64.25587352 101.83481185 -64.25587352 101.83481185 -63.3125 98.8125 C-76.6775 96.8325 -76.6775 96.8325 -90.3125 94.8125 C-89.57 92.1725 -88.8275 89.5325 -88.0625 86.8125 C-87.13744489 83.48144449 -86.22322648 80.14749983 -85.3125 76.8125 C-85.09948242 76.03422852 -84.88646484 75.25595703 -84.66699219 74.45410156 C-84.0789371 72.28476914 -83.50563566 70.1121234 -82.9375 67.9375 C-82.66824707 66.94943359 -82.66824707 66.94943359 -82.39355469 65.94140625 C-81.51954932 62.53082727 -81.00419182 60.11590539 -82.3125 56.8125 C-83.92179576 55.48071119 -83.92179576 55.48071119 -86.00390625 54.515625 C-86.77605469 54.11811035 -87.54820313 53.7205957 -88.34375 53.31103516 C-89.1790625 52.89901855 -90.014375 52.48700195 -90.875 52.0625 C-92.15697266 51.411604 -92.15697266 51.411604 -93.46484375 50.74755859 C-95.22503139 49.85603922 -96.98825179 48.97048339 -98.75439453 48.09082031 C-101.09552496 46.9209254 -103.42276898 45.72820277 -105.74609375 44.5234375 C-109.5701065 42.54946168 -113.42730886 40.66340335 -117.3125 38.8125 C-118.24964844 38.35617188 -119.18679687 37.89984375 -120.15234375 37.4296875 C-139.44541406 29.13221666 -154.66979268 36.8970174 -167.21484375 52.12109375 Z M-66.3125 118.8125 C-67.9625 122.4425 -69.6125 126.0725 -71.3125 129.8125 C-70.15621094 130.96878906 -70.15621094 130.96878906 -68.9765625 132.1484375 C-65.421875 135.703125 -61.8671875 139.2578125 -58.3125 142.8125 C-55.60560584 137.93568421 -55.60560584 137.93568421 -55.98632812 132.65234375 C-57.22761614 130.43152203 -58.58312441 128.3820928 -60.0625 126.3125 C-60.54460937 125.58546875 -61.02671875 124.8584375 -61.5234375 124.109375 C-62.74179312 122.29885771 -63.94477062 120.51318793 -65.3125 118.8125 C-65.6425 118.8125 -65.9725 118.8125 -66.3125 118.8125 Z " fill="#7F1800" transform="translate(198.3125,22.1875)"/>
<path d="M0 0 C4.54874252 0.7521069 7.78530966 3.29782669 11.5 5.875 C12.20761475 6.36460205 12.91522949 6.8542041 13.64428711 7.35864258 C26.65273865 16.54306426 40.50772449 27.74229701 44 44 C45.34124054 60.21410785 44.14134873 74.9226787 38 90 C37.67322266 90.80518066 37.34644531 91.61036133 37.00976562 92.43994141 C32.0577492 104.2941255 25.61697045 114.6966873 18 125 C17.236875 126.05703125 16.47375 127.1140625 15.6875 128.203125 C10.57882284 135.17282027 5.08617177 141.7688732 -0.54980469 148.31152344 C-2.02287612 150.02663489 -3.48518104 151.75042689 -4.9453125 153.4765625 C-11.23406445 160.89448748 -17.69109466 168.1222624 -24.34033203 175.21826172 C-26.17514739 177.18802967 -27.9920813 179.17350213 -29.80859375 181.16015625 C-31.12218201 182.5861345 -32.43598134 184.01191835 -33.75 185.4375 C-34.65262573 186.43112549 -34.65262573 186.43112549 -35.57348633 187.44482422 C-47.68822193 200.51184594 -47.68822193 200.51184594 -55.5078125 201.23046875 C-56.37148437 201.21628906 -57.23515625 201.20210937 -58.125 201.1875 C-58.99382812 201.18105469 -59.86265625 201.17460937 -60.7578125 201.16796875 C-63 201 -63 201 -65 200 C-65.1546875 201.1446875 -65.1546875 201.1446875 -65.3125 202.3125 C-66.05594134 205.21867978 -66.65886963 206.19913049 -69 208 C-78.85940567 211.28646856 -87.83611375 207.82173101 -97 204 C-97.66354492 203.731875 -98.32708984 203.46375 -99.01074219 203.1875 C-111.76575297 198.00146267 -123.61355371 191.369991 -135.49951172 184.45214844 C-137.60813849 183.22757198 -139.72381242 182.01819985 -141.84765625 180.8203125 C-146.72733683 178.0442616 -151.33970606 175.17575956 -155.7578125 171.7109375 C-158.10052436 169.92329326 -160.51133877 168.25089324 -162.93530273 166.57592773 C-184.34200225 151.67216479 -198.14600229 133.27793064 -203.53515625 107.43359375 C-203.81744478 105.27468289 -203.94332233 103.17642251 -204 101 C-204.07541016 99.5459375 -204.07541016 99.5459375 -204.15234375 98.0625 C-204.81309137 76.07281937 -195.28138569 56.28719829 -181 40 C-180.31164062 39.20464844 -179.62328125 38.40929688 -178.9140625 37.58984375 C-173.29229225 31.51143151 -166.25609669 25.941778 -157.8203125 24.671875 C-156 24.6875 -156 24.6875 -153 25 C-152.38640625 24.82210937 -151.7728125 24.64421875 -151.140625 24.4609375 C-148.41507524 23.87404905 -146.45958284 24.3314091 -143.75 24.9375 C-142.85796875 25.13214844 -141.9659375 25.32679687 -141.046875 25.52734375 C-140.37140625 25.68332031 -139.6959375 25.83929688 -139 26 C-139 26.33 -139 26.66 -139 27 C-140.18335938 27.01417969 -141.36671875 27.02835938 -142.5859375 27.04296875 C-151.67293267 27.26704218 -159.3852727 27.49970696 -167 33 C-167.74121094 33.53367188 -168.48242188 34.06734375 -169.24609375 34.6171875 C-182.86053453 45.61255908 -194.76947052 65.54938701 -197 83 C-198.36062924 101.93218403 -193.97684194 121.88771123 -182 137 C-181.11828125 138.14275391 -181.11828125 138.14275391 -180.21875 139.30859375 C-171.87133737 149.34154163 -160.81553381 156.84406191 -150 164 C-149.29891113 164.50926025 -148.59782227 165.01852051 -147.87548828 165.54321289 C-141.12660073 170.42603916 -134.04822255 174.43238155 -126.6875 178.3125 C-125.77482864 178.79681992 -125.77482864 178.79681992 -124.84371948 179.29092407 C-98.78397334 195.26368333 -98.78397334 195.26368333 -70 199 C-69.01 194.71 -68.02 190.42 -67 186 C-65.989375 187.010625 -64.97875 188.02125 -63.9375 189.0625 C-61.14319349 191.4247551 -60.34272316 191.97507468 -56.5625 192.25 C-48.61064089 189.45987399 -42.73634121 183.03070637 -36.9375 177.125 C-36.26912109 176.45597656 -35.60074219 175.78695312 -34.91210938 175.09765625 C-30.98096695 171.13213066 -27.23234552 167.05203599 -23.58325195 162.82617188 C-21.48009183 160.4003218 -19.30349325 158.0457006 -17.125 155.6875 C-13.03168433 151.1990528 -9.14475477 146.59032698 -5.3359375 141.859375 C-3.28864825 139.35332863 -1.18832567 136.90479599 0.93652344 134.46459961 C11.46042695 122.30683953 20.39597443 109.15737781 28 95 C28.68642578 93.81857422 28.68642578 93.81857422 29.38671875 92.61328125 C37.73406288 77.52486426 43.07329471 57.12904741 38.4375 40.25 C36.37755461 34.1368527 33.19427546 29.8107569 29 25 C28.67 24.34 28.34 23.68 28 23 C26.5044379 21.73202344 25.00657001 20.46634613 23.484375 19.23046875 C21.88920777 17.90815907 20.46416821 16.46416821 19 15 C17.68212715 13.97971135 16.34789347 12.98028616 15 12 C12.98899442 10.49174581 10.98095524 8.98512128 9 7.4375 C7.06454323 5.96607343 7.06454323 5.96607343 5 5 C2.78413485 3.89206743 0.94436481 2.52771521 -1 1 C-0.67 0.67 -0.34 0.34 0 0 Z " fill="#020000" transform="translate(208,25)"/>
<path d="M0 0 C1.23440887 0.72025652 2.465911 1.44570823 3.6875 2.1875 C0.52471862 3.14368972 -2.14800629 3.20635541 -5.4375 3.0625 C-15.60402439 3.04899864 -21.70522177 5.7071863 -29.0078125 12.81640625 C-29.76835938 13.59886719 -30.52890625 14.38132812 -31.3125 15.1875 C-31.92867187 15.79464844 -32.54484375 16.40179688 -33.1796875 17.02734375 C-45.52907007 30.03118669 -53.70880543 47.90492557 -53.44921875 65.81640625 C-52.72328238 83.71592314 -44.85384508 99.8227082 -33.3125 113.1875 C-32.3225 114.6725 -32.3225 114.6725 -31.3125 116.1875 C-37.72036314 114.00536282 -42.22595862 109.5074781 -47.3125 105.1875 C-48.04210937 104.60613281 -48.77171875 104.02476562 -49.5234375 103.42578125 C-59.95981138 94.90755514 -66.63911974 83.0443309 -70.3125 70.1875 C-70.5703125 69.35089844 -70.828125 68.51429688 -71.09375 67.65234375 C-75.75180739 51.28444763 -73.24387925 36.65983406 -65.0625 21.9375 C-61.36852385 15.54592413 -57.24796264 9.69400791 -52.3125 4.1875 C-51.75046875 3.53265625 -51.1884375 2.8778125 -50.609375 2.203125 C-36.15471473 -13.60243809 -16.87971632 -9.18802599 0 0 Z " fill="#E5502C" transform="translate(88.3125,64.8125)"/>
<path d="M0 0 C0.495 0.99 0.495 0.99 1 2 C0.05125 1.67 -0.8975 1.34 -1.875 1 C-11.14114582 -1.49686564 -17.9866214 0.006475 -26.35546875 4.69140625 C-34.27107828 9.48650001 -40.91691183 16.06325374 -47.59375 22.40625 C-48.46761353 23.23056519 -48.46761353 23.23056519 -49.35913086 24.0715332 C-50.46641795 25.12200379 -51.56422437 26.18259128 -52.65063477 27.25463867 C-55.62072345 30.09695062 -57.78876945 32.00680328 -62 32 C-64.3515625 30.890625 -64.3515625 30.890625 -66.625 29.25 C-67.38039062 28.71890625 -68.13578125 28.1878125 -68.9140625 27.640625 C-70.77527792 26.1767477 -72.36670905 24.7079083 -74 23 C-74.886875 22.113125 -75.77375 21.22625 -76.6875 20.3125 C-77.450625 19.549375 -78.21375 18.78625 -79 18 C-78.24976563 17.32195313 -77.49953125 16.64390625 -76.7265625 15.9453125 C-75.69222101 15.00574453 -74.65840717 14.06559551 -73.625 13.125 C-73.0777124 12.62758301 -72.5304248 12.13016602 -71.96655273 11.61767578 C-68.53817022 8.47851793 -65.27332173 5.23922178 -62.0625 1.875 C-40.41092652 -19.9854311 -22.74038404 -20.35404744 0 0 Z " fill="#E14B28" transform="translate(226,46)"/>
<path d="M0 0 C1.65 0 3.3 0 5 0 C4.67 0.99 4.34 1.98 4 3 C4.515625 3.37125 5.03125 3.7425 5.5625 4.125 C9.9505315 7.50040885 14.0854235 11.0854235 18 15 C13.05 25.56 8.1 36.12 3 47 C-1.33004661 44.83497669 -4.18566903 42.32389518 -7.6875 39.0625 C-8.57791992 38.25522461 -8.57791992 38.25522461 -9.48632812 37.43164062 C-13.87584564 33.37246308 -13.87584564 33.37246308 -15 30 C-14.11229355 27.65284396 -13.16684892 25.49277032 -12.0625 23.25 C-11.74982178 22.59765381 -11.43714355 21.94530762 -11.11499023 21.27319336 C-7.62428533 14.07054776 -3.83551851 7.02348195 0 0 Z " fill="#CE3211" transform="translate(144,62)"/>
<path d="M0 0 C6.03331362 4.98404168 11.5184171 10.41915303 17 16 C14.33249132 22.80778015 11.50270248 29.52109058 8.5 36.1875 C8.12230469 37.03763672 7.74460938 37.88777344 7.35546875 38.76367188 C5.14523529 43.68163121 2.75864047 48.36673794 0 53 C-2.76356774 51.30464423 -5.00067037 49.56908677 -7 47 C-8.19256462 40.5747539 -5.09068202 32.92422926 -3.3737793 26.70947266 C-2.29317949 22.71219217 -1.65283278 19.14120897 -2 15 C-2.515625 14.505 -3.03125 14.01 -3.5625 13.5 C-4.036875 13.005 -4.51125 12.51 -5 12 C-4.88904122 7.00685503 -2.91537089 3.94985734 0 0 Z " fill="#E34D2A" transform="translate(150,159)"/>
<path d="M0 0 C3.82725168 1.22942442 7.44800013 2.8085744 11.109375 4.4609375 C12.22022461 4.9549707 12.22022461 4.9549707 13.35351562 5.45898438 C15.16999062 6.26760873 16.98371431 7.08240866 18.796875 7.8984375 C18.796875 12.4293969 18.32556921 12.94844796 15.421875 16.1484375 C14.79539063 16.85484375 14.16890625 17.56125 13.5234375 18.2890625 C11.796875 19.8984375 11.796875 19.8984375 9.796875 19.8984375 C9.673125 20.8265625 9.673125 20.8265625 9.546875 21.7734375 C8.56062061 24.56782493 7.36297101 24.6153895 4.796875 25.8984375 C4.43139055 27.22331863 4.1031184 28.55862264 3.796875 29.8984375 C2.51625015 31.6059373 1.1896039 33.28107491 -0.203125 34.8984375 C-0.79480469 34.29515625 -1.38648438 33.691875 -1.99609375 33.0703125 C-7.81546338 27.16833293 -7.81546338 27.16833293 -14.203125 21.8984375 C-12.69935168 13.61294139 -9.99108522 7.05404394 -4.08203125 0.98046875 C-2.203125 -0.1015625 -2.203125 -0.1015625 0 0 Z " fill="#DB4321" transform="translate(150.203125,111.1015625)"/>
<path d="M0 0 C12.93807062 4.42678254 19.31535226 18.5049246 25.61962891 29.63378906 C27.36885204 32.63228051 29.26525682 35.5228477 31.20385742 38.40185547 C31.46658447 38.92924316 31.72931152 39.45663086 32 40 C31.67 40.66 31.34 41.32 31 42 C30.52578613 41.5153125 30.05157227 41.030625 29.56298828 40.53125 C27.42218263 38.34900263 25.27373132 36.17444263 23.125 34 C22.37863281 33.236875 21.63226563 32.47375 20.86328125 31.6875 C20.14785156 30.965625 19.43242187 30.24375 18.6953125 29.5 C18.03547363 28.8296875 17.37563477 28.159375 16.69580078 27.46875 C15.12193881 25.78176993 15.12193881 25.78176993 13 26 C12.78601563 25.20078125 12.57203125 24.4015625 12.3515625 23.578125 C10.58740663 18.90770078 8.04492594 14.9514063 5.375 10.75 C4.35799845 9.14313755 3.34477308 7.53387682 2.3359375 5.921875 C1.88782715 5.21643555 1.4397168 4.51099609 0.97802734 3.78417969 C0 2 0 2 0 0 Z " fill="#9A1902" transform="translate(136,134)"/>
<path d="M0 0 C1.03930664 0.07831055 1.03930664 0.07831055 2.09960938 0.15820312 C3.79604437 0.28689819 5.49184863 0.42386184 7.1875 0.5625 C6.5275 1.2225 5.8675 1.8825 5.1875 2.5625 C2.93496416 2.4976364 0.68435931 2.35997675 -1.5625 2.1875 C-14.83352465 1.72772404 -25.48549809 10.97491271 -34.8125 19.5625 C-37.74851763 22.46367632 -40.65212607 25.39659773 -43.48657227 28.3972168 C-44.87445773 29.83971464 -46.33863672 31.2079694 -47.8125 32.5625 C-48.8025 32.5625 -49.7925 32.5625 -50.8125 32.5625 C-50.05634018 24.46286505 -41.53585896 18.83606381 -35.6484375 13.8359375 C-25.08724485 5.18117883 -14.01551537 -1.16684195 0 0 Z " fill="#040000" transform="translate(198.8125,22.4375)"/>
<path d="M0 0 C4.95 0.33 9.9 0.66 15 1 C13 3 13 3 10.1796875 3.1953125 C9.08914062 3.17210937 7.99859375 3.14890625 6.875 3.125 C5.77929688 3.10695313 4.68359375 3.08890625 3.5546875 3.0703125 C2.71164063 3.04710937 1.86859375 3.02390625 1 3 C0.67 2.01 0.34 1.02 0 0 Z " fill="#270700" transform="translate(191,22)"/>
<path d="M0 0 C4.27454425 2.7479213 8.14126153 5.69250989 12 9 C8.16235973 9 6.88513915 7.73464665 3.8125 5.5 C2.91144531 4.8503125 2.01039062 4.200625 1.08203125 3.53125 C0.39496094 3.0259375 -0.29210938 2.520625 -1 2 C-0.67 1.34 -0.34 0.68 0 0 Z " fill="#BD1B03" transform="translate(57,180)"/>
<path d="M0 0 C4.69023454 0.56606279 9.34500026 1.18537505 14 2 C14 2.33 14 2.66 14 3 C9.38 3 4.76 3 0 3 C0 2.01 0 1.02 0 0 Z " fill="#2C0800" transform="translate(55,49)"/>
<path d="M0 0 C2 1 2 1 2 1 Z " fill="#000000" transform="translate(200,22)"/>
<path d="" fill="#000000" transform="translate(0,0)"/>
</svg>
