<?xml version="1.0" encoding="UTF-8"?>
<svg xmlns="http://www.w3.org/2000/svg" class="ionicon" viewBox="0 0 512 512">
    <path d="M0 0 C3.17185282 0.43607585 6.34710088 0.82780436 9.52490234 1.21777344 C47.65308558 6.24329892 83.3249578 23.9479559 114.34130859 46.13183594 C116.19497864 47.48531529 116.19497864 47.48531529 118.23193359 48.44433594 C118.23193359 49.10433594 118.23193359 49.76433594 118.23193359 50.44433594 C118.78107422 50.68539062 119.33021484 50.92644531 119.89599609 51.17480469 C122.77046182 52.73701432 125.09398626 54.66271316 127.60693359 56.75683594 C128.57759766 57.56507812 129.54826172 58.37332031 130.54833984 59.20605469 C131.43392578 59.9446875 132.31951172 60.68332031 133.23193359 61.44433594 C133.83908203 61.92515625 134.44623047 62.40597656 135.07177734 62.90136719 C138.38281102 65.52735941 141.02195588 68.4097842 143.64208984 71.69824219 C145.26732067 73.58013796 145.26732067 73.58013796 147.64990234 75.34277344 C150.34019492 77.53245181 152.32542075 79.79522071 154.48193359 82.50683594 C157.90155571 86.78782204 157.90155571 86.78782204 161.39208984 91.01074219 C183.23193359 116.9728069 183.23193359 116.9728069 183.23193359 124.44433594 C183.89193359 124.44433594 184.55193359 124.44433594 185.23193359 124.44433594 C187.95104735 129.75239311 190.61237006 135.08644923 193.23193359 140.44433594 C193.56290039 141.11787109 193.89386719 141.79140625 194.23486328 142.48535156 C205.10754695 164.89571484 212.26894322 188.90024593 216.23193359 213.44433594 C216.36035645 214.21358398 216.4887793 214.98283203 216.62109375 215.77539062 C217.97489581 224.03452991 218.51228391 232.08055164 218.23193359 240.44433594 C215.64753565 241.73653491 213.79911199 241.56729592 210.90426636 241.56459045 C209.2088974 241.56665245 209.2088974 241.56665245 207.47927856 241.5687561 C205.61056595 241.56336319 205.61056595 241.56336319 203.70410156 241.55786133 C202.39683105 241.55800735 201.08956055 241.55815338 199.74267578 241.55830383 C196.15198598 241.55859144 192.5613294 241.5527006 188.97064734 241.54572988 C185.22035228 241.53949027 181.47005652 241.53889206 177.71975708 241.53770447 C170.61537328 241.53459295 163.51100481 241.52638196 156.40662777 241.51635498 C148.31967571 241.50518829 140.23272292 241.49968199 132.14576507 241.49465954 C115.50781225 241.48419921 98.86987488 241.46660322 82.23193359 241.44433594 C82.0961792 240.82109436 81.9604248 240.19785278 81.82055664 239.5557251 C81.19267928 236.68915804 80.5561179 233.82458423 79.91943359 230.95996094 C79.70609375 229.97979004 79.49275391 228.99961914 79.27294922 227.98974609 C77.42114806 219.70500884 74.78330184 212.17211324 71.23193359 204.44433594 C70.82072266 203.53683594 70.40951172 202.62933594 69.98583984 201.69433594 C64.36419066 189.89808846 56.84404242 178.87018817 47.45849609 169.74902344 C45.23193359 167.44433594 45.23193359 167.44433594 45.23193359 165.44433594 C44.68794922 165.20199219 44.14396484 164.95964844 43.58349609 164.70996094 C40.67441253 163.14427477 38.21726829 161.21923937 35.60693359 159.19433594 C21.22933436 148.2926637 4.85655424 140.46918921 -12.76806641 136.44433594 C-13.71681641 136.22003906 -14.66556641 135.99574219 -15.64306641 135.76464844 C-36.71309628 131.67392455 -62.24793321 132.94974315 -81.76806641 142.44433594 C-83.51796875 143.21777344 -83.51796875 143.21777344 -85.30322266 144.00683594 C-93.24007416 147.53756029 -100.58893961 151.51609048 -107.76806641 156.44433594 C-108.44611328 156.89808594 -109.12416016 157.35183594 -109.82275391 157.81933594 C-113.54694212 160.3767184 -116.60419229 163.23783477 -119.76806641 166.44433594 C-120.56986328 167.21132812 -121.37166016 167.97832031 -122.19775391 168.76855469 C-127.86957235 174.25010446 -132.49944132 179.82443509 -136.76806641 186.44433594 C-137.66332031 187.77464844 -137.66332031 187.77464844 -138.57666016 189.13183594 C-148.24499237 203.76948299 -154.23852007 220.43143828 -157.22509766 237.66308594 C-157.76806641 240.44433594 -157.76806641 240.44433594 -158.76806641 241.44433594 C-160.51433164 241.54063191 -162.26452545 241.56621132 -164.01344299 241.56459045 C-165.15072845 241.56596512 -166.28801392 241.56733978 -167.45976257 241.5687561 C-169.34789421 241.56336319 -169.34789421 241.56336319 -171.27416992 241.55786133 C-172.59104797 241.55800735 -173.90792603 241.55815338 -175.26470947 241.55830383 C-178.88644909 241.5585918 -182.50815586 241.55269518 -186.12988782 241.54572988 C-189.91088525 241.53949624 -193.69188336 241.53889253 -197.47288513 241.53770447 C-204.63750931 241.53459118 -211.8021183 241.52637783 -218.96673578 241.51635498 C-227.12137802 241.50519376 -235.27602098 241.49968337 -243.43066895 241.49465954 C-260.20981034 241.48419521 -276.98893644 241.46659583 -293.76806641 241.44433594 C-293.78707784 238.75086134 -293.80088111 236.0575235 -293.81176758 233.36401367 C-293.81762627 232.60945641 -293.82348495 231.85489914 -293.82952118 231.0774765 C-293.84957536 224.44402257 -293.17443941 218.05058628 -292.08056641 211.50683594 C-291.89905029 210.38986328 -291.71753418 209.27289063 -291.53051758 208.12207031 C-289.92546656 198.65124697 -287.72565008 189.57528871 -284.76806641 180.44433594 C-284.46803711 179.49155762 -284.16800781 178.5387793 -283.85888672 177.55712891 C-271.69126894 139.22252661 -251.65952827 102.81650682 -222.76806641 74.44433594 C-222.19443359 73.85910156 -221.62080078 73.27386719 -221.02978516 72.67089844 C-217.46277395 69.04192922 -213.77306536 65.62967442 -209.91259766 62.31542969 C-208.42881885 61.02083943 -206.9690942 59.69834967 -205.52978516 58.35449219 C-198.72518601 52.01763962 -191.41843237 46.69210763 -183.76806641 41.44433594 C-182.92888672 40.86554687 -182.08970703 40.28675781 -181.22509766 39.69042969 C-148.91857703 17.79061128 -113.45758395 4.49761494 -74.76806641 -0.55566406 C-73.81770508 -0.68553711 -72.86734375 -0.81541016 -71.88818359 -0.94921875 C-48.02472732 -4.11505074 -23.79178662 -3.2940839 0 0 Z " fill="#FDFDFD" transform="translate(293.76806640625,2.5556640625)"/>
    <path d="M0 0 C44.88 0 89.76 0 136 0 C137.65 7.59 139.3 15.18 141 23 C142.41375828 27.1898209 143.72894617 30.92446275 145.5625 34.875 C145.98740723 35.81714355 146.41231445 36.75928711 146.85009766 37.72998047 C161.43077109 68.84913763 188.0444936 90.4302709 220 102 C230.85258099 105.38050321 241.43886021 106.20989046 252.74829102 106.24023438 C254.90096246 106.24983701 257.05263408 106.28087185 259.20507812 106.3125 C272.87826483 106.41968612 285.72701423 104.58864786 298.375 99.125 C299.22513672 98.76913818 300.07527344 98.41327637 300.95117188 98.04663086 C303.3094885 97.04987501 305.65600088 96.02987375 308 95 C309.01320313 94.56558594 310.02640625 94.13117188 311.0703125 93.68359375 C323.31002467 88.03600952 334.90034129 78.26124488 343.5 67.9375 C344.325 66.968125 345.15 65.99875 346 65 C346.66 65 347.32 65 348 65 C348.3403125 64.22076172 348.3403125 64.22076172 348.6875 63.42578125 C350.1024565 60.81063843 351.80816923 58.51205147 353.57983398 56.12988281 C364.62788257 41.01929754 371.41206582 24.20083261 374.37890625 5.76171875 C375 2 375 2 376 0 C420.88 0 465.76 0 512 0 C512 8.90723465 511.73039453 16.83708319 510.3125 25.5 C510.13098389 26.62728516 509.94946777 27.75457031 509.76245117 28.91601562 C503.8562354 64.44861226 491.60709516 99.22116927 471 129 C470.30261719 130.00804687 469.60523438 131.01609375 468.88671875 132.0546875 C464.48883965 138.22025781 459.78216956 144.13015653 455 150 C454.23171875 150.95519531 453.4634375 151.91039062 452.671875 152.89453125 C451.89328125 153.85746094 451.1146875 154.82039062 450.3125 155.8125 C449.60738281 156.68519531 448.90226562 157.55789063 448.17578125 158.45703125 C445.90254362 161.11390324 443.49962851 163.55618456 441 166 C440.3915625 166.6084375 439.783125 167.216875 439.15625 167.84375 C436.578125 170.421875 436.578125 170.421875 434 173 C433.2265625 173.79019531 432.453125 174.58039063 431.65625 175.39453125 C418.7989314 188.00604817 404.14550496 198.64489007 388.76416016 207.92626953 C387.27126112 208.83490086 385.79564768 209.77184039 384.32421875 210.71484375 C378.15417051 214.62426927 371.64158408 217.45915911 364.9296875 220.2890625 C362.29938344 221.40528397 359.7612884 222.61946851 357.2265625 223.9375 C337.86036056 233.72149104 316.26829515 237.82966188 295 241 C294.34679779 241.09818024 293.69359558 241.19636047 293.02059937 241.29751587 C280.82892867 243.079679 268.74471515 243.36064617 256.4375 243.3125 C254.98358856 243.30976578 254.98358856 243.30976578 253.50030518 243.30697632 C239.78305275 243.26359859 226.30243079 242.90151872 212.76367188 240.49169922 C209.74918197 239.95537566 206.7274892 239.48122025 203.703125 239.00390625 C167.69445591 233.01634016 133.07524517 217.4704786 103.96875 195.4609375 C102.06618348 193.96064731 102.06618348 193.96064731 100 193 C100 192.34 100 191.68 100 191 C99.43796875 190.7421875 98.8759375 190.484375 98.296875 190.21875 C95.73295421 188.85830223 93.54773635 187.27211038 91.25 185.5 C90.45078125 184.8915625 89.6515625 184.283125 88.828125 183.65625 C87.92320313 182.83640625 87.92320313 182.83640625 87 182 C87 181.34 87 180.68 87 180 C86.34 180 85.68 180 85 180 C85 179.34 85 178.68 85 178 C84.42870361 177.7539502 83.85740723 177.50790039 83.26879883 177.25439453 C80.62007757 175.78994496 78.83314406 174.0756157 76.69921875 171.9296875 C75.88646484 171.115 75.07371094 170.3003125 74.23632812 169.4609375 C73.39521484 168.60757813 72.55410156 167.75421875 71.6875 166.875 C70.85798828 166.04484375 70.02847656 165.2146875 69.17382812 164.359375 C49.50075997 144.54656129 34.46137582 121.50952099 22.98510742 96.11987305 C22.01592872 94.03427733 20.98322705 91.99326983 19.9296875 89.94921875 C17.96151591 86.04847681 16.46699441 82.06996403 15.0625 77.9375 C14.68073608 76.82689209 14.68073608 76.82689209 14.29125977 75.69384766 C13.77178183 74.17960751 13.25442339 72.66463848 12.73925781 71.14892578 C12.0741307 69.21548825 11.378763 67.29251724 10.6796875 65.37109375 C3.13725331 44.14317363 0 22.45998597 0 0 Z " fill="#FDFDFD" transform="translate(0,269)"/>
    <path d="M0 0 C0.94746094 0.50660156 1.89492188 1.01320312 2.87109375 1.53515625 C9.37857063 5.17974939 14.62665461 9.86384812 20 15 C20.60457031 15.52980469 21.20914063 16.05960938 21.83203125 16.60546875 C28.14479742 22.35644308 32.53999721 29.7915305 37 37 C37.53109375 37.85722656 38.0621875 38.71445313 38.609375 39.59765625 C49.28517884 58.80751317 50.18373954 88.22068677 44.59960938 109.05419922 C40.11252158 123.61531066 32.51853797 136.05526519 22 147 C20.82244141 148.27230469 20.82244141 148.27230469 19.62109375 149.5703125 C10.61412489 159.02546119 -0.01425905 165.87356863 -12 171 C-13.63582031 171.73283203 -13.63582031 171.73283203 -15.3046875 172.48046875 C-25.41000267 176.45575138 -35.85267793 176.50753664 -46.5625 176.5625 C-47.30227081 176.5712616 -48.04204163 176.58002319 -48.80422974 176.58905029 C-62.47025123 176.69984719 -75.99073996 174.92311336 -88.1875 168.3125 C-88.84129639 167.97001221 -89.49509277 167.62752441 -90.16870117 167.2746582 C-105.30462506 159.15083648 -117.82220723 148.65343242 -127 134 C-127.89332031 132.61361328 -127.89332031 132.61361328 -128.8046875 131.19921875 C-141.93982017 109.91804886 -145.2168649 84.40413994 -140.03125 60.125 C-136.96861193 47.26678144 -131.52125833 36.80326197 -124 26 C-123.33097656 24.95199219 -122.66195312 23.90398437 -121.97265625 22.82421875 C-120.15946875 20.22830872 -118.49208556 18.43409011 -116.0625 16.4375 C-113.7752952 14.51960534 -111.68576137 12.6692225 -109.625 10.5 C-80.17321372 -17.54932026 -34.24657054 -19.15289108 0 0 Z M-73 53 C-73.90878906 53.75216797 -73.90878906 53.75216797 -74.8359375 54.51953125 C-81.21522914 60.24417943 -86.46002455 69.27626018 -87.2734375 77.8984375 C-87.63771807 90.36804173 -84.43955319 100.32965676 -76.23828125 109.84375 C-72.55955201 113.38765671 -68.56341057 115.75897342 -64 118 C-63.10087891 118.50853516 -63.10087891 118.50853516 -62.18359375 119.02734375 C-53.95772998 123.02066017 -41.61538628 122.24130971 -33.0625 119.5 C-21.46256388 114.49334064 -13.62958195 105.49809099 -8.76171875 94.078125 C-5.54894499 85.31301915 -6.1562586 76.16824829 -9.6796875 67.59375 C-14.96006381 57.22046636 -23.68580018 48.68311529 -34.640625 44.69140625 C-48.87314319 40.52061863 -61.88113946 43.22959701 -73 53 Z " fill="#FDFDFD" transform="translate(303,174)"/>
</svg>
