<?xml version="1.0" encoding="UTF-8"?>
<svg version="1.1" xmlns="http://www.w3.org/2000/svg" width="1024" height="1024">
<path d="M0 0 C337.92 0 675.84 0 1024 0 C1024 337.92 1024 675.84 1024 1024 C686.08 1024 348.16 1024 0 1024 C0 686.08 0 348.16 0 0 Z " fill="#424242" transform="translate(0,0)"/>
<path d="M0 0 C337.92 0 675.84 0 1024 0 C1024 145.2 1024 290.4 1024 440 C952.72 440 881.44 440 808 440 C806.68 435.38 805.36 430.76 804 426 C802.4106599 421.77641671 802.4106599 421.77641671 800.81640625 417.5546875 C799.58629918 413.70545293 799.26384637 410.02365721 799 406 C798.34 406 797.68 406 797 406 C796.70609375 404.9790625 796.70609375 404.9790625 796.40625 403.9375 C793.96411655 396.02161917 790.60278904 388.89183908 786.8046875 381.56640625 C783 374.04761905 783 374.04761905 783 370 C782.34 370 781.68 370 781 370 C780.38125 368.81857422 780.38125 368.81857422 779.75 367.61328125 C772.72673196 354.23345713 772.72673196 354.23345713 764.265625 341.75390625 C763 340 763 340 763 338 C762.34 338 761.68 338 761 338 C760.34 336.02 759.68 334.04 759 332 C758.34 332 757.68 332 757 332 C756.87625 331.071875 756.87625 331.071875 756.75 330.125 C756.5025 329.42375 756.255 328.7225 756 328 C755.0409375 327.566875 755.0409375 327.566875 754.0625 327.125 C751.0492656 325.4814176 751.05481411 323.16444233 750 320 C747.99863756 318.57944932 747.99863756 318.57944932 746 318 C746 317.01 746 316.02 746 315 C745.01 314.67 744.02 314.34 743 314 C743 313.34 743 312.68 743 312 C742.01 311.67 741.02 311.34 740 311 C738.3515625 309.328125 738.3515625 309.328125 736.625 307.25 C734.52224374 304.75883654 732.424199 302.37231472 730.0625 300.125 C728 298 728 298 728 296 C727.13375 295.62875 727.13375 295.62875 726.25 295.25 C723.67060021 293.81700012 721.93878408 292.21575324 720 290 C720 289.34 720 288.68 720 288 C719.236875 287.731875 718.47375 287.46375 717.6875 287.1875 C715.11011382 286.04865495 713.73045136 285.18583329 712 283 C712 282.34 712 281.68 712 281 C711.195625 280.731875 710.39125 280.46375 709.5625 280.1875 C708.716875 279.795625 707.87125 279.40375 707 279 C706.67 278.01 706.34 277.02 706 276 C703.60931266 274.89363605 703.60931266 274.89363605 701 274 C700.01 273.34 699.02 272.68 698 272 C698 271.34 698 270.68 698 270 C697.278125 269.7525 696.55625 269.505 695.8125 269.25 C692.71325822 267.87255921 690.62855217 266.13951921 688 264 C685.87694139 262.68101023 683.73588852 261.40308502 681.57421875 260.1484375 C681.05472656 259.76945312 680.53523437 259.39046875 680 259 C680 258.34 680 257.68 680 257 C678.68 256.67 677.36 256.34 676 256 C676 255.34 676 254.68 676 254 C674.5459375 253.6596875 674.5459375 253.6596875 673.0625 253.3125 C668.30770682 251.97765027 664.22188693 249.50824121 660 247 C660 246.34 660 245.68 660 245 C658.906875 244.690625 657.81375 244.38125 656.6875 244.0625 C654.44592006 243.41662103 652.2130649 242.7376883 650 242 C650 241.34 650 240.68 650 240 C649.13375 239.72027344 648.2675 239.44054687 647.375 239.15234375 C641.05026958 236.99285825 634.80621942 234.4592341 628.875 231.375 C624.73925566 229.39703532 620.40763058 228.22821327 616 227 C616 226.34 616 225.68 616 225 C615.14277344 224.89042969 614.28554688 224.78085938 613.40234375 224.66796875 C612.25894531 224.50941406 611.11554687 224.35085937 609.9375 224.1875 C608.24947266 223.96126953 608.24947266 223.96126953 606.52734375 223.73046875 C603.397287 223.08227317 600.89665439 222.09920312 598.00708008 220.7824707 C593.79022863 219.13850903 589.29740851 218.40237772 584.875 217.5 C582.80842179 217.06722658 580.74201391 216.63363898 578.67578125 216.19921875 C577.6904541 215.99345215 576.70512695 215.78768555 575.68994141 215.57568359 C572.4642385 214.88533984 569.26425582 214.10589107 566.0625 213.3125 C547.84768846 209.08150047 528.8111353 208.76874952 510.1875 208.75 C509.38962067 208.74866058 508.59174133 208.74732117 507.76968384 208.74594116 C486.05299051 208.75377303 464.33200741 210.75438738 443.25 216.1875 C440 217 440 217 436 217 C436 217.66 436 218.32 436 219 C434.98421875 219.15855469 433.9684375 219.31710938 432.921875 219.48046875 C425.33184334 220.73666673 418.48103644 222.28755482 411.44140625 225.49609375 C408.69190337 226.69763587 405.97038139 227.76547513 403.15234375 228.78515625 C393.10619062 232.42682918 383.80142265 236.40520733 374.640625 241.921875 C372.05364115 243.46040842 369.44720629 244.71600189 366.6796875 245.8984375 C361.4891053 248.14504153 356.71014412 250.95330713 351.875 253.875 C351.02035156 254.37902344 350.16570312 254.88304687 349.28515625 255.40234375 C344.65638156 258.18245266 340.45761196 261.08516529 336.45874023 264.71972656 C333.93477019 266.9349063 331.42783263 269 328 269 C327.67 269.99 327.34 270.98 327 272 C322.66666667 275 322.66666667 275 320 275 C320 275.66 320 276.32 320 277 C314.52380952 282 314.52380952 282 312 282 C312 282.66 312 283.32 312 284 C306.52380952 289 306.52380952 289 304 289 C303.62875 289.86625 303.62875 289.86625 303.25 290.75 C301.81700012 293.32939979 300.21575324 295.06121592 298 297 C297.34 297 296.68 297 296 297 C295.71125 297.598125 295.4225 298.19625 295.125 298.8125 C294 301 294 301 292 304 C291.34 304 290.68 304 290 304 C290 304.66 290 305.32 290 306 C289.34 306 288.68 306 288 306 C288 306.66 288 307.32 288 308 C286.125 310.125 286.125 310.125 284 312 C283.34 312 282.68 312 282 312 C282 312.66 282 313.32 282 314 C281.34 314 280.68 314 280 314 C279.62875 314.7734375 279.62875 314.7734375 279.25 315.5625 C274.1003861 325.6042471 274.1003861 325.6042471 271 328 C270.34 328 269.68 328 269 328 C268.7421875 328.72574219 268.484375 329.45148438 268.21875 330.19921875 C266.94389599 333.12893133 265.44408081 335.28280468 263.5 337.8125 C254.61611036 349.81862621 247.42851511 362.53872294 241 376 C240.67 376.66 240.34 377.32 240 378 C239.34 378 238.68 378 238 378 C237.88124512 378.53737793 237.76249023 379.07475586 237.64013672 379.62841797 C236.8679015 382.48939927 235.83250948 385.18332847 234.7578125 387.9453125 C234.30954102 389.0993457 233.86126953 390.25337891 233.39941406 391.44238281 C232.08797668 394.77634399 230.76182193 398.10395204 229.4296875 401.4296875 C224.89265669 412.8253038 220.57322069 423.77728542 219 436 C218.34 436 217.68 436 217 436 C217 437.32 217 438.64 217 440 C145.39 440 73.78 440 0 440 C0 294.8 0 149.6 0 0 Z " fill="#9A3B3C" transform="translate(0,0)"/>
<path d="M0 0 C71.61 0 143.22 0 217 0 C218.65 5.28 220.3 10.56 222 16 C223.76696234 21.30088703 225.5540136 26.59256962 227.375 31.875 C227.81199219 33.16470703 227.81199219 33.16470703 228.2578125 34.48046875 C229.91417813 39.26794661 231.77741504 43.76878128 234.11621094 48.26220703 C235.22925995 50.45079346 236.09297506 52.69604256 236.9375 55 C238.50794022 59.04093512 240.41384664 62.53434172 242.8515625 66.11328125 C244 68 244 68 244.96484375 70.421875 C246.05422622 73.13505398 247.39656911 75.45554261 248.9375 77.9375 C250.63319861 80.70481444 252.19378218 83.39501753 253.625 86.3125 C255.1051996 89.20561739 256.96771261 91.47716048 259 94 C259 94.66 259 95.32 259 96 C259.66 96 260.32 96 261 96 C261 97.32 261 98.64 261 100 C261.66 100 262.32 100 263 100 C265.39731331 103.19641774 267.38479725 106.00118212 268 110 C268.66 110 269.32 110 270 110 C270 110.66 270 111.32 270 112 C270.66 112 271.32 112 272 112 C273.4375 113.93359375 273.4375 113.93359375 275 116.4375 C276.9529916 119.81006651 276.9529916 119.81006651 280 122 C280 122.66 280 123.32 280 124 C280.66 124 281.32 124 282 124 C282.0825 124.61875 282.165 125.2375 282.25 125.875 C282.78810733 128.18346804 282.78810733 128.18346804 285 129 C285.66 129.33 286.32 129.66 287 130 C287.33333333 131.33333333 287.66666667 132.66666667 288 134 C289.84971696 135.05021103 289.84971696 135.05021103 292 136 C294.25 138 294.25 138 296 140 C296 140.66 296 141.32 296 142 C296.56589844 142.24878906 297.13179688 142.49757813 297.71484375 142.75390625 C300.35561381 144.19391591 302.33761224 145.91590147 304.5625 147.9375 C305.32691406 148.62714844 306.09132813 149.31679688 306.87890625 150.02734375 C307.57886719 150.67832031 308.27882813 151.32929687 309 152 C309.58652344 152.53753906 310.17304688 153.07507813 310.77734375 153.62890625 C312 155 312 155 312 157 C312.804375 157.37125 312.804375 157.37125 313.625 157.75 C317.75704377 159.92475988 322.00946158 162.34489748 325 166 C325 166.66 325 167.32 325 168 C325.99 168 326.98 168 328 168 C328.33 168.66 328.66 169.32 329 170 C330.36448824 170.84454641 331.76725855 171.62800533 333.1875 172.375 C343.46618852 177.93237705 343.46618852 177.93237705 345 181 C348.92862212 183.41761361 352.71290688 185.3077264 357 187 C358.67419438 187.9873454 360.34051852 188.98812105 362 190 C363.99242489 191.0150089 365.99074195 192.01873444 368 193 C368 193.66 368 194.32 368 195 C368.66 195 369.32 195 370 195 C370 195.66 370 196.32 370 197 C370.61488281 197.10957031 371.22976563 197.21914063 371.86328125 197.33203125 C372.67152344 197.49058594 373.47976563 197.64914062 374.3125 197.8125 C375.11300781 197.96332031 375.91351563 198.11414063 376.73828125 198.26953125 C379 199 379 199 380.3828125 200.42578125 C382.77102729 202.75054106 385.41469147 203.34531071 388.5625 204.375 C392.84786901 205.81937076 396.94245871 207.36124052 400.9375 209.5 C409.07581221 213.76420656 418.05529181 216.32432426 426.95458984 218.48852539 C429.01355196 219.0033888 431.05241564 219.56785019 433.09375 220.1484375 C484.43906853 234.57706272 539.62506219 233.12564871 591.125 220.4375 C592.31706055 220.14464111 593.50912109 219.85178223 594.73730469 219.55004883 C600.17922328 218.16139704 605.05466426 216.73148174 610 214 C611.91237546 213.54621599 613.82515762 213.09385693 615.7421875 212.66015625 C618.41657298 211.87819925 620.79828311 210.76230436 623.3125 209.5625 C628.73048938 206.9976815 634.1799306 205.38465868 640 204 C640 203.34 640 202.68 640 202 C641.98 201.67 643.96 201.34 646 201 C646 200.34 646 199.68 646 199 C646.6290625 198.76925781 647.258125 198.53851562 647.90625 198.30078125 C653.1354127 196.30834426 657.77586213 194.10330691 662.40625 190.953125 C664 190 664 190 666 190 C666 189.34 666 188.68 666 188 C667.7664657 186.9923048 669.53833823 185.99408286 671.3125 185 C672.29863281 184.443125 673.28476562 183.88625 674.30078125 183.3125 C677 182 677 182 680 182 C680 181.34 680 180.68 680 180 C681.6796875 178.4921875 681.6796875 178.4921875 683.875 176.875 C684.59429688 176.33617187 685.31359375 175.79734375 686.0546875 175.2421875 C688 174 688 174 690 174 C690 173.34 690 172.68 690 172 C692.97 171.01 692.97 171.01 696 170 C696 169.34 696 168.68 696 168 C698.63892176 166.21694476 700.97178863 165.00940379 704 164 C704 163.34 704 162.68 704 162 C709.41176471 158 709.41176471 158 712 158 C712.2475 157.4225 712.495 156.845 712.75 156.25 C714.18299988 153.67060021 715.78424676 151.93878408 718 150 C718.66 150 719.32 150 720 150 C720 149.34 720 148.68 720 148 C721.65002828 146.64613064 723.3174387 145.31321858 725 144 C725.33 143.34 725.66 142.68 726 142 C726.66 142 727.32 142 728 142 C728 141.34 728 140.68 728 140 C729.28515625 138.7734375 729.28515625 138.7734375 731.0625 137.375 C734.66223081 134.41912348 737.57468075 131.13757547 740.51953125 127.5390625 C741.25236328 126.77722656 741.25236328 126.77722656 742 126 C742.66 126 743.32 126 744 126 C744.2475 125.278125 744.495 124.55625 744.75 123.8125 C746.12269592 120.72393418 747.72353296 118.48988582 750 116 C750.66 116 751.32 116 752 116 C752.66 114.02 753.32 112.04 754 110 C754.66 110 755.32 110 756 110 C756.2578125 109.27425781 756.515625 108.54851562 756.78125 107.80078125 C758.05242499 104.87952333 759.54016402 102.69127351 761.5 100.1875 C762.1084375 99.39730469 762.716875 98.60710937 763.34375 97.79296875 C763.8903125 97.20128906 764.436875 96.60960937 765 96 C765.66 96 766.32 96 767 96 C767.165 95.0925 767.33 94.185 767.5 93.25 C768.91325408 88.15812869 772.11091905 84.13344179 775.125 79.8671875 C776.81874083 77.27717548 777.97742104 74.90795893 779 72 C779.66 72 780.32 72 781 72 C781.0825 71.34 781.165 70.68 781.25 70 C782.09057116 66.63771537 783.4486533 63.9168831 785.0625 60.8671875 C786.12637293 58.8593422 786.12637293 58.8593422 787 56 C787.66 56 788.32 56 789 56 C789.18175781 55.34773437 789.36351562 54.69546875 789.55078125 54.0234375 C790.98268782 49.0448085 792.63736925 44.62253842 795 40 C795.67188497 37.66816393 796.33915417 35.33498858 797 33 C797.66 32.01 798.32 31.02 799 30 C799.44063966 28.16965065 799.87843834 26.33856385 800.30078125 24.50390625 C801.45862185 20.3576726 803.14801994 16.41991485 804.78125 12.44140625 C806.21125823 8.40346633 807.07074015 4.18166934 808 0 C879.28 0 950.56 0 1024 0 C1024 144.54 1024 289.08 1024 438 C686.08 438 348.16 438 0 438 C0 293.46 0 148.92 0 0 Z " fill="#9A3B3C" transform="translate(0,586)"/>
<path d="M0 0 C0 0.66 0 1.32 0 2 C1.216875 2.12375 2.43375 2.2475 3.6875 2.375 C7.09174697 2.79978301 9.85396478 3.59256319 13 5 C15.75594693 5.96137684 18.51373875 6.86351995 21.32421875 7.65234375 C26.16005291 9.02237333 30.49933666 10.61154343 34.9375 12.96484375 C37.24651423 14.123724 39.59229519 15.06407816 42 16 C45.84035008 17.50197741 49.519362 19.16565116 53.1796875 21.0625 C54.88824613 21.94244436 56.63099246 22.7550891 58.375 23.5625 C61 25 61 25 63 28 C64.68467947 28.69369155 66.37070446 29.38448678 68.06640625 30.05078125 C70.91059466 31.4470192 73.03268868 33.46346688 75.3671875 35.578125 C77.41950407 37.36530976 79.6257446 38.68096922 82 40 C82.99 40.66 83.98 41.32 85 42 C85 42.66 85 43.32 85 44 C85.86625 44.1546875 85.86625 44.1546875 86.75 44.3125 C89.35661158 45.10896465 90.9735311 46.19065277 93 48 C93 48.66 93 49.32 93 50 C93.86625 50.433125 93.86625 50.433125 94.75 50.875 C95.86375 51.431875 95.86375 51.431875 97 52 C97.64582031 52.28488281 98.29164063 52.56976563 98.95703125 52.86328125 C101.1886654 54.10497444 102.34934115 55.32840127 103.9375 57.3125 C105.73182446 59.49357108 107.49663451 61.49663451 109.5 63.5 C111.99248738 65.99248738 114.24137117 68.59789992 116.5078125 71.29296875 C117.89969493 72.8852531 119.34843017 74.35061534 120.875 75.8125 C123 78 123 78 123 80 C123.66 80 124.32 80 125 80 C125 80.66 125 81.32 125 82 C125.99 82.33 126.98 82.66 128 83 C128.33 84.65 128.66 86.3 129 88 C129.66 88 130.32 88 131 88 C131.66 89.98 132.32 91.96 133 94 C133.66 94 134.32 94 135 94 C135 94.66 135 95.32 135 96 C135.99 96.33 136.98 96.66 138 97 C138.33 98.65 138.66 100.3 139 102 C139.66 102 140.32 102 141 102 C141 102.66 141 103.32 141 104 C141.66 104 142.32 104 143 104 C143.51949219 105.0621875 144.03898437 106.124375 144.57421875 107.21875 C148.68883444 115.84228656 148.68883444 115.84228656 153.625 124 C156.52112421 128.36375473 158.11729753 133.28382955 159.85791016 138.19140625 C160.21054932 139.18333984 160.21054932 139.18333984 160.5703125 140.1953125 C160.77414551 140.78328613 160.97797852 141.37125977 161.18798828 141.97705078 C162.03290031 144.17571121 162.03290031 144.17571121 163.48193359 146.8605957 C164.96385828 149.9252579 165.88195935 152.74251025 166.71875 156.03515625 C167.15767578 157.74541992 167.15767578 157.74541992 167.60546875 159.49023438 C167.90066406 160.66908203 168.19585938 161.84792969 168.5 163.0625 C168.79519531 164.21427734 169.09039063 165.36605469 169.39453125 166.55273438 C177.91417763 200.01205046 180.21436723 232.13724773 175.6875 266.375 C175.52773682 267.59246918 175.52773682 267.59246918 175.36474609 268.83453369 C174.21429636 277.41642608 172.94231225 285.81589564 170 294 C169.63777344 295.01191406 169.27554687 296.02382813 168.90234375 297.06640625 C168.58394531 297.89011719 168.26554687 298.71382812 167.9375 299.5625 C166.40234893 303.68347587 165.2841368 307.70394708 164.4921875 312.02734375 C163.94579783 314.21723886 163.07178204 316.02030343 162 318 C161.34 318 160.68 318 160 318 C159.896875 318.66644531 159.79375 319.33289063 159.6875 320.01953125 C158.83020585 323.73609625 157.44615442 327.17102546 156 330.6875 C155.72671875 331.36361328 155.4534375 332.03972656 155.171875 332.73632812 C154.17508395 335.19165902 153.18559383 337.62881234 152 340 C151.34 340 150.68 340 150 340 C149.7525 340.845625 149.505 341.69125 149.25 342.5625 C147.86026373 346.38427474 146.08879162 349.51868063 144 353 C143.34 353 142.68 353 142 353 C141.79503906 353.62648438 141.59007812 354.25296875 141.37890625 354.8984375 C140.97478516 356.12433594 140.97478516 356.12433594 140.5625 357.375 C140.16224609 358.59316406 140.16224609 358.59316406 139.75390625 359.8359375 C139 362 139 362 138 364 C137.34 364 136.68 364 136 364 C135.938125 364.721875 135.87625 365.44375 135.8125 366.1875 C134.74833944 369.8711327 132.75159161 371.37943656 130 374 C129.443125 374.928125 128.88625 375.85625 128.3125 376.8125 C127.879375 377.534375 127.44625 378.25625 127 379 C126.34 379 125.68 379 125 379 C125 379.99 125 380.98 125 382 C124.34 382 123.68 382 123 382 C122.67 382.99 122.34 383.98 122 385 C119.5625 387.6875 119.5625 387.6875 117 390 C116.34 390 115.68 390 115 390 C115 390.66 115 391.32 115 392 C113.34997172 393.35386936 111.6825613 394.68678142 110 396 C109.67 396.66 109.34 397.32 109 398 C108.34 398 107.68 398 107 398 C107 398.66 107 399.32 107 400 C103.53846154 403 103.53846154 403 101 403 C101 403.99 101 404.98 101 406 C99.3203125 407.60546875 99.3203125 407.60546875 97.125 409.1875 C96.40570312 409.71730469 95.68640625 410.24710938 94.9453125 410.79296875 C93 412 93 412 91 412 C90.67 413.32 90.34 414.64 90 416 C89.01 416 88.02 416 87 416 C87 416.66 87 417.32 87 418 C86.34 418 85.68 418 85 418 C84.34 419.32 83.68 420.64 83 422 C82.01 422 81.02 422 80 422 C80 422.66 80 423.32 80 424 C78.824375 424.53625 77.64875 425.0725 76.4375 425.625 C73.37985013 427.1350169 70.99896741 428.74821378 68.5 431.0625 C65.55151643 433.72478765 62.94290257 434.99225181 59.19140625 436.2109375 C55.66638232 437.48019745 52.41430549 439.2732979 49.1015625 441.01171875 C47 442 47 442 45 442 C45 442.66 45 443.32 45 444 C42.09399739 445.25664978 40.20395416 446 37 446 C37 446.66 37 447.32 37 448 C17.39282281 456.49343159 17.39282281 456.49343159 8 456 C8 456.66 8 457.32 8 458 C-24.97431555 468.49337127 -59.8945458 469.50394502 -94 464.75 C-94.73864288 464.64776123 -95.47728577 464.54552246 -96.23831177 464.44018555 C-109.14918467 462.60978331 -122.02772158 460.31493478 -134 455 C-136.30183057 454.23782133 -138.61436686 453.50704496 -140.9375 452.8125 C-142.65259766 452.29623047 -142.65259766 452.29623047 -144.40234375 451.76953125 C-145.25957031 451.51558594 -146.11679687 451.26164062 -147 451 C-147 450.34 -147 449.68 -147 449 C-148.0209375 449.0928125 -148.0209375 449.0928125 -149.0625 449.1875 C-156.7246247 448.69842821 -164.28036471 443.40947012 -171 440 C-171 439.34 -171 438.68 -171 438 C-171.5775 437.87625 -172.155 437.7525 -172.75 437.625 C-175.02335767 436.99351176 -176.9253529 436.11141809 -179 435 C-179 434.34 -179 433.68 -179 433 C-181.65228812 431.92474806 -184.28368454 430.90543849 -187 430 C-187.99 428.515 -187.99 428.515 -189 427 C-190.96752828 425.93753473 -192.96587579 424.92862192 -195 424 C-195 423.34 -195 422.68 -195 422 C-197.08164475 420.92345145 -199.14705728 419.94117709 -201.32421875 419.0703125 C-202.10410156 418.75835938 -202.88398438 418.44640625 -203.6875 418.125 C-204.47511719 417.81820313 -205.26273437 417.51140625 -206.07421875 417.1953125 C-208 416 -208 416 -208.62109375 413.9375 C-208.74613281 413.298125 -208.87117188 412.65875 -209 412 C-211.37625345 410.81608777 -211.37625345 410.81608777 -214 410 C-214.99 409.34 -215.98 408.68 -217 408 C-217 407.34 -217 406.68 -217 406 C-217.66 406 -218.32 406 -219 406 C-220.4375 404.50390625 -220.4375 404.50390625 -222 402.5625 C-224.14525044 399.84811762 -224.14525044 399.84811762 -227 398 C-227 397.34 -227 396.68 -227 396 C-227.61875 395.7525 -228.2375 395.505 -228.875 395.25 C-231.35068687 393.79371361 -231.95125002 392.62187494 -233 390 C-233.66 390 -234.32 390 -235 390 C-238 386.53846154 -238 386.53846154 -238 384 C-238.598125 383.95875 -239.19625 383.9175 -239.8125 383.875 C-243.13181292 382.54727483 -243.55618723 380.18841986 -245 377 C-246.0828125 375.39125 -246.0828125 375.39125 -247.1875 373.75 C-249 371 -249 371 -249 369 C-249.66 369 -250.32 369 -251 369 C-251 368.01 -251 367.02 -251 366 C-251.66 366 -252.32 366 -253 366 C-253 365.34 -253 364.68 -253 364 C-253.66 364 -254.32 364 -255 364 C-255.66 362.02 -256.32 360.04 -257 358 C-257.66 358 -258.32 358 -259 358 C-259.67408308 356.73308493 -260.33900497 355.46129251 -261 354.1875 C-261.37125 353.47980469 -261.7425 352.77210938 -262.125 352.04296875 C-263 350 -263 350 -263 347 C-263.66 347 -264.32 347 -265 347 C-267 344 -267 344 -267.875 340.5625 C-268.6784516 337.003707 -268.6784516 337.003707 -270.9375 335.1875 C-275.13390664 330.73676568 -275.87720461 323.8658189 -277 318 C-277.66 318 -278.32 318 -279 318 C-279.33 315.36 -279.66 312.72 -280 310 C-280.66 310 -281.32 310 -282 310 C-282.18175781 309.14277344 -282.36351562 308.28554688 -282.55078125 307.40234375 C-283.90119045 301.25971316 -285.48183973 295.77078395 -288 290 C-298.16214145 255.80830781 -299.43788908 212.56187508 -290 178 C-289.34 178 -288.68 178 -288 178 C-288.02320313 177.43152344 -288.04640625 176.86304688 -288.0703125 176.27734375 C-288.19191688 171.07441352 -287.67723492 166.92687757 -286 162 C-285.34 162 -284.68 162 -284 162 C-283.67 159.69 -283.34 157.38 -283 155 C-282.34 155 -281.68 155 -281 155 C-280.896875 153.72125 -280.79375 152.4425 -280.6875 151.125 C-280.11866692 145.86329406 -278.6625387 141.00852854 -277 136 C-276.34 136 -275.68 136 -275 136 C-274.7525 135.21625 -274.505 134.4325 -274.25 133.625 C-272.66068507 129.01598671 -270.83792827 124.51452284 -269 120 C-268.34 120 -267.68 120 -267 120 C-266.67 118.68 -266.34 117.36 -266 116 C-265.34 116 -264.68 116 -264 116 C-263.67 114.02 -263.34 112.04 -263 110 C-262.34 110 -261.68 110 -261 110 C-260.79375 109.21625 -260.5875 108.4325 -260.375 107.625 C-258.5268661 102.75264698 -256.0696244 98.22073355 -253 94 C-252.34 94 -251.68 94 -251 94 C-251 93.34 -251 92.68 -251 92 C-249.68799596 90.64567325 -248.35368596 89.31266518 -247 88 C-246.67 87.34 -246.34 86.68 -246 86 C-245.34 86 -244.68 86 -244 86 C-242.92474806 83.34771188 -241.90543849 80.71631546 -241 78 C-240.34 78 -239.68 78 -239 78 C-239 77.34 -239 76.68 -239 76 C-238.34 76 -237.68 76 -237 76 C-236.34 74.68 -235.68 73.36 -235 72 C-234.34 72 -233.68 72 -233 72 C-233 71.34 -233 70.68 -233 70 C-232.34 70 -231.68 70 -231 70 C-230.505 68.515 -230.505 68.515 -230 67 C-229.34 66.67 -228.68 66.34 -228 66 C-227.319375 64.824375 -227.319375 64.824375 -226.625 63.625 C-224.97797591 60.96442263 -223.645699 59.62155745 -221 58 C-220.34 58 -219.68 58 -219 58 C-219 57.34 -219 56.68 -219 56 C-218.34 56 -217.68 56 -217 56 C-216.34 54.68 -215.68 53.36 -215 52 C-214.34 52 -213.68 52 -213 52 C-213 51.34 -213 50.68 -213 50 C-212.34 50 -211.68 50 -211 50 C-211 49.34 -211 48.68 -211 48 C-210.360625 47.71125 -209.72125 47.4225 -209.0625 47.125 C-206.84793921 46.17176549 -206.84793921 46.17176549 -206 44 C-205.01 44 -204.02 44 -203 44 C-203 43.34 -203 42.68 -203 42 C-197.58823529 38 -197.58823529 38 -195 38 C-195 37.34 -195 36.68 -195 36 C-192.76953125 34.37890625 -192.76953125 34.37890625 -189.8125 32.5625 C-188.84957031 31.96566406 -187.88664062 31.36882812 -186.89453125 30.75390625 C-185.93933594 30.17511719 -184.98414063 29.59632813 -184 29 C-183.1234375 28.44570313 -182.246875 27.89140625 -181.34375 27.3203125 C-178.5731613 25.75954753 -176.13824657 25.36491239 -173 25 C-173 24.34 -173 23.68 -173 23 C-164.45924531 18.63425443 -155.99752899 14.35952099 -147 11 C-146.14792969 10.63648438 -145.29585937 10.27296875 -144.41796875 9.8984375 C-142 9 -142 9 -139 9 C-139 8.34 -139 7.68 -139 7 C-137.7625 6.67 -136.525 6.34 -135.25 6 C-134.55390625 5.814375 -133.8578125 5.62875 -133.140625 5.4375 C-131 5 -131 5 -127 5 C-127 4.34 -127 3.68 -127 3 C-85.30280799 -9.22850343 -42.33123098 -8.12610893 0 0 Z " fill="#2D6BAA" transform="translate(571,282)"/>
<path d="M0 0 C0.68707555 2.49064888 1 4.37886292 1 7 C-0.3303125 6.814375 -0.3303125 6.814375 -1.6875 6.625 C-5.28032199 6.65439219 -5.28032199 6.65439219 -7.5625 9.9375 C-8.366875 10.948125 -9.17125 11.95875 -10 13 C-12.8125 13.875 -12.8125 13.875 -15 14 C-15 14.66 -15 15.32 -15 16 C-15.99 16 -16.98 16 -18 16 C-18.495 17.485 -18.495 17.485 -19 19 C-20.55859375 20.140625 -20.55859375 20.140625 -22.4375 21.25 C-25.29609339 23.16549188 -26.52060295 24.47526443 -27.4375 27.8125 C-27.623125 28.864375 -27.80875 29.91625 -28 31 C-28.66 31 -29.32 31 -30 31 C-30.66 31.66 -31.32 32.32 -32 33 C-32.33 32.67 -32.66 32.34 -33 32 C-33.45375 32.66 -33.9075 33.32 -34.375 34 C-34.91125 34.66 -35.4475 35.32 -36 36 C-36.66 36 -37.32 36 -38 36 C-37.67 36.99 -37.34 37.98 -37 39 C-39.475 39.495 -39.475 39.495 -42 40 C-42.33 40.99 -42.66 41.98 -43 43 C-45.01611471 44.6367612 -47.1332696 46.04776015 -49.28515625 47.5 C-49.85105469 47.995 -50.41695313 48.49 -51 49 C-51 49.99 -51 50.98 -51 52 C-51 52.99 -51 53.98 -51 55 C-51.969375 55.2475 -52.93875 55.495 -53.9375 55.75 C-54.948125 56.1625 -55.95875 56.575 -57 57 C-57.67156616 58.93618425 -57.67156616 58.93618425 -58 61 C-58.66 61.433125 -59.32 61.86625 -60 62.3125 C-62.39241247 63.9770579 -62.39241247 63.9770579 -62.75 67.6875 C-62.8325 68.780625 -62.915 69.87375 -63 71 C-65.31 71 -67.62 71 -70 71 C-68.87548273 68.0280615 -67.77706209 65.66559313 -66 63 C-65.34 63 -64.68 63 -64 63 C-63.67 62.01 -63.34 61.02 -63 60 C-62.34 60 -61.68 60 -61 60 C-60.88527344 59.41734375 -60.77054687 58.8346875 -60.65234375 58.234375 C-59.95175938 55.83476865 -59.01807405 54.27139067 -57.5625 52.25 C-57.13066406 51.63640625 -56.69882812 51.0228125 -56.25390625 50.390625 C-55.63322266 49.70226562 -55.63322266 49.70226562 -55 49 C-54.34 49 -53.68 49 -53 49 C-53 48.34 -53 47.68 -53 47 C-52.34 47 -51.68 47 -51 47 C-50.34 45.68 -49.68 44.36 -49 43 C-48.34 43 -47.68 43 -47 43 C-47 42.34 -47 41.68 -47 41 C-46.34 41 -45.68 41 -45 41 C-45 40.34 -45 39.68 -45 39 C-44.34 39 -43.68 39 -43 39 C-42.773125 38.443125 -42.54625 37.88625 -42.3125 37.3125 C-40.63283282 34.35308639 -38.43248148 32.37591214 -36 30 C-35.13692229 28.9237525 -34.28266662 27.84036929 -33.4375 26.75 C-30.93347423 23.92494528 -30.42078492 23.70774861 -27 23 C-25.71563266 21.0162233 -25.71563266 21.0162233 -25 19 C-24.34 19 -23.68 19 -23 19 C-23 18.34 -23 17.68 -23 17 C-17.52380952 12 -17.52380952 12 -15 12 C-15 11.34 -15 10.68 -15 10 C-13.3603125 9.1028125 -13.3603125 9.1028125 -11.6875 8.1875 C-9.04935977 6.68603342 -7.10039697 5.19586956 -5 3 C-3.35394174 1.96642853 -1.69036558 0.95939668 0 0 Z " fill="#3C3735" transform="translate(335,265)"/>
<path d="M0 0 C3.72181616 0.01041659 7.44363963 0.01483599 11.16546631 0.01983643 C18.40702201 0.03041131 25.64854269 0.04737033 32.89007568 0.06866455 C14.44566499 12.36493834 -31.9931007 5.8745501 -52.10992432 2.06866455 C-52.10992432 1.73866455 -52.10992432 1.40866455 -52.10992432 1.06866455 C-34.74041001 -0.03032676 -17.39479482 -0.05401052 0 0 Z " fill="#35619A" transform="translate(527.1099243164063,743.9313354492188)"/>
<path d="M0 0 C19.80849713 0.31610753 39.80561655 1.80540351 59 7 C59 7.33 59 7.66 59 8 C57.27119018 8.05449838 55.54187288 8.09301688 53.8125 8.125 C52.84957031 8.14820313 51.88664063 8.17140625 50.89453125 8.1953125 C47.86483993 7.99087989 45.79288719 7.11715487 43 6 C42.01 6.33 41.02 6.66 40 7 C40 6.34 40 5.68 40 5 C39.01 5 38.02 5 37 5 C37 5.66 37 6.32 37 7 C35.35 7.33 33.7 7.66 32 8 C32 7.34 32 6.68 32 6 C30.02 6 28.04 6 26 6 C26 6.66 26 7.32 26 8 C19.36123192 8.23616171 14.05709252 8.02854626 8 5 C8 4.34 8 3.68 8 3 C5.36 3 2.72 3 0 3 C0 2.01 0 1.02 0 0 Z M11 4 C11 4.66 11 5.32 11 6 C11.66 6 12.32 6 13 6 C13 5.34 13 4.68 13 4 C12.34 4 11.68 4 11 4 Z " fill="#3A3534" transform="translate(520,208)"/>
<path d="M0 0 C-2.16036614 2.44976099 -3.76317952 3.49449954 -6.9375 4.25 C-7.94103516 4.50523437 -7.94103516 4.50523437 -8.96484375 4.765625 C-11.23267118 5.02679515 -12.83560469 4.67788667 -15 4 C-15 4.66 -15 5.32 -15 6 C-13.515 6.495 -13.515 6.495 -12 7 C-13.98 7 -15.96 7 -18 7 C-18 6.34 -18 5.68 -18 5 C-23.94 5.495 -23.94 5.495 -30 6 C-30 6.66 -30 7.32 -30 8 C-31.093125 7.835 -32.18625 7.67 -33.3125 7.5 C-37.57256008 6.92236473 -40.83326637 7.09908462 -45 8 C-45 6.68 -45 5.36 -45 4 C-29.88181202 1.63840796 -15.34011351 -0.20154894 0 0 Z " fill="#3D3535" transform="translate(505,208)"/>
<path d="M0 0 C1.62373801 0.20296725 3.24745686 0.40608865 4.87109375 0.60986328 C6.32129921 0.79047373 7.77183743 0.9684276 9.22265625 1.14404297 C12.66290881 1.56374788 16.07973725 2.01317089 19.5 2.578125 C37.86136056 5.44708759 58.50374427 5.52273461 76.84375 2.4375 C80.61700547 1.91447449 84.19280342 1.93378789 88 2 C84.46588679 4.12046792 81.05606165 4.53199289 77 5 C77.495 5.99 77.495 5.99 78 7 C57.54 7 37.08 7 16 7 C16 6.34 16 5.68 16 5 C10.72 4.01 5.44 3.02 0 2 C0 1.34 0 0.68 0 0 Z " fill="#424952" transform="translate(464,744)"/>
<path d="M0 0 C-0.474375 0.4125 -0.94875 0.825 -1.4375 1.25 C-3.16266518 3.182185 -3.56584875 4.48192275 -4 7 C-5.98 6.34 -7.96 5.68 -10 5 C-10 5.66 -10 6.32 -10 7 C-11.74965358 7.05429959 -13.49979787 7.09292823 -15.25 7.125 C-16.22453125 7.14820313 -17.1990625 7.17140625 -18.203125 7.1953125 C-21.0196498 6.99862781 -22.60949036 6.44568916 -25 5 C-23.906875 4.690625 -22.81375 4.38125 -21.6875 4.0625 C-19.44592006 3.41662103 -17.2130649 2.7376883 -15 2 C-12.66700175 1.96045766 -10.33291811 1.95598268 -8 2 C-8 1.34 -8 0.68 -8 0 C-4.94736336 -0.98120464 -3.05263664 -0.98120464 0 0 Z " fill="#3C3635" transform="translate(444,217)"/>
<path d="M0 0 C0 1.65 0 3.3 0 5 C-0.66 5 -1.32 5 -2 5 C-2.33 5.66 -2.66 6.32 -3 7 C-4.92578125 7.23828125 -4.92578125 7.23828125 -7.3125 7.3125 C-11.02104102 7.63138728 -11.73614971 7.74902046 -14.5625 10.4375 C-16.16308366 12.80102021 -16.16308366 12.80102021 -16 15 C-18.97 15 -21.94 15 -25 15 C-23.2422241 9.7266723 -17.65823219 7.65925089 -13 5 C-10.04291677 3.54534085 -7.04925861 2.24651011 -4 1 C-2 0 -2 0 0 0 Z " fill="#3C3535" transform="translate(376,241)"/>
<path d="M0 0 C0.82638376 2.89234315 1 4.88742431 1 8 C-0.4609375 9.34375 -0.4609375 9.34375 -2.375 10.5 C-6.18072345 12.96716917 -6.18072345 12.96716917 -8 17 C-7.69196545 20.18522204 -7.69196545 20.18522204 -7 23 C-8.423125 23.4640625 -8.423125 23.4640625 -9.875 23.9375 C-12.86080408 24.87394742 -12.86080408 24.87394742 -15 26 C-14.43086322 22.07016291 -13.27856772 19.47287832 -11.09375 16.171875 C-10.51496094 15.29015625 -9.93617188 14.4084375 -9.33984375 13.5 C-8.73269531 12.5925 -8.12554687 11.685 -7.5 10.75 C-6.89285156 9.82703125 -6.28570312 8.9040625 -5.66015625 7.953125 C-1.20326028 1.20326028 -1.20326028 1.20326028 0 0 Z " fill="#433736" transform="translate(263,337)"/>
<path d="M0 0 C5.07334355 7.61001532 6.65141673 15.98912243 7 25 C5.02 25 3.04 25 1 25 C1 23.35 1 21.7 1 20 C1.66 20 2.32 20 3 20 C2.67 19.01 2.34 18.02 2 17 C1.67 17 1.34 17 1 17 C1.01160156 16.443125 1.02320313 15.88625 1.03515625 15.3125 C1.09676433 10.10221657 0.74999344 5.1562049 0 0 Z " fill="#383C3A" transform="translate(800,415)"/>
<path d="M0 0 C-0.33 0.66 -0.66 1.32 -1 2 C0.65 2.66 2.3 3.32 4 4 C0.58156346 5.10992805 -2.09802418 4.91249678 -5.640625 4.44140625 C-6.71054687 4.30283203 -7.78046875 4.16425781 -8.8828125 4.02148438 C-9.99398437 3.87001953 -11.10515625 3.71855469 -12.25 3.5625 C-13.37664063 3.41490234 -14.50328125 3.26730469 -15.6640625 3.11523438 C-18.44365585 2.7501183 -21.2221528 2.37813461 -24 2 C-24 1.67 -24 1.34 -24 1 C-15.72913843 -0.59105604 -8.35268278 -1.2386744 0 0 Z " fill="#404951" transform="translate(552,275)"/>
<path d="M0 0 C0.72703125 0.09990234 1.4540625 0.19980469 2.203125 0.30273438 C3.97003721 0.54684725 5.73523014 0.80335297 7.5 1.0625 C7.5 1.3925 7.5 1.7225 7.5 2.0625 C-1.41 3.0525 -10.32 4.0425 -19.5 5.0625 C-19.5 4.4025 -19.5 3.7425 -19.5 3.0625 C-18.51 2.7325 -17.52 2.4025 -16.5 2.0625 C-16.5 1.4025 -16.5 0.7425 -16.5 0.0625 C-10.71408246 -0.86924123 -5.77995207 -0.861641 0 0 Z " fill="#42494F" transform="translate(488.5,274.9375)"/>
<path d="M0 0 C6.76761128 0.94457629 12.8600433 1.93002165 19 5 C16 7 16 7 12 7 C12 6.01 12 5.02 12 4 C11.34 4 10.68 4 10 4 C10 4.66 10 5.32 10 6 C8.35 6 6.7 6 5 6 C5.66 5.34 6.32 4.68 7 4 C6.01 4 5.02 4 4 4 C3.67 4.66 3.34 5.32 3 6 C2.01 6 1.02 6 0 6 C0 4.02 0 2.04 0 0 Z " fill="#3A3534" transform="translate(584,217)"/>
<path d="M0 0 C0.33 0 0.66 0 1 0 C1.19532961 1.7699868 1.38098882 3.54104279 1.5625 5.3125 C1.66691406 6.29863281 1.77132812 7.28476562 1.87890625 8.30078125 C2 11 2 11 1 14 C-1.375 15.5625 -1.375 15.5625 -4 17 C-4.99 17.66 -5.98 18.32 -7 19 C-5.17778624 12.38757278 -2.94776396 6.19479329 0 0 Z " fill="#433737" transform="translate(238,378)"/>
<path d="M0 0 C2.97 0.495 2.97 0.495 6 1 C4.125 5.75 4.125 5.75 3 8 C2.34 8 1.68 8 1 8 C0.566875 9.2065625 0.566875 9.2065625 0.125 10.4375 C-1 13 -1 13 -3 14 C-4.26332183 9.78892722 -4.00441956 7.4543291 -2.0625 3.625 C-1.39025121 2.40811576 -0.70765749 1.1966397 0 0 Z " fill="#404A52" transform="translate(324,360)"/>
<path d="M0 0 C0.98247098 3.0565764 1.07716184 4.96436209 0 8 C-0.99 9.485 -0.99 9.485 -2 11 C-5 11.125 -5 11.125 -8 11 C-8.99 11.495 -8.99 11.495 -10 12 C-10.33 12.99 -10.66 13.98 -11 15 C-11.66 15 -12.32 15 -13 15 C-12.34 13.35 -11.68 11.7 -11 10 C-10.34 10 -9.68 10 -9 10 C-9 9.01 -9 8.02 -9 7 C-8.34 7 -7.68 7 -7 7 C-7 6.34 -7 5.68 -7 5 C-5.68 5 -4.36 5 -3 5 C-2.67 4.01 -2.34 3.02 -2 2 C-1.34 2 -0.68 2 0 2 C0 1.34 0 0.68 0 0 Z " fill="#2773B4" transform="translate(359,333)"/>
<path d="M0 0 C-1.32 1.32 -2.64 2.64 -4 4 C-3.67 4.66 -3.34 5.32 -3 6 C-6.44534004 6.86133501 -8.60379646 6.93688374 -12 6 C-12.99 6.495 -12.99 6.495 -14 7 C-16.3329866 7.04022391 -18.66706666 7.04320247 -21 7 C-18.02380583 4.02380583 -14.42456111 3.18190761 -10.5 1.8125 C-9.71496094 1.52697266 -8.92992187 1.24144531 -8.12109375 0.94726562 C-6.99380859 0.54991211 -6.99380859 0.54991211 -5.84375 0.14453125 C-5.15474609 -0.09934326 -4.46574219 -0.34321777 -3.75585938 -0.59448242 C-2 -1 -2 -1 0 0 Z " fill="#3B3435" transform="translate(416,225)"/>
<path d="M0 0 C3.63 0 7.26 0 11 0 C11 0.66 11 1.32 11 2 C12.65 2 14.3 2 16 2 C16 2.66 16 3.32 16 4 C16.66 4.33 17.32 4.66 18 5 C11.565 5.495 11.565 5.495 5 6 C5.33 5.34 5.66 4.68 6 4 C4.02 4 2.04 4 0 4 C0 2.66666667 0 1.33333333 0 0 Z " fill="#2375BC" transform="translate(560,282)"/>
<path d="M0 0 C0.33 0 0.66 0 1 0 C1 2.97 1 5.94 1 9 C0.34 9 -0.32 9 -1 9 C-0.67 11.64 -0.34 14.28 0 17 C-0.66 17 -1.32 17 -2 17 C-2 17.99 -2 18.98 -2 20 C-2.66 20 -3.32 20 -4 20 C-4 20.66 -4 21.32 -4 22 C-4.66 22 -5.32 22 -6 22 C-6 20.68 -6 19.36 -6 18 C-5.34 18 -4.68 18 -4 18 C-4.061875 17.05125 -4.12375 16.1025 -4.1875 15.125 C-4.20775553 10.18265094 -2.70179163 5.60277322 -1 1 C-0.67 0.67 -0.34 0.34 0 0 Z " fill="#393B38" transform="translate(223,418)"/>
<path d="M0 0 C1.60379341 -0.05416188 3.20811406 -0.09286638 4.8125 -0.125 C5.70582031 -0.14820313 6.59914063 -0.17140625 7.51953125 -0.1953125 C10 0 10 0 13 2 C15.74518321 2.24187651 15.74518321 2.24187651 18.6875 2.125 C19.68136719 2.10695313 20.67523438 2.08890625 21.69921875 2.0703125 C22.45847656 2.04710937 23.21773438 2.02390625 24 2 C24 3.32 24 4.64 24 6 C15.50569131 5.65954675 8.026086 3.74341572 0 1 C0 0.67 0 0.34 0 0 Z " fill="#463C3B" transform="translate(416,801)"/>
<path d="M0 0 C1.65 0 3.3 0 5 0 C5.12375 0.639375 5.2475 1.27875 5.375 1.9375 C5.684375 2.9584375 5.684375 2.9584375 6 4 C6.66 4.33 7.32 4.66 8 5 C8 5.66 8 6.32 8 7 C9.65 7 11.3 7 13 7 C13 8.65 13 10.3 13 12 C13.99 12 14.98 12 16 12 C16.99 13.98 17.98 15.96 19 18 C17 17 15 16 13 15 C13 14.34 13 13.68 13 13 C12.01 12.67 11.02 12.34 10 12 C8.28891311 10.37897032 6.62746694 8.70496537 5 7 C4.071875 6.113125 3.14375 5.22625 2.1875 4.3125 C0 2 0 2 0 0 Z " fill="#453B3B" transform="translate(299,728)"/>
<path d="M0 0 C-0.99 0.33 -1.98 0.66 -3 1 C-2.814375 1.61875 -2.62875 2.2375 -2.4375 2.875 C-2 5 -2 5 -3 7 C-7.62 7 -12.24 7 -17 7 C-14.1130713 4.1130713 -12.14594915 2.91615956 -8.5 1.25 C-7.5409375 0.80140625 -6.581875 0.3528125 -5.59375 -0.109375 C-3 -1 -3 -1 0 0 Z " fill="#3C3635" transform="translate(395,233)"/>
<path d="M0 0 C2.34917898 2.15341406 3.82443004 4.21667937 5.25 7.0625 C5.60578125 7.75472656 5.9615625 8.44695312 6.328125 9.16015625 C6.54984375 9.76730469 6.7715625 10.37445313 7 11 C6.67 11.66 6.34 12.32 6 13 C3.69 13 1.38 13 -1 13 C-1.0272415 11.58344207 -1.04650467 10.16672955 -1.0625 8.75 C-1.07410156 7.96109375 -1.08570313 7.1721875 -1.09765625 6.359375 C-1.00385306 4.09308998 -0.63241063 2.1711105 0 0 Z " fill="#393835" transform="translate(785,379)"/>
<path d="M0 0 C1.1055189 0.93590504 2.20935453 1.87379858 3.3125 2.8125 C3.92738281 3.33457031 4.54226563 3.85664063 5.17578125 4.39453125 C8.62862684 7.43333111 10.45050268 9.58989224 12 14 C10.125 13.75 10.125 13.75 8 13 C6.75 10.9375 6.75 10.9375 6 9 C4.35 9.66 2.7 10.32 1 11 C-0.62950412 6.87831311 -1.26264601 4.29299643 0 0 Z " fill="#403636" transform="translate(736,306)"/>
<path d="M0 0 C0.66 0 1.32 0 2 0 C1.01 8.91 0.02 17.82 -1 27 C-1.33 27 -1.66 27 -2 27 C-1.98839844 26.18015625 -1.97679687 25.3603125 -1.96484375 24.515625 C-1.95130859 22.89914062 -1.95130859 22.89914062 -1.9375 21.25 C-1.92589844 20.18265625 -1.91429687 19.1153125 -1.90234375 18.015625 C-1.98594365 15.43406018 -2.34275851 13.46465558 -3 11 C-3.12205329 8.32459184 -3.04467313 5.68038762 -3 3 C-2.34 3 -1.68 3 -1 3 C-0.67 2.01 -0.34 1.02 0 0 Z " fill="#404B53" transform="translate(278,469)"/>
<path d="M0 0 C0.66 0 1.32 0 2 0 C2.80967438 2.91482778 3.21845993 4.46113217 2.0625 7.3125 C1.5365625 8.1478125 1.5365625 8.1478125 1 9 C0.34 9 -0.32 9 -1 9 C-1.33 9.66 -1.66 10.32 -2 11 C-1.34 11 -0.68 11 0 11 C0.33 12.65 0.66 14.3 1 16 C-0.98 16.33 -2.96 16.66 -5 17 C-4.46246904 10.81839396 -2.45417612 5.673142 0 0 Z " fill="#3E3739" transform="translate(229,400)"/>
<path d="M0 0 C3 1 3 1 4.9375 3.4375 C6.7462205 6.05841921 6.7462205 6.05841921 9.0625 7 C11.76283847 8.39372308 12.61296063 10.3646252 14 13 C13.01 14.485 13.01 14.485 12 16 C11.34 16 10.68 16 10 16 C9.87625 15.360625 9.7525 14.72125 9.625 14.0625 C9.41875 13.381875 9.2125 12.70125 9 12 C8.34 11.67 7.68 11.34 7 11 C7 10.34 7 9.68 7 9 C5.35 8.67 3.7 8.34 2 8 C1.67 7.01 1.34 6.02 1 5 C0.34 4.67 -0.32 4.34 -1 4 C-0.67 2.68 -0.34 1.36 0 0 Z " fill="#3E3636" transform="translate(709,280)"/>
<path d="M0 0 C1.62566606 0.47690204 3.25051311 0.95659666 4.875 1.4375 C5.77992188 1.70433594 6.68484375 1.97117188 7.6171875 2.24609375 C10 3 10 3 12 4 C12 4.66 12 5.32 12 6 C12.66 6.33 13.32 6.66 14 7 C12.22925083 7.02705729 10.45838289 7.04642195 8.6875 7.0625 C7.70136719 7.07410156 6.71523438 7.08570313 5.69921875 7.09765625 C3 7 3 7 0 6 C0 4.02 0 2.04 0 0 Z " fill="#3C3536" transform="translate(648,241)"/>
<path d="M0 0 C4.93133998 1.08656644 8.78316189 2.1009238 13 5 C11 7 11 7 8.625 7.125 C7.75875 7.08375 6.8925 7.0425 6 7 C4.68 7 3.36 7 2 7 C0 5 0 5 -0.125 2.375 C-0.08375 1.59125 -0.0425 0.8075 0 0 Z " fill="#3D3535" transform="translate(632,233)"/>
<path d="M0 0 C2.10409639 -0.02701408 4.20829178 -0.04640223 6.3125 -0.0625 C7.48425781 -0.07410156 8.65601563 -0.08570313 9.86328125 -0.09765625 C13 0 13 0 16 1 C15.67 2.32 15.34 3.64 15 5 C16.32 5 17.64 5 19 5 C19 5.66 19 6.32 19 7 C14.9333855 7.27644249 12.51367348 6.53745135 8.9375 4.625 C8.10089844 4.18414063 7.26429688 3.74328125 6.40234375 3.2890625 C5.60957031 2.86367188 4.81679688 2.43828125 4 2 C2.66892651 1.32883266 1.33640543 0.66048675 0 0 Z " fill="#453D39" transform="translate(392,792)"/>
<path d="M0 0 C0.33 0 0.66 0 1 0 C1.99 8.91 2.98 17.82 4 27 C3.34 27 2.68 27 2 27 C1.67 25.68 1.34 24.36 1 23 C0.34 23.33 -0.32 23.66 -1 24 C-1 21.36 -1 18.72 -1 16 C-0.34 16 0.32 16 1 16 C0.83628906 15.46890625 0.67257812 14.9378125 0.50390625 14.390625 C-0.11356377 11.46123236 -0.09501925 8.74177064 -0.0625 5.75 C-0.04896484 4.13351562 -0.04896484 4.13351562 -0.03515625 2.484375 C-0.02355469 1.66453125 -0.01195312 0.8446875 0 0 Z " fill="#404C5A" transform="translate(276,528)"/>
<path d="M0 0 C0.66 0 1.32 0 2 0 C1.53199289 4.05606165 1.12046792 7.46588679 -1 11 C-2.32 11 -3.64 11 -5 11 C-5.33 8.36 -5.66 5.72 -6 3 C-5.01 3 -4.02 3 -3 3 C-1.97980427 2.0206121 -0.97850195 1.02104551 0 0 Z " fill="#32659B" transform="translate(734,589)"/>
<path d="M0 0 C2.12046792 3.53411321 2.53199289 6.94393835 3 11 C3.66 10.01 4.32 9.02 5 8 C5 13.28 5 18.56 5 24 C4.01 24 3.02 24 2 24 C1.66231828 20.93796326 1.33063107 17.87530542 1 14.8125 C0.90460937 13.94818359 0.80921875 13.08386719 0.7109375 12.19335938 C0.27309811 8.11207075 -0.13621913 4.11211498 0 0 Z " fill="#3E4A53" transform="translate(746,472)"/>
<path d="M0 0 C2.69504819 2.69504819 5 6.08360477 5 10 C5.66 10 6.32 10 7 10 C7.33 11.98 7.66 13.96 8 16 C6.02 16 4.04 16 2 16 C1.375 14.1875 1.375 14.1875 1 12 C1.66 11.01 2.32 10.02 3 9 C2.01 8.67 1.02 8.34 0 8 C0 5.36 0 2.72 0 0 Z " fill="#403636" transform="translate(776,360)"/>
<path d="M0 0 C1.98 0 3.96 0 6 0 C5.34 1.98 4.68 3.96 4 6 C3.34 6 2.68 6 2 6 C1.9175 6.78375 1.835 7.5675 1.75 8.375 C1 11 1 11 -1.0625 12.3125 C-2.0215625 12.6528125 -2.0215625 12.6528125 -3 13 C-2.67 11.68 -2.34 10.36 -2 9 C-1.34 9 -0.68 9 0 9 C-0.185625 7.88625 -0.37125 6.7725 -0.5625 5.625 C-1 2 -1 2 0 0 Z " fill="#356298" transform="translate(705,640)"/>
<path d="M0 0 C0.66 0 1.32 0 2 0 C3.76462683 3.08809695 4 4.23312136 4 8 C4.66 8 5.32 8 6 8 C6 9.32 6 10.64 6 12 C5.01 12.33 4.02 12.66 3 13 C3 12.01 3 11.02 3 10 C1.68 9.67 0.36 9.34 -1 9 C-0.67 6.03 -0.34 3.06 0 0 Z " fill="#3E3836" transform="translate(793,398)"/>
<path d="M0 0 C4.38889325 0.66498383 7.9811485 2.18757677 12 4 C12 4.66 12 5.32 12 6 C8.04 6 4.08 6 0 6 C0 4.02 0 2.04 0 0 Z " fill="#453535" transform="translate(664,250)"/>
<path d="M0 0 C16.13960034 -0.56740782 16.13960034 -0.56740782 23 3 C23.33 3.66 23.66 4.32 24 5 C15.81911794 4.4533512 7.98214061 2.82876132 0 1 C0 0.67 0 0.34 0 0 Z " fill="#4C3C3B" transform="translate(445,809)"/>
<path d="M0 0 C0.33 0 0.66 0 1 0 C1.17942163 3.94727588 1.09350689 6.5980513 -1 10 C-1.66 10 -2.32 10 -3 10 C-3 10.99 -3 11.98 -3 13 C-3.66 13 -4.32 13 -5 13 C-4.979375 12.21625 -4.95875 11.4325 -4.9375 10.625 C-4.81315937 8.01885039 -4.81315937 8.01885039 -6 6 C-5.5625 3.875 -5.5625 3.875 -5 2 C-4.34 2 -3.68 2 -3 2 C-2.67 2.66 -2.34 3.32 -2 4 C-1.34 2.68 -0.68 1.36 0 0 Z " fill="#403C39" transform="translate(790,632)"/>
<path d="M0 0 C2.875 -0.1875 2.875 -0.1875 6 0 C8.23551759 3.35327639 8.17283528 3.90743657 7.625 7.6875 C7.51414062 8.49574219 7.40328125 9.30398438 7.2890625 10.13671875 C7.19367188 10.75160156 7.09828125 11.36648438 7 12 C4 8.375 4 8.375 4 5 C3.34 5 2.68 5 2 5 C1.34 3.35 0.68 1.7 0 0 Z " fill="#34649B" transform="translate(304,624)"/>
<path d="M0 0 C1.32 0.33 2.64 0.66 4 1 C4.33 2.32 4.66 3.64 5 5 C5.66 5 6.32 5 7 5 C7.33 5.99 7.66 6.98 8 8 C3.25 9 3.25 9 1 9 C0 2.25 0 2.25 0 0 Z " fill="#3E3636" transform="translate(752,327)"/>
<path d="M0 0 C2.60444348 -0.05394705 5.20776998 -0.09364469 7.8125 -0.125 C8.55048828 -0.14175781 9.28847656 -0.15851563 10.04882812 -0.17578125 C13.91246426 -0.21074628 15.70903668 -0.19397555 19 2 C16.95920995 2.1968121 14.91729993 2.38202831 12.875 2.5625 C11.16957031 2.71912109 11.16957031 2.71912109 9.4296875 2.87890625 C6.11102007 2.99608016 3.2437314 2.6655072 0 2 C0 1.34 0 0.68 0 0 Z " fill="#2973B5" transform="translate(520,277)"/>
<path d="M0 0 C1.32 0.66 2.64 1.32 4 2 C-0.75 6 -0.75 6 -3 6 C-3.33 7.32 -3.66 8.64 -4 10 C-4.99 10 -5.98 10 -7 10 C-7 10.66 -7 11.32 -7 12 C-7.66 11.67 -8.32 11.34 -9 11 C-5.55384615 5.21538462 -5.55384615 5.21538462 -2.75 4.125 C-2.1725 4.08375 -1.595 4.0425 -1 4 C-0.67 2.68 -0.34 1.36 0 0 Z " fill="#376198" transform="translate(665,688)"/>
<path d="M0 0 C0.33 0 0.66 0 1 0 C1.22171552 2.60365928 1.42784859 5.20696493 1.625 7.8125 C1.68945312 8.55048828 1.75390625 9.28847656 1.8203125 10.04882812 C2.2265625 15.66015625 2.2265625 15.66015625 0 19 C-0.38499891 20.65549531 -0.72793135 22.3222433 -1 24 C-1.33 24 -1.66 24 -2 24 C-1.03644647 7.1070615 -1.03644647 7.1070615 0 0 Z " fill="#404A55" transform="translate(749,520)"/>
<path d="M0 0 C0 1.65 0 3.3 0 5 C-4.29 5 -8.58 5 -13 5 C-10.74037349 0.48074698 -4.66953512 -0.42450319 0 0 Z " fill="#2673B5" transform="translate(416,299)"/>
<path d="M0 0 C1.32 0.33 2.64 0.66 4 1 C3.67 3.31 3.34 5.62 3 8 C0.03 6.35 -2.94 4.7 -6 3 C-6 2.67 -6 2.34 -6 2 C-4.02 2 -2.04 2 0 2 C0 1.34 0 0.68 0 0 Z " fill="#33649D" transform="translate(372,696)"/>
<path d="M0 0 C-2.31 3.63 -4.62 7.26 -7 11 C-8.47619048 5.0952381 -8.47619048 5.0952381 -8 2 C-3.92125984 -1.30708661 -3.92125984 -1.30708661 0 0 Z " fill="#3D3B39" transform="translate(776,666)"/>
<path d="M0 0 C0.53625 0.268125 1.0725 0.53625 1.625 0.8125 C1.295 2.1325 0.965 3.4525 0.625 4.8125 C-2.75317425 5.65704356 -5.04965243 5.92094919 -8.375 4.8125 C-2.95961538 -0.23365385 -2.95961538 -0.23365385 0 0 Z " fill="#3D3535" transform="translate(346.375,258.1875)"/>
<path d="M0 0 C0 0.99 0 1.98 0 3 C0.99 3.33 1.98 3.66 3 4 C3.33 4.99 3.66 5.98 4 7 C-0.9723422 5.50829734 -5.41845739 3.39542583 -10 1 C-10 0.67 -10 0.34 -10 0 C-3.375 -1.125 -3.375 -1.125 0 0 Z " fill="#395B84" transform="translate(410,721)"/>
<path d="M0 0 C-0.99 0.66 -1.98 1.32 -3 2 C-0.525 2.99 -0.525 2.99 2 4 C1.67 4.99 1.34 5.98 1 7 C-3.75 5.125 -3.75 5.125 -6 4 C-6 3.34 -6 2.68 -6 2 C-7.32 1.34 -8.64 0.68 -10 0 C-6.33694766 -0.74926071 -3.57644848 -1.2380014 0 0 Z " fill="#36619F" transform="translate(398,713)"/>
<path d="M0 0 C0.66 0.66 1.32 1.32 2 2 C1.625 4.125 1.625 4.125 1 6 C1.99 6.33 2.98 6.66 4 7 C5.38671875 8.62890625 5.38671875 8.62890625 6.6875 10.5625 C7.12449219 11.20316406 7.56148438 11.84382812 8.01171875 12.50390625 C8.50091797 13.24447266 8.50091797 13.24447266 9 14 C7 13 5 12 3 11 C3 10.34 3 9.68 3 9 C2.34 9 1.68 9 1 9 C-0.2890625 7.46875 -0.2890625 7.46875 -1.625 5.5 C-2.07101562 4.8503125 -2.51703125 4.200625 -2.9765625 3.53125 C-3.31429688 3.0259375 -3.65203125 2.520625 -4 2 C-2.68 2 -1.36 2 0 2 C0 1.34 0 0.68 0 0 Z " fill="#375C8A" transform="translate(351,679)"/>
<path d="M0 0 C1.57432497 3.14864995 0.71895552 5.64487425 0 9 C-3 11 -3 11 -6 11 C-5.45276317 7.62537285 -4.9451 5.91765 -3 3 C-2.34 3 -1.68 3 -1 3 C-0.67 2.01 -0.34 1.02 0 0 Z " fill="#2872B3" transform="translate(328,365)"/>
<path d="M0 0 C3.25548753 3.02295271 5.68977058 6.20462309 8 10 C8 10.66 8 11.32 8 12 C6.02 12 4.04 12 2 12 C2 10.68 2 9.36 2 8 C1.67 7.34 1.34 6.68 1 6 C0 4 0 4 0 0 Z " fill="#433634" transform="translate(768,348)"/>
<path d="M0 0 C0.33 0.99 0.66 1.98 1 3 C0.67 3.33 0.34 3.66 0 4 C0.66 4.66 1.32 5.32 2 6 C-0.97 5.505 -0.97 5.505 -4 5 C-4 4.34 -4 3.68 -4 3 C-5.65 3 -7.3 3 -9 3 C-9.33 2.34 -9.66 1.68 -10 1 C-6.59437148 0.22157062 -3.49234244 -0.09978121 0 0 Z " fill="#355E8F" transform="translate(428,728)"/>
<path d="M0 0 C1.32 0 2.64 0 4 0 C4 0.99 4 1.98 4 3 C3.34 3 2.68 3 2 3 C1.67 3.99 1.34 4.98 1 6 C-1.0625 7.1875 -1.0625 7.1875 -3 8 C-3.33 5.69 -3.66 3.38 -4 1 C-3.67 1.66 -3.34 2.32 -3 3 C-2.34 3 -1.68 3 -1 3 C-0.67 2.01 -0.34 1.02 0 0 Z " fill="#376196" transform="translate(692,661)"/>
<path d="M0 0 C2.08954032 4.17908064 2.16552619 4.80410573 1 9 C0.34 9 -0.32 9 -1 9 C-1 9.66 -1 10.32 -1 11 C-1.66 11 -2.32 11 -3 11 C-3 11.66 -3 12.32 -3 13 C-3.99 13 -4.98 13 -6 13 C-5.67 11.68 -5.34 10.36 -5 9 C-4.34 9 -3.68 9 -3 9 C-2.01 6.03 -1.02 3.06 0 0 Z " fill="#414950" transform="translate(726,613)"/>
<path d="M0 0 C1.305239 3.91571701 0.32239848 5.03892997 -1.4375 8.6875 C-1.91058594 9.68136719 -2.38367188 10.67523437 -2.87109375 11.69921875 C-3.42990234 12.83810547 -3.42990234 12.83810547 -4 14 C-4.33 14 -4.66 14 -5 14 C-4.85851011 12.3954444 -4.71164314 10.79136233 -4.5625 9.1875 C-4.48128906 8.29417969 -4.40007813 7.40085937 -4.31640625 6.48046875 C-4 4 -4 4 -3 1 C-2.01 0.67 -1.02 0.34 0 0 Z " fill="#35639A" transform="translate(727,608)"/>
<path d="M0 0 C0.33 0 0.66 0 1 0 C1 2.64 1 5.28 1 8 C1.66 8 2.32 8 3 8 C3 10.64 3 13.28 3 16 C1.66666667 16 0.33333333 16 -1 16 C-0.67 10.72 -0.34 5.44 0 0 Z " fill="#404A55" transform="translate(746,544)"/>
<path d="M0 0 C2.64 0.33 5.28 0.66 8 1 C8.33 2.32 8.66 3.64 9 5 C6 5 3 5 0 5 C0.33 4.01 0.66 3.02 1 2 C0.67 1.34 0.34 0.68 0 0 Z " fill="#2673B3" transform="translate(608,298)"/>
<path d="M0 0 C4.62 0 9.24 0 14 0 C13.67 0.66 13.34 1.32 13 2 C12.34 2 11.68 2 11 2 C11 2.66 11 3.32 11 4 C7.1936543 3.32829194 3.64793184 2.27253436 0 1 C0 0.67 0 0.34 0 0 Z " fill="#356196" transform="translate(437,736)"/>
<path d="M0 0 C0.99 0.33 1.98 0.66 3 1 C3 1.66 3 2.32 3 3 C4.32 3 5.64 3 7 3 C9.17457267 5.87354245 10 7.36436591 10 11 C9.34 11 8.68 11 8 11 C5 7.53846154 5 7.53846154 5 5 C3.68 4.67 2.36 4.34 1 4 C0.67 2.68 0.34 1.36 0 0 Z " fill="#3A5A83" transform="translate(328,661)"/>
<path d="M0 0 C1.59789446 3.19578892 0.1581304 5.65252556 -0.8125 9 C-1.34810547 10.8871875 -1.34810547 10.8871875 -1.89453125 12.8125 C-3 16 -3 16 -5 18 C-5.96849611 13.73861711 -6.11658556 11.77553099 -4 8 C-3.64679687 7.29359375 -3.29359375 6.5871875 -2.9296875 5.859375 C-1.953125 3.90625 -0.9765625 1.953125 0 0 Z " fill="#5B3C3B" transform="translate(807,588)"/>
<path d="M0 0 C3.04386724 -0.08226668 5.07175348 0.02391783 8 1 C9.33106622 1.34227417 10.66400079 1.67751743 12 2 C7.375 5 7.375 5 4 5 C4 4.34 4 3.68 4 3 C2.68 2.67 1.36 2.34 0 2 C0 1.34 0 0.68 0 0 Z " fill="#3E4B55" transform="translate(400,297)"/>
<path d="M0 0 C1.32 0.33 2.64 0.66 4 1 C3.67 1.66 3.34 2.32 3 3 C3.66 3 4.32 3 5 3 C5 2.34 5 1.68 5 1 C6.98 1 8.96 1 11 1 C7.267612 4.57011026 2.9050011 5.10913442 -2 6 C-1.67 5.01 -1.34 4.02 -1 3 C-0.01 3 0.98 3 2 3 C2 2.34 2 1.68 2 1 C1.34 0.67 0.68 0.34 0 0 Z " fill="#385D8D" transform="translate(597,728)"/>
<path d="M0 0 C0.99 0 1.98 0 3 0 C3.70226141 1.24176695 4.38629109 2.49385599 5.0625 3.75 C5.44535156 4.44609375 5.82820312 5.1421875 6.22265625 5.859375 C7.1312406 8.36140628 6.88336837 9.5332355 6 12 C3.73013832 9.73013832 3.11224124 7.98914832 2 5 C1.62875 4.071875 1.2575 3.14375 0.875 2.1875 C0.58625 1.465625 0.2975 0.74375 0 0 Z " fill="#413C38" transform="translate(240,648)"/>
<path d="M0 0 C3.48331435 3.01887244 4.79157144 5.56909529 6 10 C4.35 9.67 2.7 9.34 1 9 C0.67 6.03 0.34 3.06 0 0 Z " fill="#413736" transform="translate(762,338)"/>
<path d="M0 0 C2.475 0.495 2.475 0.495 5 1 C5 1.66 5 2.32 5 3 C6.65 3.33 8.3 3.66 10 4 C9.34 5.32 8.68 6.64 8 8 C4.97009905 6.28032649 2.23672704 4.70761694 0 2 C0 1.34 0 0.68 0 0 Z " fill="#413535" transform="translate(611,224)"/>
<path d="M0 0 C0.33 0 0.66 0 1 0 C1 2.97 1 5.94 1 9 C0.01 9 -0.98 9 -2 9 C-2.33 10.65 -2.66 12.3 -3 14 C-4.1750709 10.47478731 -3.72717795 9.34332144 -2.625 5.875 C-2.34914062 4.98554688 -2.07328125 4.09609375 -1.7890625 3.1796875 C-1 1 -1 1 0 0 Z " fill="#463837" transform="translate(223,418)"/>
<path d="M0 0 C0.33 0.66 0.66 1.32 1 2 C0.525625 2.5775 0.05125 3.155 -0.4375 3.75 C-1.9484867 5.92582084 -2.54036151 7.42602448 -3 10 C-3.66 10 -4.32 10 -5 10 C-5.33 11.65 -5.66 13.3 -6 15 C-7.32827107 12.34345786 -6.72245548 11.40567615 -5.8125 8.625 C-4.51525844 4.89543052 -3.15678042 2.50365344 0 0 Z " fill="#4B3A38" transform="translate(784,648)"/>
<path d="M0 0 C1.9375 0.8125 1.9375 0.8125 4 2 C5.09658936 5.28976808 4.79953138 6.71303767 4 10 C3.34 10 2.68 10 2 10 C-0.09350689 6.5980513 -0.17942163 3.94727588 0 0 Z " fill="#3E3B3B" transform="translate(227,614)"/>
<path d="M0 0 C1.89453748 2.84180622 3.00192814 5.31564815 4.1875 8.5 C4.55230469 9.4590625 4.91710937 10.418125 5.29296875 11.40625 C6 14 6 14 5 17 C2.12806348 14.60016264 1.45462042 12.71215877 0.8125 9.0625 C0.65394531 8.20785156 0.49539063 7.35320312 0.33203125 6.47265625 C0 4 0 4 0 0 Z " fill="#413634" transform="translate(800,415)"/>
<path d="M0 0 C2.16874252 0.50603992 3.99967627 0.99983813 6 2 C6 2.66 6 3.32 6 4 C6.66 4 7.32 4 8 4 C8 4.66 8 5.32 8 6 C5.525 5.01 5.525 5.01 3 4 C3 4.66 3 5.32 3 6 C2.01 6 1.02 6 0 6 C0 4.02 0 2.04 0 0 Z " fill="#2673B4" transform="translate(650,322)"/>
<path d="M0 0 C0 0.99 0 1.98 0 3 C0.99 3.33 1.98 3.66 3 4 C-0.57644848 5.2380014 -3.33694766 4.74926071 -7 4 C-3.375 0 -3.375 0 0 0 Z " fill="#2774B7" transform="translate(386,315)"/>
<path d="M0 0 C2.375 0.9375 2.375 0.9375 4.375 3.9375 C0.745 3.9375 -2.885 3.9375 -6.625 3.9375 C-3.3383758 -0.07948514 -3.3383758 -0.07948514 0 0 Z " fill="#2672B6" transform="translate(630.625,308.0625)"/>
<path d="M0 0 C0.66 0.33 1.32 0.66 2 1 C-0.4317111 4.64756665 -1.93879054 4.73087204 -6 6 C-6.66 6.66 -7.32 7.32 -8 8 C-10.625 8.125 -10.625 8.125 -13 8 C-12.01 7.67 -11.02 7.34 -10 7 C-10 6.34 -10 5.68 -10 5 C-6.91190305 3.23537317 -5.76687864 3 -2 3 C-2 2.34 -2 1.68 -2 1 C-1.34 0.67 -0.68 0.34 0 0 Z " fill="#414C5A" transform="translate(618,723)"/>
<path d="M0 0 C3.16115776 1.36983503 3.9927092 1.9890638 6 5 C6.39387788 7.32387947 6.73486085 9.65793749 7 12 C3.57834849 9.71889899 3.30950935 8.75392681 2 5 C1.62875 4.071875 1.2575 3.14375 0.875 2.1875 C0.58625 1.465625 0.2975 0.74375 0 0 Z " fill="#473B38" transform="translate(249,664)"/>
<path d="M0 0 C2.96175123 0.61277612 4.38058783 1.25372522 7 3 C7 3.66 7 4.32 7 5 C5.02 5.33 3.04 5.66 1 6 C0.67 4.02 0.34 2.04 0 0 Z " fill="#373634" transform="translate(689,266)"/>
<path d="M0 0 C0.99 0 1.98 0 3 0 C2.67 5.28 2.34 10.56 2 16 C1.67 16 1.34 16 1 16 C0.67 10.72 0.34 5.44 0 0 Z " fill="#32679B" transform="translate(276,520)"/>
<path d="M0 0 C1.1725131 0.95117134 2.33787015 1.91117009 3.5 2.875 C4.47453125 3.67550781 4.47453125 3.67550781 5.46875 4.4921875 C5.9740625 4.98976563 6.479375 5.48734375 7 6 C7 6.66 7 7.32 7 8 C6.01 8 5.02 8 4 8 C4 7.34 4 6.68 4 6 C2.68 6 1.36 6 0 6 C0 4.02 0 2.04 0 0 Z " fill="#3C3635" transform="translate(728,298)"/>
<path d="M0 0 C1.98 0.99 1.98 0.99 4 2 C4 2.99 4 3.98 4 5 C5.32 4.67 6.64 4.34 8 4 C7.34 5.65 6.68 7.3 6 9 C6.66 9 7.32 9 8 9 C7.67 9.99 7.34 10.98 7 12 C7 11.34 7 10.68 7 10 C6.34 10 5.68 10 5 10 C4.34 8.02 3.68 6.04 3 4 C2.34 4 1.68 4 1 4 C0.67 2.68 0.34 1.36 0 0 Z " fill="#385F90" transform="translate(311,636)"/>
<path d="M0 0 C1.875 0.1875 1.875 0.1875 4 1 C5.25 3.5625 5.25 3.5625 6 6 C4.68 7.32 3.36 8.64 2 10 C2.33 7.69 2.66 5.38 3 3 C2.34 3 1.68 3 1 3 C0.67 2.01 0.34 1.02 0 0 Z " fill="#2771B3" transform="translate(686,355)"/>
<path d="M0 0 C0.66 0.33 1.32 0.66 2 1 C0.95285076 2.32477959 -0.11344669 3.63443746 -1.1875 4.9375 C-1.77917969 5.66839844 -2.37085938 6.39929688 -2.98046875 7.15234375 C-5.32505203 9.29738803 -6.88391498 9.66094412 -10 10 C-9.34 9.01 -8.68 8.02 -8 7 C-7.34 7 -6.68 7 -6 7 C-6 6.34 -6 5.68 -6 5 C-4.04072937 3.2856382 -2.04119788 1.61594832 0 0 Z " fill="#513535" transform="translate(318,277)"/>
<path d="M0 0 C-0.33 0.99 -0.66 1.98 -1 3 C-5.29 2.67 -9.58 2.34 -14 2 C-14 1.67 -14 1.34 -14 1 C-12.41693353 0.83081732 -10.83353281 0.66476064 -9.25 0.5 C-8.36828125 0.4071875 -7.4865625 0.314375 -6.578125 0.21875 C-4 0 -4 0 0 0 Z " fill="#2676B7" transform="translate(504,277)"/>
<path d="M0 0 C0.99 0.33 1.98 0.66 3 1 C3 1.66 3 2.32 3 3 C3.5775 3.268125 4.155 3.53625 4.75 3.8125 C7.0325868 5.01719859 8.9737942 6.40798115 11 8 C6.83954751 7.52722131 4.01367009 7.01367009 1 4 C0.25 1.8125 0.25 1.8125 0 0 Z " fill="#3F3633" transform="translate(677,256)"/>
<path d="M0 0 C0.33 0 0.66 0 1 0 C1.25 3.3125 1.25 3.3125 1 7 C-1 8.9375 -1 8.9375 -3 10 C-3 8.02 -3 6.04 -3 4 C-2.34 4 -1.68 4 -1 4 C-0.67 2.68 -0.34 1.36 0 0 Z " fill="#2870B1" transform="translate(302,406)"/>
<path d="M0 0 C0.66 0 1.32 0 2 0 C2.33 1.32 2.66 2.64 3 4 C3.99 4 4.98 4 6 4 C6 4.99 6 5.98 6 7 C2.20411134 6.45773019 0.52788007 4.79872437 -2 2 C-1.34 2 -0.68 2 0 2 C0 1.34 0 0.68 0 0 Z " fill="#3F4B56" transform="translate(645,313)"/>
<path d="M0 0 C0 0.33 0 0.66 0 1 C-5.28 0.67 -10.56 0.34 -16 0 C-16 -0.33 -16 -0.66 -16 -1 C-9.93179132 -2.08360869 -5.89893243 -1.79074734 0 0 Z " fill="#4E3D3A" transform="translate(488,815)"/>
<path d="M0 0 C2.97 0.33 5.94 0.66 9 1 C8.01 1.495 8.01 1.495 7 2 C7 2.66 7 3.32 7 4 C7.66 4.33 8.32 4.66 9 5 C8.01 5.495 8.01 5.495 7 6 C4.875 5.0625 4.875 5.0625 3 4 C3 3.34 3 2.68 3 2 C2.01 2 1.02 2 0 2 C0 1.34 0 0.68 0 0 Z " fill="#4D3B3B" transform="translate(325,752)"/>
<path d="M0 0 C1.32 0.66 2.64 1.32 4 2 C2.69593116 4.01920337 1.36176581 6.01924973 0 8 C-0.33 8 -0.66 8 -1 8 C-1.625 5.125 -1.625 5.125 -2 2 C-1.34 1.34 -0.68 0.68 0 0 Z M-4 3 C-3.01 3.495 -3.01 3.495 -2 4 C-2.99 4.495 -2.99 4.495 -4 5 C-4 4.34 -4 3.68 -4 3 Z " fill="#3F3C3A" transform="translate(756,688)"/>
<path d="M0 0 C2.91517292 1.07401108 4.77810176 1.77810176 7 4 C6.625 6.125 6.625 6.125 6 8 C1.125 3.375 1.125 3.375 0 0 Z " fill="#2773B3" transform="translate(662,331)"/>
<path d="M0 0 C0.89203125 0.10183594 1.7840625 0.20367188 2.703125 0.30859375 C3.37859375 0.39238281 4.0540625 0.47617187 4.75 0.5625 C4.75 0.8925 4.75 1.2225 4.75 1.5625 C-0.2 1.8925 -5.15 2.2225 -10.25 2.5625 C-9.25 0.5625 -9.25 0.5625 -7.515625 -0.08984375 C-4.88480179 -0.49353904 -2.64068309 -0.31271247 0 0 Z " fill="#4B3D3A" transform="translate(547.25,813.4375)"/>
<path d="M0 0 C2.475 0.495 2.475 0.495 5 1 C5 1.66 5 2.32 5 3 C4.01 3.495 4.01 3.495 3 4 C3.66 4.66 4.32 5.32 5 6 C3.35 6 1.7 6 0 6 C0 4.02 0 2.04 0 0 Z " fill="#363634" transform="translate(664,250)"/>
<path d="M0 0 C1.32 0 2.64 0 4 0 C3.34 1.32 2.68 2.64 2 4 C1.01 4 0.02 4 -1 4 C-1 4.66 -1 5.32 -1 6 C-1.99 5.67 -2.98 5.34 -4 5 C-2.25 2.5 -2.25 2.5 0 0 Z " fill="#385A80" transform="translate(652,700)"/>
<path d="M0 0 C1.37432457 3.81756824 0.67975039 7.07255329 0 11 C-0.99 11.33 -1.98 11.66 -3 12 C-2.69106068 10.3743193 -2.3777305 8.74947252 -2.0625 7.125 C-1.88847656 6.22007812 -1.71445312 5.31515625 -1.53515625 4.3828125 C-1 2 -1 2 0 0 Z " fill="#3D5065" transform="translate(739,578)"/>
<path d="M0 0 C0.66 0 1.32 0 2 0 C1.39305845 3.15330554 0.3583335 5.18888867 -1.5625 7.75 C-2.24505859 8.67039062 -2.24505859 8.67039062 -2.94140625 9.609375 C-3.29074219 10.06828125 -3.64007813 10.5271875 -4 11 C-4.33 10.34 -4.66 9.68 -5 9 C-4.00390625 6.8359375 -4.00390625 6.8359375 -2.5625 4.375 C-2.08941406 3.55773437 -1.61632812 2.74046875 -1.12890625 1.8984375 C-0.75636719 1.27195312 -0.38382813 0.64546875 0 0 Z " fill="#413434" transform="translate(246,365)"/>
<path d="M0 0 C1.67542976 0.28604898 3.34385343 0.61781233 5 1 C5 2.32 5 3.64 5 5 C3.125 4.6875 3.125 4.6875 1 4 C0.34 3.01 -0.32 2.02 -1 1 C-0.67 0.67 -0.34 0.34 0 0 Z " fill="#2672B3" transform="translate(670,339)"/>
<path d="M0 0 C0.68707555 2.49064888 1 4.37886292 1 7 C-1.475 6.01 -1.475 6.01 -4 5 C-2.25 1.125 -2.25 1.125 0 0 Z " fill="#2574BA" transform="translate(375,321)"/>
<path d="M0 0 C3.96 0 7.92 0 12 0 C12.33 0.99 12.66 1.98 13 3 C11.20759337 2.88610125 9.41605165 2.75852313 7.625 2.625 C6.12839844 2.52058594 6.12839844 2.52058594 4.6015625 2.4140625 C2 2 2 2 0 0 Z " fill="#87393C" transform="translate(571,213)"/>
<path d="M0 0 C2.31 0.33 4.62 0.66 7 1 C3.73454239 2.88391785 0.71888239 3.49287967 -3 4 C-2.01 2.68 -1.02 1.36 0 0 Z " fill="#393E3D" transform="translate(595,801)"/>
<path d="M0 0 C-0.33 0.99 -0.66 1.98 -1 3 C-4.3 3.33 -7.6 3.66 -11 4 C-11 3.34 -11 2.68 -11 2 C-3.375 0 -3.375 0 0 0 Z " fill="#3F5065" transform="translate(590,736)"/>
<path d="M0 0 C1.60080151 4.00200378 0.29279692 7.04556236 -1 11 C-1.33 11 -1.66 11 -2 11 C-2.05399736 9.54207116 -2.09279177 8.08357288 -2.125 6.625 C-2.15980469 5.40683594 -2.15980469 5.40683594 -2.1953125 4.1640625 C-2 2 -2 2 0 0 Z " fill="#375D85" transform="translate(743,562)"/>
<path d="M0 0 C0.99 0.33 1.98 0.66 3 1 C3.33 4.63 3.66 8.26 4 12 C1.57869669 9.57869669 1.47159496 8.19888623 0.875 4.875 C0.70742188 3.96492188 0.53984375 3.05484375 0.3671875 2.1171875 C0.24601563 1.41851562 0.12484375 0.71984375 0 0 Z " fill="#783A3C" transform="translate(800,412)"/>
<path d="M0 0 C0.99 0.33 1.98 0.66 3 1 C-3 7 -3 7 -5.625 7.125 C-6.40875 7.08375 -7.1925 7.0425 -8 7 C-5.52327657 4.3929227 -2.94900512 2.06430358 0 0 Z " fill="#33628E" transform="translate(389,309)"/>
<path d="M0 0 C0 0.66 0 1.32 0 2 C-0.66 2 -1.32 2 -2 2 C-2.268125 2.639375 -2.53625 3.27875 -2.8125 3.9375 C-4 6 -4 6 -7 7 C-4.60526316 0 -4.60526316 0 0 0 Z " fill="#2572B6" transform="translate(394,309)"/>
<path d="M0 0 C1.65 0 3.3 0 5 0 C5 1.98 5 3.96 5 6 C3.35 5.67 1.7 5.34 0 5 C0.66 3.68 1.32 2.36 2 1 C1.34 0.67 0.68 0.34 0 0 Z " fill="#2476BB" transform="translate(462,282)"/>
<path d="M0 0 C2.64 0.33 5.28 0.66 8 1 C8 1.66 8 2.32 8 3 C5.36 3.33 2.72 3.66 0 4 C0 2.66666667 0 1.33333333 0 0 Z " fill="#2376BC" transform="translate(560,282)"/>
<path d="M0 0 C0.33 0 0.66 0 1 0 C1.28571429 7.42857143 1.28571429 7.42857143 -1 11 C-1.33 11 -1.66 11 -2 11 C-1.85892253 9.54119891 -1.71197585 8.08296449 -1.5625 6.625 C-1.48128906 5.81289063 -1.40007812 5.00078125 -1.31640625 4.1640625 C-1 2 -1 2 0 0 Z " fill="#2770B5" transform="translate(284,454)"/>
<path d="M0 0 C0.33 0.66 0.66 1.32 1 2 C-3.29 1.67 -7.58 1.34 -12 1 C-12 0.67 -12 0.34 -12 0 C-3.05084746 -1.34237288 -3.05084746 -1.34237288 0 0 Z " fill="#3B4F64" transform="translate(540,276)"/>
<path d="M0 0 C3.96 0.33 7.92 0.66 12 1 C12 1.33 12 1.66 12 2 C5.565 2.495 5.565 2.495 -1 3 C-0.67 2.01 -0.34 1.02 0 0 Z " fill="#3B4F5E" transform="translate(484,275)"/>
<path d="M0 0 C1.65 0.33 3.3 0.66 5 1 C3.625 2.5 3.625 2.5 2 4 C1.34 4 0.68 4 0 4 C0 4.66 0 5.32 0 6 C-1.32 5.67 -2.64 5.34 -4 5 C-3.01 4.34 -2.02 3.68 -1 3 C-0.67 2.01 -0.34 1.02 0 0 Z " fill="#35639D" transform="translate(616,720)"/>
<path d="M0 0 C2.31 0 4.62 0 7 0 C5.515 1.98 5.515 1.98 4 4 C2.68 3.67 1.36 3.34 0 3 C0 2.01 0 1.02 0 0 Z " fill="#375C88" transform="translate(632,712)"/>
<path d="M0 0 C0.33 0.66 0.66 1.32 1 2 C0.01 3.485 0.01 3.485 -1 5 C-1.38499891 6.65549531 -1.72793135 8.3222433 -2 10 C-2.99 9.34 -3.98 8.68 -5 8 C-3.35 5.36 -1.7 2.72 0 0 Z " fill="#843B3D" transform="translate(775,666)"/>
<path d="M0 0 C2 1 2 1 3.25 3.875 C3.4975 4.90625 3.745 5.9375 4 7 C3.01 8.485 3.01 8.485 2 10 C0.68373308 6.38026598 0 3.90432869 0 0 Z " fill="#443A37" transform="translate(234,632)"/>
<path d="M0 0 C0.66 0 1.32 0 2 0 C2.33 1.65 2.66 3.3 3 5 C2.34 5 1.68 5 1 5 C0.67 3.35 0.34 1.7 0 0 Z M4 0 C5.32 0.99 6.64 1.98 8 3 C7.67 3.66 7.34 4.32 7 5 C5.68 3.68 4.36 2.36 3 1 C3.33 0.67 3.66 0.34 4 0 Z " fill="#2673B5" transform="translate(696,371)"/>
<path d="M0 0 C1.98 0 3.96 0 6 0 C6 0.66 6 1.32 6 2 C7.65 2 9.3 2 11 2 C8 4 8 4 5.3125 3.625 C4.549375 3.41875 3.78625 3.2125 3 3 C3 2.34 3 1.68 3 1 C2.01 0.67 1.02 0.34 0 0 Z " fill="#306A99" transform="translate(565,282)"/>
<path d="M0 0 C-0.33 0.99 -0.66 1.98 -1 3 C-1.66 3 -2.32 3 -3 3 C-3 3.66 -3 4.32 -3 5 C-4.98 5.99 -4.98 5.99 -7 7 C-4.60526316 0 -4.60526316 0 0 0 Z " fill="#3E3D39" transform="translate(707,745)"/>
<path d="M0 0 C0.66 0.33 1.32 0.66 2 1 C1.375 3.4375 1.375 3.4375 0 6 C-3.125 6.8125 -3.125 6.8125 -6 7 C-4.71937515 5.2925002 -3.38232443 3.62626404 -2 2 C-1.34 2 -0.68 2 0 2 C0 1.34 0 0.68 0 0 Z " fill="#853B3B" transform="translate(720,734)"/>
<path d="M0 0 C5.75 1.625 5.75 1.625 8 5 C7.05125 4.814375 6.1025 4.62875 5.125 4.4375 C2.10131207 3.71313368 2.10131207 3.71313368 0 5 C0 3.35 0 1.7 0 0 Z " fill="#404E5F" transform="translate(376,706)"/>
<path d="M0 0 C0.433125 0.495 0.86625 0.99 1.3125 1.5 C2.99740483 3.33218192 2.99740483 3.33218192 6 3 C6 3.99 6 4.98 6 6 C5.34 6 4.68 6 4 6 C3.67 6.66 3.34 7.32 3 8 C0 2.25 0 2.25 0 0 Z " fill="#375E8B" transform="translate(297,610)"/>
<path d="M0 0 C0.33 0 0.66 0 1 0 C1.25 2.8125 1.25 2.8125 1 6 C-1 7.875 -1 7.875 -3 9 C-2.01 6.03 -1.02 3.06 0 0 Z " fill="#3E4D5E" transform="translate(730,604)"/>
<path d="M0 0 C1.65 0 3.3 0 5 0 C4.01 0.495 4.01 0.495 3 1 C3 1.66 3 2.32 3 3 C3.66 3.33 4.32 3.66 5 4 C3.35 4 1.7 4 0 4 C0 2.68 0 1.36 0 0 Z " fill="#2476BA" transform="translate(454,284)"/>
<path d="M0 0 C3.63 0 7.26 0 11 0 C8.08235 1.9451 6.37462715 2.45276317 3 3 C3 2.34 3 1.68 3 1 C2.01 0.67 1.02 0.34 0 0 Z " fill="#3E3D39" transform="translate(621,792)"/>
<path d="M0 0 C0.99 0.99 1.98 1.98 3 3 C-0.08809695 4.76462683 -1.23312136 5 -5 5 C-4.67 4.01 -4.34 3.02 -4 2 C-2.02 2.495 -2.02 2.495 0 3 C0 2.01 0 1.02 0 0 Z " fill="#513C3C" transform="translate(637,787)"/>
<path d="M0 0 C2.875 0.25 2.875 0.25 6 1 C7.375 3.0625 7.375 3.0625 8 5 C4.62496331 3.8141763 2.35277269 2.72426311 0 0 Z " fill="#3E3C39" transform="translate(336,760)"/>
<path d="M0 0 C1.32 0.99 2.64 1.98 4 3 C3.67 3.99 3.34 4.98 3 6 C1.35 6 -0.3 6 -2 6 C-2 5.34 -2 4.68 -2 4 C-1.01 4 -0.02 4 1 4 C0.67 2.68 0.34 1.36 0 0 Z " fill="#8A3E3E" transform="translate(284,714)"/>
<path d="M0 0 C2.31 0 4.62 0 7 0 C7 1.32 7 2.64 7 4 C4.08482708 2.92598892 2.22189824 2.22189824 0 0 Z " fill="#385D8D" transform="translate(392,716)"/>
<path d="M0 0 C0 0.66 0 1.32 0 2 C0.66 2.33 1.32 2.66 2 3 C0.02 3.66 -1.96 4.32 -4 5 C-4 3.68 -4 2.36 -4 1 C-2 0 -2 0 0 0 Z " fill="#424A54" transform="translate(666,693)"/>
<path d="M0 0 C1.98 0 3.96 0 6 0 C6 0.66 6 1.32 6 2 C4.03852126 3.38938077 2.03833424 4.7260411 0 6 C0 4.02 0 2.04 0 0 Z " fill="#36649F" transform="translate(680,672)"/>
<path d="M0 0 C0.99 1.32 1.98 2.64 3 4 C2.34 5.32 1.68 6.64 1 8 C0.67 5.36 0.34 2.72 0 0 Z M3 0 C3.66 0 4.32 0 5 0 C5 0.99 5 1.98 5 3 C4.34 3 3.68 3 3 3 C3 2.01 3 1.02 3 0 Z " fill="#346496" transform="translate(283,568)"/>
<path d="M0 0 C0.33 0 0.66 0 1 0 C1.33 2.64 1.66 5.28 2 8 C1.01 8.495 1.01 8.495 0 9 C-0.66 8.67 -1.32 8.34 -2 8 C-1.125 1.125 -1.125 1.125 0 0 Z " fill="#42494C" transform="translate(708,370)"/>
<path d="M0 0 C0.66 0 1.32 0 2 0 C2.185625 0.9590625 2.185625 0.9590625 2.375 1.9375 C2.684375 2.9584375 2.684375 2.9584375 3 4 C3.66 4.33 4.32 4.66 5 5 C4.01 6.485 4.01 6.485 3 8 C0 2.25 0 2.25 0 0 Z " fill="#8E3D3F" transform="translate(777,360)"/>
<path d="M0 0 C1.32 0.66 2.64 1.32 4 2 C3.01 2 2.02 2 1 2 C0.34 3.32 -0.32 4.64 -1 6 C-1.66 5.01 -2.32 4.02 -3 3 C-2.01 2.01 -1.02 1.02 0 0 Z " fill="#42484E" transform="translate(364,324)"/>
<path d="M0 0 C2.375 0.3125 2.375 0.3125 5 1 C5.66 1.99 6.32 2.98 7 4 C5.02 4 3.04 4 1 4 C0.67 2.68 0.34 1.36 0 0 Z " fill="#2673B6" transform="translate(641,316)"/>
<path d="M0 0 C3.125 0.375 3.125 0.375 6 1 C5.67 1.66 5.34 2.32 5 3 C2.69 2.67 0.38 2.34 -2 2 C-1.34 1.34 -0.68 0.68 0 0 Z " fill="#2375BB" transform="translate(588,290)"/>
<path d="M0 0 C5.75 1.875 5.75 1.875 8 3 C8 3.66 8 4.32 8 5 C2.25 3.125 2.25 3.125 0 2 C0 1.34 0 0.68 0 0 Z " fill="#323832" transform="translate(648,241)"/>
</svg>
