<?xml version="1.0" encoding="UTF-8"?>
<svg version="1.1" xmlns="http://www.w3.org/2000/svg" width="512" height="512">
<path d="M0 0 C5.85331724 4.29251129 7.19582273 10.36776946 9.30078125 17.07421875 C9.69428772 18.28561523 10.08779419 19.49701172 10.4932251 20.74511719 C11.56185106 24.03603215 12.61160069 27.33268956 13.65788651 30.63076401 C14.7575871 34.08592314 15.87475644 37.53542594 16.98999023 40.9855957 C19.03017883 47.30624237 21.0552658 53.6316017 23.07281399 59.95950794 C25.20050254 66.63230951 27.34201742 73.3006448 29.484375 79.96875 C32.13694955 88.23100522 34.7774429 96.49702217 37.41015625 104.765625 C39.72518557 112.03469319 42.06451976 119.29524024 44.43359375 126.546875 C44.69870255 127.35965408 44.96381134 128.17243317 45.23695374 129.00984192 C46.4540803 132.74038314 47.67529834 136.46947862 48.90454102 140.19604492 C49.32195768 141.4730856 49.73920562 142.75018144 50.15625 144.02734375 C50.51525391 145.11781006 50.87425781 146.20827637 51.24414062 147.33178711 C52 150 52 150 52 153 C53.21452111 152.99585193 53.21452111 152.99585193 54.453578 152.99162006 C74.14998402 152.92538261 93.84637086 152.87573031 113.5428648 152.84456348 C123.06792385 152.82909104 132.59290857 152.8079943 142.11791992 152.77368164 C150.41939732 152.74379085 158.72082089 152.72442774 167.02235061 152.71773452 C171.41843281 152.71382171 175.81436103 152.70461825 180.21039391 152.68280983 C184.34799781 152.66244974 188.48538428 152.65616522 192.62303352 152.66067696 C194.14158688 152.65985154 195.66014749 152.65388295 197.17865753 152.64238358 C199.2528507 152.62744641 201.32622406 152.63105016 203.4004364 152.63923645 C205.14124245 152.63508838 205.14124245 152.63508838 206.9172163 152.63085651 C210.35717173 153.04276901 212.23863423 153.94190664 215 156 C216.42662219 158.85324437 216.31033868 160.83454549 216 164 C212.94585393 168.65834401 208.96676945 171.37219494 204.4375 174.4375 C202.90238441 175.49817666 201.36857822 176.56075037 199.8359375 177.625 C199.04026367 178.17671875 198.24458984 178.7284375 197.42480469 179.296875 C193.42062155 182.10931776 189.49234328 185.02251526 185.5625 187.9375 C175.69193366 195.24404819 165.73808969 202.43115139 155.77050781 209.60449219 C146.51144944 216.27020379 137.29017269 222.98259678 128.11450195 229.76269531 C121.94917353 234.31349061 115.74603755 238.80966808 109.52783203 243.2878418 C102.31969374 248.48158724 95.15713316 253.73631358 88 259 C92.49754503 274.44907856 97.46564793 289.7334122 102.51513672 305.00900269 C104.84884573 312.06976491 107.17073076 319.13442054 109.4921875 326.19921875 C109.72544487 326.9089213 109.95870224 327.61862385 110.19902802 328.34983253 C114.85739527 342.52715462 119.45023196 356.72491998 124 370.9375 C124.32466248 371.9491925 124.64932495 372.96088501 124.98382568 374.00323486 C126.74613702 379.49780496 128.48753743 384.99823589 130.20800781 390.50604248 C130.99669929 392.98960618 131.81958253 395.45976463 132.6484375 397.93017578 C133.14125692 399.45454845 133.63347886 400.97911446 134.125 402.50390625 C134.48029785 403.51806862 134.48029785 403.51806862 134.84277344 404.55271912 C135.97249787 408.14928131 136.06558016 409.82241677 134.7421875 413.40600586 C133 416 133 416 131 417 C126.29085058 417.68812222 123.60475431 417.05627639 119.79296875 414.39453125 C118.24539116 413.21666488 116.71084096 412.02154835 115.1875 410.8125 C113.49555783 409.51722775 111.80283082 408.22298015 110.109375 406.9296875 C109.25666016 406.2706543 108.40394531 405.61162109 107.52539062 404.93261719 C103.7200379 402.02047757 99.83276689 399.22755029 95.9375 396.4375 C94.44511493 395.36225333 92.95292752 394.28673227 91.4609375 393.2109375 C89.97404479 392.14050489 88.4870657 391.07019227 87 390 C76.99449602 382.79936792 67.02311522 375.55749214 57.10791016 368.23291016 C49.5275689 362.63882004 41.89288139 357.12178901 34.24707031 351.61767578 C31.19566465 349.42095545 28.14536283 347.22271412 25.09667969 345.0222168 C23.58832653 343.93448072 22.07858557 342.8486662 20.56738281 341.76489258 C16.90427433 339.1313775 13.27994087 336.46315428 9.7109375 333.703125 C9.03184326 333.18443848 8.35274902 332.66575195 7.65307617 332.13134766 C6.3778449 331.15405577 5.1116943 330.16475472 3.85668945 329.16162109 C0.56807813 326.58553128 0.56807813 326.58553128 -3.4453125 326.21533203 C-6.12822421 327.03938385 -7.78695306 328.01041012 -10.01171875 329.703125 C-10.7601001 330.26459229 -11.50848145 330.82605957 -12.27954102 331.40454102 C-13.07416748 332.01354248 -13.86879395 332.62254395 -14.6875 333.25 C-16.39781262 334.53598773 -18.10876522 335.8211247 -19.8203125 337.10546875 C-20.6855957 337.75821777 -21.55087891 338.4109668 -22.44238281 339.08349609 C-26.28030412 341.9593726 -30.16817728 344.76372396 -34.0625 347.5625 C-35.55469653 348.6380083 -37.04688402 349.71352915 -38.5390625 350.7890625 C-40.76903289 352.394446 -42.99926236 353.99946914 -45.22949219 355.60449219 C-53.68593036 361.6923875 -62.11888909 367.80868741 -70.5 374 C-78.87360152 380.18576524 -87.29932732 386.29598074 -95.74853516 392.37792969 C-98.8198423 394.59065628 -101.88705243 396.80902211 -104.95361328 399.02832031 C-106.46980365 400.12379445 -107.9876775 401.21694278 -109.50732422 402.30761719 C-113.03772096 404.84277976 -116.54266429 407.39977237 -119.99609375 410.0390625 C-120.62161133 410.50868408 -121.24712891 410.97830566 -121.89160156 411.4621582 C-123.04577392 412.3299841 -124.19062805 413.21042172 -125.32324219 414.10620117 C-129.2803925 417.050583 -132.13469316 417.53670052 -137 417 C-139.4375 415.4375 -139.4375 415.4375 -141 413 C-141.73603494 406.31602214 -139.53779538 400.66092842 -137.40625 394.38671875 C-137.02800079 393.24514816 -136.64975159 392.10357758 -136.26004028 390.92741394 C-135.23026025 387.82400538 -134.19167553 384.72371 -133.1496048 381.62441254 C-132.05561934 378.36249984 -130.97387451 375.0965418 -129.89208984 371.83056641 C-129.67458509 371.17400936 -129.45708035 370.51745232 -129.23298454 369.8409996 C-128.79136687 368.50788437 -128.3497897 367.17475573 -127.90825272 365.84161377 C-127.23931551 363.82336619 -126.56906286 361.80555943 -125.89852905 359.7878418 C-121.71158662 347.18069181 -117.65328249 334.53368725 -113.625 321.875 C-112.33678911 317.83306145 -111.04755656 313.79144957 -109.7578125 309.75 C-109.44716858 308.77637009 -109.13652466 307.80274017 -108.81646729 306.79960632 C-103.6139382 290.51063862 -98.30549625 274.25566549 -93 258 C-93.76642822 257.71189453 -94.53285645 257.42378906 -95.32250977 257.12695312 C-98.67022216 255.71790412 -101.09765954 253.76327764 -103.9375 251.5 C-108.44839917 247.95264381 -113.00380272 244.50365497 -117.6875 241.1875 C-118.26145508 240.78047852 -118.83541016 240.37345703 -119.42675781 239.95410156 C-120.63983382 239.09404059 -121.85305419 238.2341832 -123.06640625 237.37451172 C-133.75745564 229.77468747 -144.34092177 222.02725455 -154.89111328 214.23364258 C-163.2143588 208.09126792 -171.60399195 202.04233081 -180 196 C-189.48092548 189.17688981 -198.94845031 182.3356141 -208.375 175.4375 C-209.57950806 174.56170288 -209.57950806 174.56170288 -210.80834961 173.66821289 C-220.50570948 166.54877697 -220.50570948 166.54877697 -221.9375 162.0625 C-222.01259237 158.38297369 -221.28071785 156.85089731 -219 154 C-215.65592109 152.88530703 -213.16521538 152.87695066 -209.64094543 152.87974548 C-208.99318089 152.87889106 -208.34541634 152.87803663 -207.67802256 152.87715632 C-205.50382625 152.87550699 -203.3297068 152.88101394 -201.15551758 152.88647461 C-199.59844464 152.88675663 -198.04137157 152.88659847 -196.48429871 152.8860321 C-192.25319473 152.88574469 -188.02211899 152.8916324 -183.79102159 152.89860606 C-179.37074822 152.9048489 -174.95047424 152.90544414 -170.53019714 152.90663147 C-162.15795613 152.90974203 -153.78572813 152.91795174 -145.41349286 152.92798096 C-135.88277206 152.93915061 -126.35205065 152.9446547 -116.82132494 152.94967639 C-97.21420935 152.96013456 -77.6071055 152.97772871 -58 153 C-57.87980814 152.42750991 -57.75961628 151.85501982 -57.63578224 151.26518154 C-56.61748901 146.53270514 -55.44159952 141.94590683 -53.91552734 137.34594727 C-53.50628021 136.10479156 -53.09703308 134.86363586 -52.67538452 133.58486938 C-52.22893648 132.24537024 -51.78245308 130.90588288 -51.3359375 129.56640625 C-50.86615011 128.1458456 -50.39681076 126.72513672 -49.92788696 125.30429077 C-48.93158764 122.28769977 -47.9328649 119.27192747 -46.93212891 116.25680542 C-44.30620094 108.34395427 -41.69644509 100.4257613 -39.0859375 92.5078125 C-38.69436588 91.32080781 -38.69436588 91.32080781 -38.29488373 90.10982323 C-32.49692707 72.53035367 -26.84649501 54.90557141 -21.24545288 37.26237488 C-20.12235592 33.73351626 -18.98947706 30.20783422 -17.85595703 26.68231201 C-16.9423981 23.81949295 -16.04781639 20.95104265 -15.15234375 18.08251953 C-14.53972169 16.16027156 -13.92646102 14.23822698 -13.3125 12.31640625 C-12.90233643 10.97811012 -12.90233643 10.97811012 -12.48388672 9.61277771 C-10.51197642 3.51895679 -10.51197642 3.51895679 -7.9765625 0.94897461 C-5.05167428 -0.45530411 -3.20247799 -0.52285355 0 0 Z " fill="#000000" transform="translate(264,21)"/>
<path d="M0 0 C1.21297943 2.61770462 2.12519743 5.02620365 2.98046875 7.76171875 C3.23878983 8.54513138 3.4971109 9.32854401 3.76325989 10.13569641 C4.30778492 11.79686774 4.84441872 13.46064324 5.3737793 15.12670898 C6.1803154 17.66488995 7.00864513 20.19505508 7.84179688 22.72460938 C8.36848463 24.34072368 8.89391578 25.95724815 9.41796875 27.57421875 C9.78513252 28.70424568 9.78513252 28.70424568 10.15971375 29.85710144 C11.43760489 33.88914205 12.42418579 37.79410687 13 42 C13.54679413 41.99777939 14.09358826 41.99555878 14.6569519 41.99327087 C20.33428292 41.97119314 26.0116018 41.95608295 31.68896484 41.94506836 C33.80941259 41.94003128 35.92985685 41.93320141 38.05029297 41.92456055 C41.09343322 41.91246766 44.13652766 41.90676553 47.1796875 41.90234375 C48.13181122 41.89718246 49.08393494 41.89202118 50.06491089 41.88670349 C50.94567291 41.88662796 51.82643494 41.88655243 52.73388672 41.88647461 C53.51110077 41.884254 54.28831482 41.88203339 55.08908081 41.87974548 C57 42 57 42 59 43 C59.47332481 48.42796675 59.47332481 48.42796675 57.4453125 50.87890625 C56.29675781 51.71228516 56.29675781 51.71228516 55.125 52.5625 C54.22523438 53.22894531 53.32546875 53.89539063 52.3984375 54.58203125 C51.8734668 54.95537598 51.34849609 55.3287207 50.80761719 55.71337891 C48.70403932 57.21065813 46.62193356 58.73577213 44.5390625 60.26171875 C38.10306173 64.95806416 31.66266663 69.62895119 25 74 C27.54924541 83.86012159 30.72030683 93.48867004 33.94726562 103.14453125 C34.33978516 104.34207031 34.73230469 105.53960937 35.13671875 106.7734375 C35.49467529 107.85028809 35.85263184 108.92713867 36.22143555 110.03662109 C36.96964812 112.88447441 37.31554805 115.07806976 37 118 C36.34 118.66 35.68 119.32 35 120 C29.82675266 119.90525188 26.12265127 116.55552202 22.125 113.625 C21.38483643 113.09495361 20.64467285 112.56490723 19.88208008 112.01879883 C16.10980043 109.30720916 12.38317575 106.54276978 8.69140625 103.72265625 C8.0164209 103.21202637 7.34143555 102.70139648 6.64599609 102.17529297 C5.36260207 101.20034867 4.08775913 100.21402037 2.82275391 99.21533203 C-0.28127513 96.76512688 -0.28127513 96.76512688 -4.03515625 95.94140625 C-6.90388782 97.48698528 -9.5120253 99.31574911 -12.125 101.25 C-12.72175537 101.68094971 -13.31851074 102.11189941 -13.93334961 102.5559082 C-17.57195436 105.18938378 -21.16549733 107.87814838 -24.74609375 110.58984375 C-25.5457959 111.18700195 -26.34549805 111.78416016 -27.16943359 112.39941406 C-28.74585689 113.5773088 -30.31293262 114.76783456 -31.86962891 115.97167969 C-32.95703369 116.78040527 -32.95703369 116.78040527 -34.06640625 117.60546875 C-34.70521729 118.09168701 -35.34402832 118.57790527 -36.00219727 119.07885742 C-38.68279951 120.31482373 -40.22919897 119.851768 -43 119 C-43.495 118.505 -43.495 118.505 -44 118 C-43.54911301 112.29868879 -42.32224489 107.25085238 -40.49609375 101.8515625 C-40.2533522 101.1129599 -40.01061066 100.3743573 -39.76051331 99.6133728 C-38.99305951 97.28157174 -38.21589006 94.95317072 -37.4375 92.625 C-36.65710712 90.27492869 -35.87882779 87.92419513 -35.10377502 85.57235718 C-34.62313193 84.11550319 -34.13914292 82.65974793 -33.651474 81.20523071 C-32.42134981 77.67867308 -32.42134981 77.67867308 -32 74 C-34.46523259 72.12666731 -36.94202116 70.36403971 -39.5 68.625 C-45.75410253 64.29804917 -51.92511166 59.8881549 -58 55.3125 C-58.68771484 54.79574707 -59.37542969 54.27899414 -60.08398438 53.74658203 C-64.84915304 50.15084696 -64.84915304 50.15084696 -66 49 C-66.04080783 47.00041636 -66.04254356 44.99954746 -66 43 C-63.6699002 41.8349501 -62.32752923 41.8790642 -59.73388672 41.88647461 C-58.41274368 41.88658791 -58.41274368 41.88658791 -57.06491089 41.88670349 C-56.11278717 41.89186478 -55.16066345 41.89702606 -54.1796875 41.90234375 C-52.71899338 41.90446617 -52.71899338 41.90446617 -51.22879028 41.90663147 C-48.11082927 41.91224027 -44.9929394 41.92479427 -41.875 41.9375 C-39.76432395 41.94251387 -37.65364678 41.94707697 -35.54296875 41.95117188 C-30.36195479 41.96221255 -25.18098248 41.97895927 -20 42 C-19.88458359 41.4438501 -19.76916718 40.8877002 -19.6502533 40.31469727 C-18.53149258 35.08407387 -17.17299493 30.0174046 -15.50390625 24.9375 C-15.26969467 24.22013672 -15.03548309 23.50277344 -14.79417419 22.76367188 C-14.30327905 21.26726818 -13.80993819 19.77166469 -13.31420898 18.27685547 C-12.55630735 15.98124304 -11.8162116 13.68032968 -11.07617188 11.37890625 C-10.59483003 9.91891432 -10.11244631 8.45926537 -9.62890625 7 C-9.30062584 5.96734009 -9.30062584 5.96734009 -8.9657135 4.91381836 C-8.31860352 3 -8.31860352 3 -7 0 C-3.88482112 -1.03839296 -2.95392646 -1.19192778 0 0 Z " fill="#000000" transform="translate(405,25)"/>
<path d="M0 0 C3.64666146 2.35611294 4.36552141 5.54340352 5.58300781 9.51293945 C5.83991394 10.29730881 6.09682007 11.08167816 6.36151123 11.88981628 C7.17774892 14.39798242 7.96616077 16.91397113 8.75488281 19.4309082 C9.30002677 21.11441243 9.84688298 22.79736324 10.39550781 24.47973633 C14.64549426 37.62151931 14.64549426 37.62151931 15.50488281 42.6184082 C17.43521362 42.60269775 17.43521362 42.60269775 19.40454102 42.58666992 C24.17355575 42.55050277 28.94255833 42.52751966 33.71166992 42.50854492 C35.77679482 42.49847985 37.84190544 42.48482666 39.90698242 42.4675293 C42.87324545 42.44330327 45.83932025 42.43193024 48.80566406 42.4230957 C49.73075272 42.41277313 50.65584137 42.40245056 51.60896301 42.39181519 C52.46962875 42.39166412 53.33029449 42.39151306 54.21704102 42.39135742 C54.97426956 42.3869162 55.73149811 42.38247498 56.51167297 42.37789917 C58.50488281 42.6184082 58.50488281 42.6184082 61.50488281 44.6184082 C62.04394531 46.95043945 62.04394531 46.95043945 61.50488281 49.6184082 C59.64854484 51.45316085 57.99210619 52.82662951 55.87988281 54.3059082 C55.30028809 54.730896 54.72069336 55.15588379 54.12353516 55.59375 C52.26211998 56.95201931 50.38481034 58.28591095 48.50488281 59.6184082 C47.25940957 60.51590063 46.01461077 61.41432976 44.77050781 62.3137207 C41.91953689 64.36764194 39.05624796 66.40321991 36.18554688 68.42944336 C33.28440916 70.48181708 30.39541245 72.55113068 27.50488281 74.6184082 C28.58945315 80.26068162 30.10327989 85.65601214 31.92285156 91.1027832 C32.25641159 92.10480774 32.25641159 92.10480774 32.59671021 93.1270752 C33.52906175 95.91779744 34.46625675 98.70669833 35.41772461 101.4909668 C36.11761463 103.54565923 36.80246888 105.60488652 37.48535156 107.6652832 C37.8968042 108.88054687 38.30825684 110.09581055 38.73217773 111.34790039 C39.50505311 114.61912901 39.46852025 116.44009525 38.50488281 119.6184082 C36.49316406 120.44262695 36.49316406 120.44262695 33.50488281 120.6184082 C30.65536438 119.23462922 28.2139305 117.33530393 25.69238281 115.4309082 C24.95407227 114.8944165 24.21576172 114.3579248 23.45507812 113.80517578 C19.58415339 110.97683437 15.78288525 108.06654277 12.00878906 105.1105957 C11.29376221 104.55654053 10.57873535 104.00248535 9.84204102 103.43164062 C8.47357691 102.36571449 7.11608628 101.28551507 5.77124023 100.18994141 C2.23184055 97.39783102 2.23184055 97.39783102 -2.07714844 96.5168457 C-5.26563392 97.96943521 -7.70603094 99.85194631 -10.43261719 102.0559082 C-11.57410132 102.96435521 -12.71739623 103.87053066 -13.86230469 104.7746582 C-14.74934082 105.47655273 -14.74934082 105.47655273 -15.65429688 106.19262695 C-19.294423 109.01203499 -23.06633943 111.64779232 -26.82495117 114.30566406 C-29.1708532 115.96459347 -31.49163572 117.61560233 -33.72949219 119.41918945 C-35.49511719 120.6184082 -35.49511719 120.6184082 -38.18261719 120.3684082 C-40.49511719 119.6184082 -40.49511719 119.6184082 -41.49511719 118.6184082 C-41.38260421 112.58190786 -39.9086938 106.98039048 -37.99121094 101.30200195 C-37.74846939 100.56007095 -37.50572784 99.81813995 -37.25563049 99.0537262 C-36.48948276 96.71832643 -35.71130807 94.38715177 -34.93261719 92.0559082 C-34.40642067 90.45916835 -33.88102287 88.86216504 -33.35644531 87.26489258 C-32.07853464 83.37962922 -30.7898327 79.49810226 -29.49511719 75.6184082 C-35.06023698 71.11214483 -40.63605734 66.67416374 -46.49511719 62.5559082 C-47.08252686 62.13599609 -47.66993652 61.71608398 -48.27514648 61.28344727 C-51.00818611 59.33621696 -53.75291766 57.45274934 -56.57714844 55.63793945 C-57.47820312 55.05399414 -58.37925781 54.47004883 -59.30761719 53.8684082 C-60.0978125 53.37856445 -60.88800781 52.8887207 -61.70214844 52.3840332 C-64.13645777 49.98684841 -64.21140846 47.94849751 -64.49511719 44.6184082 C-61.41471866 42.56480918 -60.70027021 42.36102087 -57.20727539 42.29956055 C-55.91627678 42.26975601 -55.91627678 42.26975601 -54.59919739 42.23934937 C-53.67410873 42.22779816 -52.74902008 42.21624695 -51.79589844 42.2043457 C-50.84571335 42.18497955 -49.89552826 42.1656134 -48.91654968 42.1456604 C-45.88033029 42.08585908 -42.844073 42.03947691 -39.80761719 41.9934082 C-37.7496579 41.95522894 -35.69171461 41.91617724 -33.63378906 41.8762207 C-28.58769488 41.78015702 -23.54152589 41.69612789 -18.49511719 41.6184082 C-18.11701904 40.41716309 -17.7389209 39.21591797 -17.34936523 37.97827148 C-15.94558197 33.52819533 -14.5277994 29.08268527 -13.10571289 24.63842773 C-12.49184659 22.71321572 -11.88179892 20.78678181 -11.27563477 18.85913086 C-10.40435565 16.09070025 -9.51949875 13.32693498 -8.63183594 10.5637207 C-8.36296066 9.6990921 -8.09408539 8.8344635 -7.81706238 7.94363403 C-7.5570192 7.14295502 -7.29697601 6.342276 -7.02905273 5.51733398 C-6.80477097 4.8111795 -6.5804892 4.10502502 -6.34941101 3.37747192 C-4.88127285 0.35445045 -3.26358973 -0.49911847 0 0 Z " fill="#000000" transform="translate(136.4951171875,24.381591796875)"/>
<path d="M0 0 C3.64666146 2.35611294 4.36552141 5.54340352 5.58300781 9.51293945 C5.83991394 10.29730881 6.09682007 11.08167816 6.36151123 11.88981628 C7.17774892 14.39798242 7.96616077 16.91397113 8.75488281 19.4309082 C9.30002677 21.11441243 9.84688298 22.79736324 10.39550781 24.47973633 C14.64549426 37.62151931 14.64549426 37.62151931 15.50488281 42.6184082 C16.05167694 42.61396698 16.59847107 42.60952576 17.16183472 42.60494995 C22.83914585 42.56079464 28.51640842 42.53057441 34.19384766 42.50854492 C36.31431051 42.49847069 38.43475942 42.48481087 40.55517578 42.4675293 C43.59834224 42.44334331 46.64132548 42.43193951 49.68457031 42.4230957 C50.63669403 42.41277313 51.58881775 42.40245056 52.5697937 42.39181519 C53.45055573 42.39166412 54.33131775 42.39151306 55.23876953 42.39135742 C56.01598358 42.3869162 56.79319763 42.38247498 57.59396362 42.37789917 C59.50488281 42.6184082 59.50488281 42.6184082 61.50488281 44.6184082 C62.05957031 46.8996582 62.05957031 46.8996582 61.50488281 49.6184082 C59.2473631 51.70984336 57.13987721 53.38080966 54.62988281 55.1184082 C53.92476563 55.62597656 53.21964844 56.13354492 52.49316406 56.65649414 C50.97625583 57.74635684 49.45422696 58.82912004 47.92773438 59.90551758 C45.41578039 61.68140121 42.92339028 63.48214165 40.43457031 65.2902832 C36.13458721 68.41356182 31.82360904 71.52110944 27.50488281 74.6184082 C28.58945315 80.26068162 30.10327989 85.65601214 31.92285156 91.1027832 C32.25641159 92.10480774 32.25641159 92.10480774 32.59671021 93.1270752 C33.52906175 95.91779744 34.46625675 98.70669833 35.41772461 101.4909668 C36.11761463 103.54565923 36.80246888 105.60488652 37.48535156 107.6652832 C37.8968042 108.88054687 38.30825684 110.09581055 38.73217773 111.34790039 C39.50505311 114.61912901 39.46852025 116.44009525 38.50488281 119.6184082 C36.49316406 120.44262695 36.49316406 120.44262695 33.50488281 120.6184082 C30.65536438 119.23462922 28.2139305 117.33530393 25.69238281 115.4309082 C24.95407227 114.8944165 24.21576172 114.3579248 23.45507812 113.80517578 C19.58415339 110.97683437 15.78288525 108.06654277 12.00878906 105.1105957 C11.29376221 104.55654053 10.57873535 104.00248535 9.84204102 103.43164062 C8.47357691 102.36571449 7.11608628 101.28551507 5.77124023 100.18994141 C2.26293466 97.42953648 2.26293466 97.42953648 -1.99121094 96.45825195 C-5.65929463 98.15781647 -8.64596013 100.49449204 -11.80761719 102.9934082 C-13.22382298 104.0803445 -14.64184689 105.16491533 -16.06152344 106.24731445 C-16.78871582 106.80306152 -17.5159082 107.35880859 -18.26513672 107.93139648 C-21.87867015 110.66508556 -25.54298413 113.31879765 -29.24511719 115.9309082 C-29.91196533 116.41672363 -30.57881348 116.90253906 -31.26586914 117.40307617 C-35.97711806 120.69556579 -35.97711806 120.69556579 -38.640625 120.29882812 C-40.49511719 119.6184082 -40.49511719 119.6184082 -41.49511719 118.6184082 C-41.38260421 112.58190786 -39.9086938 106.98039048 -37.99121094 101.30200195 C-37.74846939 100.56007095 -37.50572784 99.81813995 -37.25563049 99.0537262 C-36.48948276 96.71832643 -35.71130807 94.38715177 -34.93261719 92.0559082 C-34.40642067 90.45916835 -33.88102287 88.86216504 -33.35644531 87.26489258 C-32.07853464 83.37962922 -30.7898327 79.49810226 -29.49511719 75.6184082 C-35.06023698 71.11214483 -40.63605734 66.67416374 -46.49511719 62.5559082 C-47.08252686 62.13599609 -47.66993652 61.71608398 -48.27514648 61.28344727 C-51.00818611 59.33621696 -53.75291766 57.45274934 -56.57714844 55.63793945 C-57.47820312 55.05399414 -58.37925781 54.47004883 -59.30761719 53.8684082 C-60.0978125 53.37856445 -60.88800781 52.8887207 -61.70214844 52.3840332 C-64.13645777 49.98684841 -64.21140846 47.94849751 -64.49511719 44.6184082 C-61.41471866 42.56480918 -60.70027021 42.36102087 -57.20727539 42.29956055 C-55.91627678 42.26975601 -55.91627678 42.26975601 -54.59919739 42.23934937 C-53.67410873 42.22779816 -52.74902008 42.21624695 -51.79589844 42.2043457 C-50.84571335 42.18497955 -49.89552826 42.1656134 -48.91654968 42.1456604 C-45.88033029 42.08585908 -42.844073 42.03947691 -39.80761719 41.9934082 C-37.7496579 41.95522894 -35.69171461 41.91617724 -33.63378906 41.8762207 C-28.58769488 41.78015702 -23.54152589 41.69612789 -18.49511719 41.6184082 C-18.11701904 40.41716309 -17.7389209 39.21591797 -17.34936523 37.97827148 C-15.94558197 33.52819533 -14.5277994 29.08268527 -13.10571289 24.63842773 C-12.49184659 22.71321572 -11.88179892 20.78678181 -11.27563477 18.85913086 C-10.40435565 16.09070025 -9.51949875 13.32693498 -8.63183594 10.5637207 C-8.36296066 9.6990921 -8.09408539 8.8344635 -7.81706238 7.94363403 C-7.5570192 7.14295502 -7.29697601 6.342276 -7.02905273 5.51733398 C-6.80477097 4.8111795 -6.5804892 4.10502502 -6.34941101 3.37747192 C-4.88127285 0.35445045 -3.26358973 -0.49911847 0 0 Z " fill="#000000" transform="translate(262.4951171875,370.381591796875)"/>
<path d="M0 0 C1.69651085 5.01514091 3.38699242 10.03225919 5.07202148 15.05126953 C5.6455802 16.75689887 6.22075638 18.46198522 6.79760742 20.16650391 C7.6284926 22.62259764 8.45346033 25.08061254 9.27734375 27.5390625 C9.53466782 28.29555084 9.79199188 29.05203918 10.05711365 29.83145142 C11.4054437 33.87516948 12.43352038 37.75580555 13 42 C13.54679413 41.99777939 14.09358826 41.99555878 14.6569519 41.99327087 C20.33428292 41.97119314 26.0116018 41.95608295 31.68896484 41.94506836 C33.80941259 41.94003128 35.92985685 41.93320141 38.05029297 41.92456055 C41.09343322 41.91246766 44.13652766 41.90676553 47.1796875 41.90234375 C48.13181122 41.89718246 49.08393494 41.89202118 50.06491089 41.88670349 C50.94567291 41.88662796 51.82643494 41.88655243 52.73388672 41.88647461 C53.51110077 41.884254 54.28831482 41.88203339 55.08908081 41.87974548 C57 42 57 42 59 43 C59.3515625 45.703125 59.3515625 45.703125 59 49 C57.12526047 50.93079487 55.55639985 52.25460036 53.375 53.75 C52.79540527 54.17047607 52.21581055 54.59095215 51.61865234 55.02416992 C49.75817558 56.36779218 47.87974153 57.68350753 46 59 C44.75376224 59.89512551 43.50895549 60.7922469 42.265625 61.69140625 C39.4152508 63.74753752 36.55202376 65.78434685 33.68066406 67.81103516 C30.77952635 69.86340888 27.89052963 71.93272248 25 74 C27.54924541 83.86012159 30.72030683 93.48867004 33.94726562 103.14453125 C34.33978516 104.34207031 34.73230469 105.53960937 35.13671875 106.7734375 C35.49467529 107.85028809 35.85263184 108.92713867 36.22143555 110.03662109 C36.9594765 112.84575911 37.15918841 115.11458495 37 118 C34.8125 119.171875 34.8125 119.171875 32 120 C29.5625 119.015625 29.5625 119.015625 27 117.25 C26.0409375 116.59386719 25.081875 115.93773437 24.09375 115.26171875 C19.74924321 112.08562098 15.47533506 108.8294418 11.23828125 105.51171875 C6.58660002 101.87877676 1.7953164 98.44032719 -3 95 C-9.11780631 99.01345449 -15.09334348 103.18280834 -21 107.5 C-23.98799159 109.68393135 -26.9883524 111.84882314 -30 114 C-30.80050781 114.58652344 -31.60101563 115.17304688 -32.42578125 115.77734375 C-33.21339844 116.33550781 -34.00101562 116.89367187 -34.8125 117.46875 C-35.87404297 118.23348633 -35.87404297 118.23348633 -36.95703125 119.01367188 C-39 120 -39 120 -41.19921875 119.72070312 C-43 119 -43 119 -44 118 C-43.88748702 111.96349966 -42.41357661 106.36198228 -40.49609375 100.68359375 C-40.2533522 99.94166275 -40.01061066 99.19973175 -39.76051331 98.43531799 C-38.99436558 96.09991823 -38.21619089 93.76874357 -37.4375 91.4375 C-36.91130348 89.84076014 -36.38590569 88.24375684 -35.86132812 86.64648438 C-34.58341746 82.76122101 -33.29471551 78.87969406 -32 75 C-34.4256095 72.48972174 -36.81554551 70.28352866 -39.6875 68.30078125 C-40.38093506 67.81810791 -41.07437012 67.33543457 -41.78881836 66.83813477 C-42.5185083 66.33467529 -43.24819824 65.83121582 -44 65.3125 C-45.52284594 64.24580532 -47.04497667 63.17808888 -48.56640625 62.109375 C-49.69006592 61.32143555 -49.69006592 61.32143555 -50.83642578 60.51757812 C-51.55040527 60.01677734 -52.26438477 59.51597656 -53 59 C-53.6379248 58.55333984 -54.27584961 58.10667969 -54.93310547 57.64648438 C-56.61017401 56.46440153 -58.27430874 55.26402968 -59.9375 54.0625 C-61.34322266 53.05896484 -61.34322266 53.05896484 -62.77734375 52.03515625 C-65.2015449 49.81545713 -66.05215454 48.11434936 -67 45 C-65.3853804 43.05299358 -64.5014923 42.08907172 -61.96882629 41.63923645 C-61.19383286 41.64589828 -60.41883942 41.65256012 -59.62036133 41.65942383 C-58.73967484 41.65965042 -57.85898834 41.65987701 -56.95161438 41.66011047 C-56.00465195 41.67559433 -55.05768951 41.69107819 -54.08203125 41.70703125 C-53.10965012 41.71127609 -52.13726898 41.71552094 -51.13542175 41.71989441 C-48.02750034 41.73669685 -44.92022566 41.77435221 -41.8125 41.8125 C-39.70638957 41.8275448 -37.60026898 41.84123356 -35.49414062 41.85351562 C-30.32917762 41.88660556 -25.16469849 41.93839891 -20 42 C-19.88499146 41.37025772 -19.76998291 40.74051544 -19.65148926 40.09169006 C-18.6058522 34.59022501 -17.30445441 29.34581694 -15.46875 24.05859375 C-15.23216675 23.36484146 -14.9955835 22.67108917 -14.75183105 21.95631409 C-14.25749306 20.51267063 -13.7599608 19.07011712 -13.25927734 17.62866211 C-12.49188026 15.41406763 -11.73960685 13.19470096 -10.98828125 10.97460938 C-10.50349507 9.5647975 -10.01785004 8.15528059 -9.53125 6.74609375 C-9.19522766 5.75095009 -9.19522766 5.75095009 -8.85241699 4.73570251 C-6.87923744 -0.883143 -5.69317897 -1.34838449 0 0 Z " fill="#000000" transform="translate(453,254)"/>
<path d="M0 0 C2.58325195 1.0793457 2.58325195 1.0793457 4.34423828 4.61767578 C4.88975556 6.18732347 5.41194347 7.76520019 5.9152832 9.34887695 C6.33749397 10.59769905 6.33749397 10.59769905 6.76823425 11.87174988 C7.36010986 13.63473071 7.94199962 15.40109066 8.51464844 17.17041016 C9.391033 19.87727044 10.29564639 22.57329716 11.20629883 25.26879883 C11.77763719 26.98243336 12.34735298 28.69660989 12.9152832 30.41137695 C13.18395706 31.21879837 13.45263092 32.02621979 13.72944641 32.85810852 C13.97357773 33.61536728 14.21770905 34.37262604 14.46923828 35.15283203 C14.68510086 35.8159993 14.90096344 36.47916656 15.12336731 37.16242981 C15.58325195 39.0793457 15.58325195 39.0793457 15.58325195 43.0793457 C16.90043213 43.06363525 18.2176123 43.0479248 19.57470703 43.03173828 C24.45550435 42.97749184 29.33627495 42.9430148 34.21728516 42.91455078 C36.33093749 42.8994521 38.44455844 42.87897145 40.55810547 42.85302734 C43.59391011 42.81669173 46.62930102 42.79963026 49.6652832 42.78637695 C51.08572685 42.76315117 51.08572685 42.76315117 52.53486633 42.73945618 C53.85589607 42.73911629 53.85589607 42.73911629 55.20361328 42.73876953 C55.97860672 42.7321077 56.75360016 42.72544586 57.55207825 42.71858215 C60.11789682 43.17430576 61.0189813 44.03141319 62.58325195 46.0793457 C62.51050948 48.88832435 61.77521765 49.88779823 59.7902832 51.8684082 C58.60499023 52.77719727 58.60499023 52.77719727 57.39575195 53.7043457 C56.49469727 54.39657227 55.59364258 55.08879883 54.6652832 55.80200195 C49.02411772 59.97031561 43.32368231 64.0490783 37.58325195 68.0793457 C36.55458008 68.80250977 35.5259082 69.52567383 34.46606445 70.27075195 C32.17445025 71.87747863 29.88055185 73.48076374 27.58325195 75.0793457 C29.73880098 82.65853423 31.92124561 90.21631807 34.47387695 97.6730957 C34.79219482 98.60355713 35.1105127 99.53401855 35.43847656 100.49267578 C36.06662181 102.31303142 36.70260303 104.13070589 37.34716797 105.9453125 C38.91049858 110.47580735 39.98959364 114.21121299 39.58325195 119.0793457 C37.4387207 120.30200195 37.4387207 120.30200195 34.58325195 121.0793457 C31.8840332 119.76293945 31.8840332 119.76293945 28.89575195 117.5168457 C28.35047852 117.11643066 27.80520508 116.71601563 27.2434082 116.3034668 C26.02661295 115.40870502 24.81548748 114.50619867 23.60913086 113.59741211 C20.59589734 111.33948417 17.54038964 109.14120281 14.48632812 106.93896484 C12.90916468 105.80051658 11.33499682 104.65790441 9.76416016 103.51074219 C6.12268046 100.85870328 2.50756378 98.30623694 -1.41674805 96.0793457 C-2.37452148 96.80637695 -3.33229492 97.5334082 -4.3190918 98.2824707 C-11.70318694 103.86737168 -19.13371964 109.38411718 -26.66674805 114.7668457 C-27.38080811 115.2834375 -28.09486816 115.8000293 -28.83056641 116.33227539 C-29.5035376 116.80955078 -30.17650879 117.28682617 -30.86987305 117.77856445 C-31.45929687 118.19968506 -32.0487207 118.62080566 -32.65600586 119.0546875 C-34.62806291 120.2023197 -36.14636294 120.8123245 -38.41674805 121.0793457 C-39.90174805 120.0893457 -39.90174805 120.0893457 -41.41674805 119.0793457 C-40.85987122 113.38032084 -39.73779419 108.36898481 -37.87768555 102.96606445 C-37.37504374 101.45631136 -36.87244068 99.94654537 -36.36987305 98.43676758 C-35.57776576 96.08785343 -34.78263472 93.73998899 -33.98608398 91.39257812 C-33.21339262 89.10697604 -32.45140521 86.81800768 -31.69018555 84.52856445 C-31.44754974 83.82543625 -31.20491394 83.12230804 -30.95492554 82.39787292 C-29.55651273 78.281905 -29.55651273 78.281905 -30.41674805 74.0793457 C-31.85292823 72.76058265 -31.85292823 72.76058265 -33.6706543 71.58325195 C-34.35329346 71.11290527 -35.03593262 70.64255859 -35.73925781 70.15795898 C-36.47845459 69.6576416 -37.21765137 69.15732422 -37.97924805 68.6418457 C-39.52185229 67.56897378 -41.0634938 66.49471648 -42.60424805 65.41918945 C-44.99677079 63.75755323 -47.39034395 62.09756649 -49.7878418 60.44311523 C-52.03278393 58.88291831 -54.25731282 57.29707375 -56.47924805 55.7043457 C-57.17542236 55.22940674 -57.87159668 54.75446777 -58.58886719 54.26513672 C-60.39402373 52.95572876 -61.96310057 51.77092593 -63.41674805 50.0793457 C-63.8503418 46.7277832 -63.8503418 46.7277832 -63.41674805 44.0793457 C-61.08664825 42.91429581 -59.74427727 42.95840991 -57.15063477 42.96582031 C-55.82949173 42.96593361 -55.82949173 42.96593361 -54.48165894 42.96604919 C-53.52953522 42.97121048 -52.5774115 42.97637177 -51.59643555 42.98168945 C-50.13574142 42.98381187 -50.13574142 42.98381187 -48.64553833 42.98597717 C-45.52757731 42.99158597 -42.40968745 43.00413997 -39.29174805 43.0168457 C-37.181072 43.02185957 -35.07039483 43.02642267 -32.9597168 43.03051758 C-27.77870283 43.04155826 -22.59773052 43.05830497 -17.41674805 43.0793457 C-17.3017395 42.5231958 -17.18673096 41.9670459 -17.0682373 41.39404297 C-15.95002582 36.1557991 -14.57814895 31.09632032 -12.88549805 26.0168457 C-12.64891479 25.29948242 -12.41233154 24.58211914 -12.1685791 23.84301758 C-11.67335673 22.34665045 -11.1758209 20.85104706 -10.67602539 19.35620117 C-9.91019832 17.05970493 -9.15736504 14.75919833 -8.4050293 12.45825195 C-7.92013072 10.99835773 -7.4344813 9.53871263 -6.94799805 8.0793457 C-6.61197571 7.04668579 -6.61197571 7.04668579 -6.26916504 5.99316406 C-4.28964622 0.14083595 -4.28964622 0.14083595 0 0 Z " fill="#000000" transform="translate(63.416748046875,252.920654296875)"/>
</svg>
