<?xml version="1.0" encoding="UTF-8"?>
<!DOCTYPE svg PUBLIC "-//W3C//DTD SVG 1.1//EN" "http://www.w3.org/Graphics/SVG/1.1/DTD/svg11.dtd">
<svg xmlns="http://www.w3.org/2000/svg" version="1.1" viewBox="0 0 512 512" style="shape-rendering:geometricPrecision; text-rendering:geometricPrecision; image-rendering:optimizeQuality; fill-rule:evenodd; clip-rule:evenodd" xmlns:xlink="http://www.w3.org/1999/xlink">
<g><path style="opacity:0.973" fill="#f3fdfc" d="M 155.5,113.5 C 222.167,113.5 288.833,113.5 355.5,113.5C 356.651,119.455 358.317,125.288 360.5,131C 360.167,131.5 359.833,132 359.5,132.5C 320.272,146.279 280.939,159.779 241.5,173C 235.261,176.3 231.595,181.467 230.5,188.5C 237.482,212.431 244.149,236.431 250.5,260.5C 198.953,274.596 147.453,288.929 96,303.5C 95.5,303.167 95,302.833 94.5,302.5C 115.039,239.55 135.373,176.55 155.5,113.5 Z M 179.5,131.5 C 192.687,130.857 200.354,137.024 202.5,150C 199.18,164.829 190.18,170.163 175.5,166C 162.576,155.821 162.242,145.154 174.5,134C 176.315,133.243 177.981,132.41 179.5,131.5 Z"/></g>
<g><path style="opacity:0.973" fill="#f3fdfc" d="M 370.5,165.5 C 386.584,211.42 401.917,257.753 416.5,304.5C 384.114,328.886 351.448,352.886 318.5,376.5C 302.849,324.707 287.683,272.707 273,220.5C 269.502,209.65 272.669,201.484 282.5,196C 312.044,186.098 341.377,175.931 370.5,165.5 Z M 327.5,203.5 C 345.351,203.516 355.684,212.35 358.5,230C 355.012,249.903 343.345,258.236 323.5,255C 308.639,248.466 303.139,237.299 307,221.5C 310.725,211.898 317.559,205.898 327.5,203.5 Z"/></g>
<g><path style="opacity:0.975" fill="#f3fdfc" d="M 255.5,285.5 C 256.5,285.5 257.5,285.5 258.5,285.5C 268.907,322.294 279.241,359.128 289.5,396C 288.73,398.069 287.397,399.735 285.5,401C 275.324,407.921 265.324,415.088 255.5,422.5C 210.553,390.22 165.886,357.553 121.5,324.5C 122.912,323.194 124.579,322.36 126.5,322C 169.662,309.963 212.662,297.797 255.5,285.5 Z"/></g>
</svg>
