<?xml version="1.0" encoding="UTF-8"?>
<!DOCTYPE svg PUBLIC "-//W3C//DTD SVG 1.1//EN" "http://www.w3.org/Graphics/SVG/1.1/DTD/svg11.dtd">
<svg xmlns="http://www.w3.org/2000/svg" version="1.1" viewBox="0 0 512 512" style="shape-rendering:geometricPrecision; text-rendering:geometricPrecision; image-rendering:optimizeQuality; fill-rule:evenodd; clip-rule:evenodd" xmlns:xlink="http://www.w3.org/1999/xlink">
<g><path style="opacity:0.982" fill="#f3fdfc" d="M 254.5,67.5 C 285,125.17 312.833,184.17 338,244.5C 346.14,263.92 352.473,283.92 357,304.5C 364.88,361.254 342.713,401.087 290.5,424C 246.963,437.823 209.129,428.657 177,396.5C 151.045,364.722 144.045,329.056 156,289.5C 169.592,248.056 185.926,207.723 205,168.5C 220.969,134.561 237.469,100.895 254.5,67.5 Z M 181.5,341.5 C 183.527,341.338 185.527,341.505 187.5,342C 219.612,357.968 253.278,362.635 288.5,356C 302.295,352.291 315.795,347.791 329,342.5C 333.926,342.259 336.426,344.593 336.5,349.5C 332.744,364.764 324.411,376.93 311.5,386C 283.005,405.403 252.672,408.736 220.5,396C 202.831,387.998 189.331,375.498 180,358.5C 177.558,353.56 177.225,348.56 179,343.5C 179.995,342.934 180.828,342.267 181.5,341.5 Z"/></g>
</svg>
