<?xml version="1.0" encoding="UTF-8"?>
<!DOCTYPE svg PUBLIC "-//W3C//DTD SVG 1.1//EN" "http://www.w3.org/Graphics/SVG/1.1/DTD/svg11.dtd">
<svg xmlns="http://www.w3.org/2000/svg" version="1.1" viewBox="0 0 512 512" style="shape-rendering:geometricPrecision; text-rendering:geometricPrecision; image-rendering:optimizeQuality; fill-rule:evenodd; clip-rule:evenodd" xmlns:xlink="http://www.w3.org/1999/xlink">
<g><path style="opacity:0.982" fill="#f3fdfc" d="M 239.5,98.5 C 277.169,95.1616 310.836,104.995 340.5,128C 360.119,146.46 358.786,163.46 336.5,179C 293.806,205.075 248.806,209.742 201.5,193C 184.931,187.313 171.098,177.813 160,164.5C 155.832,156.99 155.498,149.324 159,141.5C 167.679,129.823 178.513,120.657 191.5,114C 206.743,106.084 222.743,100.918 239.5,98.5 Z"/></g>
<g><path style="opacity:0.983" fill="#f3fdfc" d="M 130.5,188.5 C 132.927,188.523 135.26,189.023 137.5,190C 163.538,211.517 193.205,225.85 226.5,233C 234.84,238.676 237.673,246.51 235,256.5C 217.606,312.348 199.606,368.014 181,423.5C 180.586,423.957 180.086,424.291 179.5,424.5C 121.634,386.764 95.1335,333.097 100,263.5C 102.087,238.573 109.754,215.573 123,194.5C 125.134,191.847 127.634,189.847 130.5,188.5 Z"/></g>
<g><path style="opacity:0.983" fill="#f3fdfc" d="M 376.5,188.5 C 378.927,188.523 381.26,189.023 383.5,190C 389.91,196.424 394.743,203.924 398,212.5C 421.092,271.747 415.092,327.747 380,380.5C 366.53,398.136 350.363,412.803 331.5,424.5C 330.914,424.291 330.414,423.957 330,423.5C 311.394,368.014 293.394,312.348 276,256.5C 273.327,246.51 276.16,238.676 284.5,233C 309.046,227.376 332.046,218.043 353.5,205C 361.09,199.22 368.757,193.72 376.5,188.5 Z"/></g>
<g><path style="opacity:0.941" fill="#f3fdfc" d="M 236.5,318.5 C 242.798,319.412 249.132,320.079 255.5,320.5C 261.872,319.91 268.206,319.41 274.5,319C 277.834,327.661 280.334,336.494 282,345.5C 264.63,351.703 247.13,352.036 229.5,346.5C 229.167,346 228.833,345.5 228.5,345C 231.093,336.125 233.759,327.292 236.5,318.5 Z"/></g>
<g><path style="opacity:0.949" fill="#f3fdfc" d="M 220.5,371.5 C 243.845,375.31 267.179,375.477 290.5,372C 293.167,380 295.833,388 298.5,396C 272.154,404.783 245.487,405.783 218.5,399C 216.369,398.457 214.369,397.624 212.5,396.5C 215.176,388.139 217.843,379.805 220.5,371.5 Z"/></g>
</svg>
