<?xml version="1.0" encoding="UTF-8"?>
<!DOCTYPE svg PUBLIC "-//W3C//DTD SVG 1.1//EN" "http://www.w3.org/Graphics/SVG/1.1/DTD/svg11.dtd">
<svg xmlns="http://www.w3.org/2000/svg" version="1.1" viewBox="0 0 512 512" style="shape-rendering:geometricPrecision; text-rendering:geometricPrecision; image-rendering:optimizeQuality; fill-rule:evenodd; clip-rule:evenodd" xmlns:xlink="http://www.w3.org/1999/xlink">
<g><path style="opacity:0.979" fill="#fdfff9" d="M 216.5,71.5 C 217.822,71.33 218.989,71.6634 220,72.5C 226.638,96.5243 231.805,120.858 235.5,145.5C 242.151,144.761 248.818,144.094 255.5,143.5C 262.182,144.094 268.849,144.761 275.5,145.5C 279.195,120.858 284.362,96.5243 291,72.5C 292.049,71.4829 293.216,71.3162 294.5,72C 299.153,77.4675 302.653,83.6342 305,90.5C 314.214,119.356 321.547,148.689 327,178.5C 352.348,212.924 358.348,250.591 345,291.5C 340.449,303.611 334.116,314.611 326,324.5C 310.808,336.55 302.141,352.217 300,371.5C 299.105,386.175 298.105,400.842 297,415.5C 293.526,425.641 286.693,432.474 276.5,436C 257.836,442.254 240.17,440.254 223.5,430C 218.705,426.245 215.538,421.412 214,415.5C 212.895,400.842 211.895,386.175 211,371.5C 210.011,358.863 205.678,347.53 198,337.5C 162.879,304.034 151.546,263.7 164,216.5C 168.114,202.413 174.781,189.747 184,178.5C 189.656,146.876 197.656,115.876 208,85.5C 210.091,80.3058 212.924,75.6391 216.5,71.5 Z M 177.5,234.5 C 179.624,235.031 181.124,236.365 182,238.5C 195.269,261.429 208.936,284.096 223,306.5C 225.146,310.441 226.979,314.441 228.5,318.5C 215.446,317.205 203.446,313.038 192.5,306C 183.234,297.223 178.401,286.389 178,273.5C 176.209,260.516 176.042,247.516 177.5,234.5 Z M 331.5,234.5 C 335.358,252.295 334.858,270.295 330,288.5C 324.823,303.007 314.656,311.84 299.5,315C 293.914,316.617 288.247,317.784 282.5,318.5C 284.021,314.441 285.854,310.441 288,306.5C 302.763,282.638 317.263,258.638 331.5,234.5 Z"/></g>
<g><path style="opacity:0.965" fill="#fdfff9" d="M 107.5,174.5 C 103.207,198.115 106.707,220.782 118,242.5C 123.246,251.082 129.913,258.415 138,264.5C 140.046,285.469 146.212,305.136 156.5,323.5C 146.934,340.294 137.101,356.96 127,373.5C 106.361,357.586 92.6944,336.919 86,311.5C 75.8817,273.042 78.215,235.375 93,198.5C 97.0906,189.974 101.924,181.974 107.5,174.5 Z"/></g>
<g><path style="opacity:0.965" fill="#fdfff9" d="M 402.5,174.5 C 408.888,181.584 414.055,189.584 418,198.5C 436.739,245.263 435.739,291.596 415,337.5C 407.465,351.899 397.132,363.899 384,373.5C 373.899,356.96 364.066,340.294 354.5,323.5C 364.788,305.136 370.954,285.469 373,264.5C 394.253,246.988 405.087,224.321 405.5,196.5C 404.829,189.112 403.829,181.778 402.5,174.5 Z"/></g>
</svg>
