<?xml version="1.0" encoding="UTF-8"?>
<!DOCTYPE svg PUBLIC "-//W3C//DTD SVG 1.1//EN" "http://www.w3.org/Graphics/SVG/1.1/DTD/svg11.dtd">
<svg xmlns="http://www.w3.org/2000/svg" version="1.1" viewBox="0 0 512 512" style="shape-rendering:geometricPrecision; text-rendering:geometricPrecision; image-rendering:optimizeQuality; fill-rule:evenodd; clip-rule:evenodd" xmlns:xlink="http://www.w3.org/1999/xlink">
<g><path style="opacity:0.983" fill="#fdfff9" d="M 245.5,77.5 C 250.121,76.9927 254.454,77.826 258.5,80C 292.004,99.5861 325.67,118.919 359.5,138C 363.707,141.07 364.54,144.903 362,149.5C 339.667,176.167 317.333,202.833 295,229.5C 291.632,235.063 291.965,240.396 296,245.5C 314.32,261.154 331.986,277.487 349,294.5C 349.667,296.5 349.667,298.5 349,300.5C 309.138,340.029 268.971,379.196 228.5,418C 220.051,422.522 216.551,420.022 218,410.5C 225.178,384.122 232.511,357.789 240,331.5C 242.932,324.73 241.765,318.897 236.5,314C 205.047,290.216 173.881,266.049 143,241.5C 142.21,238.366 142.543,235.366 144,232.5C 176.25,182.336 208.25,132.003 240,81.5C 241.812,80.0229 243.645,78.6896 245.5,77.5 Z"/></g>
</svg>
