<?xml version="1.0" encoding="UTF-8"?>
<!DOCTYPE svg PUBLIC "-//W3C//DTD SVG 1.1//EN" "http://www.w3.org/Graphics/SVG/1.1/DTD/svg11.dtd">
<svg xmlns="http://www.w3.org/2000/svg" version="1.1" viewBox="0 0 334 334" style="shape-rendering:geometricPrecision; text-rendering:geometricPrecision; image-rendering:optimizeQuality; fill-rule:evenodd; clip-rule:evenodd" xmlns:xlink="http://www.w3.org/1999/xlink">
<g><path style="opacity:0.975" fill="#f3fdfc" d="M 157.5,71.5 C 192.35,69.1705 218.184,83.1705 235,113.5C 242.693,132.059 244.527,151.226 240.5,171C 240.833,171.833 241.167,172.667 241.5,173.5C 261.399,161.856 275.899,166.523 285,187.5C 287.044,193.711 288.044,200.045 288,206.5C 287.586,206.957 287.086,207.291 286.5,207.5C 281.945,204.055 276.945,201.388 271.5,199.5C 269.247,200.253 267.413,201.586 266,203.5C 262.201,209.597 258.035,215.431 253.5,221C 249.5,223 245.5,223 241.5,221C 236.721,217.522 232.221,213.689 228,209.5C 216.743,230.086 201.909,247.586 183.5,262C 175.315,267.574 166.648,268.574 157.5,265C 142.515,256.686 130.015,245.519 120,231.5C 114.834,224.505 110.167,217.172 106,209.5C 101.833,213 97.6667,216.5 93.5,220C 87.1571,224.022 81.6571,223.189 77,217.5C 73.3357,210.996 68.8357,205.163 63.5,200C 62.5,199.333 61.5,199.333 60.5,200C 55.4048,202.548 50.4048,205.048 45.5,207.5C 45.0363,194.389 49.0363,182.889 57.5,173C 63.6476,167.9 70.6476,166.233 78.5,168C 83.5316,169.854 88.5316,171.687 93.5,173.5C 86.8444,145.609 92.0111,120.275 109,97.5C 122.199,83.1526 138.366,74.4859 157.5,71.5 Z M 126.5,111.5 C 133.468,111.067 138.968,113.733 143,119.5C 149.894,128.742 152.561,139.075 151,150.5C 147.881,158.871 142.381,160.704 134.5,156C 123.684,146.196 119.184,134.03 121,119.5C 122.129,116.206 123.962,113.54 126.5,111.5 Z M 199.5,111.5 C 209.032,111.031 213.698,115.698 213.5,125.5C 212.525,139.298 206.525,150.131 195.5,158C 189.307,159.654 185.14,157.487 183,151.5C 180.532,134.781 186.032,121.448 199.5,111.5 Z"/></g>
</svg>
