<?xml version="1.0" encoding="UTF-8"?>
<!DOCTYPE svg PUBLIC "-//W3C//DTD SVG 1.1//EN" "http://www.w3.org/Graphics/SVG/1.1/DTD/svg11.dtd">
<svg xmlns="http://www.w3.org/2000/svg" version="1.1" viewBox="0 0 512 512" style="shape-rendering:geometricPrecision; text-rendering:geometricPrecision; image-rendering:optimizeQuality; fill-rule:evenodd; clip-rule:evenodd" xmlns:xlink="http://www.w3.org/1999/xlink">
<g><path style="opacity:0.974" fill="#f3fdfc" d="M 214.5,88.5 C 240.294,85.3734 262.128,93.04 280,111.5C 294.314,132.681 296.98,155.348 288,179.5C 282.17,191.493 277.17,203.827 273,216.5C 268.436,236.697 275.269,251.364 293.5,260.5C 293.833,260.167 294.167,259.833 294.5,259.5C 277.065,225.867 286.732,204.367 323.5,195C 327.864,193.918 332.197,193.751 336.5,194.5C 331.994,201.499 328.161,208.833 325,216.5C 324.362,227.256 327.362,236.923 334,245.5C 344.421,256.583 354.088,268.25 363,280.5C 385.006,323.802 378.84,362.635 344.5,397C 315.734,421.92 282.4,431.92 244.5,427C 306.412,405.612 313.412,372.612 265.5,328C 250.665,316.69 237.831,303.524 227,288.5C 218.755,271.113 214.255,252.78 213.5,233.5C 203.859,238.641 196.359,245.974 191,255.5C 167.258,295.599 161.925,337.932 175,382.5C 180.686,394.847 189.186,404.68 200.5,412C 195.615,413.953 190.948,413.286 186.5,410C 162.11,390.92 145.61,366.42 137,336.5C 130.999,304.503 136.332,274.503 153,246.5C 160.9,234.597 169.567,223.264 179,212.5C 194.366,196.802 209.366,180.802 224,164.5C 244.166,134.356 238.666,109.856 207.5,91C 209.833,89.957 212.166,89.1237 214.5,88.5 Z"/></g>
</svg>
