<?xml version="1.0" encoding="UTF-8"?>
<!DOCTYPE svg PUBLIC "-//W3C//DTD SVG 1.1//EN" "http://www.w3.org/Graphics/SVG/1.1/DTD/svg11.dtd">
<svg xmlns="http://www.w3.org/2000/svg" version="1.1" viewBox="0 0 512 512" style="shape-rendering:geometricPrecision; text-rendering:geometricPrecision; image-rendering:optimizeQuality; fill-rule:evenodd; clip-rule:evenodd" xmlns:xlink="http://www.w3.org/1999/xlink">
<g><path style="opacity:0.982" fill="#fafefd" d="M 123.5,113.5 C 169.635,110.149 208.802,124.815 241,157.5C 247.517,165.029 252.85,173.362 257,182.5C 275.931,147.256 305.098,125.423 344.5,117C 366.5,112.333 388.5,112.333 410.5,117C 412.931,119.255 414.431,122.088 415,125.5C 427.721,178.14 414.888,223.306 376.5,261C 365.961,269.774 354.295,276.774 341.5,282C 361.556,300.827 369.722,323.993 366,351.5C 345.679,360.731 324.846,361.897 303.5,355C 296.474,352.405 289.974,348.905 284,344.5C 290.738,366.449 296.404,388.782 301,411.5C 303.083,420.741 303.749,430.075 303,439.5C 302.481,440.516 301.647,441.182 300.5,441.5C 297.223,440.058 294.723,437.725 293,434.5C 277.431,401.794 265.431,367.794 257,332.5C 250.34,360.48 241.673,387.813 231,414.5C 227.447,423.274 223.114,431.607 218,439.5C 216.211,441.229 214.044,441.896 211.5,441.5C 210.509,430.077 211.342,418.744 214,407.5C 218.755,386.256 224.088,365.256 230,344.5C 206.954,360.03 182.121,363.53 155.5,355C 153,354.115 150.667,352.948 148.5,351.5C 144.662,324.179 152.662,301.012 172.5,282C 136.288,266.117 112.121,239.283 100,201.5C 93.0804,176.59 92.7471,151.59 99,126.5C 99.7163,123.28 100.883,120.28 102.5,117.5C 109.567,115.825 116.567,114.492 123.5,113.5 Z M 255.5,206.5 C 256.822,206.33 257.989,206.663 259,207.5C 267.714,230.87 284.548,243.703 309.5,246C 309.957,246.414 310.291,246.914 310.5,247.5C 298.517,267.749 280.684,278.416 257,279.5C 233.04,278.449 215.206,267.616 203.5,247C 229.328,244.268 246.661,230.768 255.5,206.5 Z"/></g>
</svg>
