<?xml version="1.0" encoding="UTF-8"?>
<!DOCTYPE svg PUBLIC "-//W3C//DTD SVG 1.1//EN" "http://www.w3.org/Graphics/SVG/1.1/DTD/svg11.dtd">
<svg xmlns="http://www.w3.org/2000/svg" version="1.1" viewBox="0 0 512 512" style="shape-rendering:geometricPrecision; text-rendering:geometricPrecision; image-rendering:optimizeQuality; fill-rule:evenodd; clip-rule:evenodd" xmlns:xlink="http://www.w3.org/1999/xlink">
<g><path style="opacity:0.974" fill="#fdfefd" d="M 258.5,72.5 C 259.922,72.7086 261.255,73.2086 262.5,74C 273.333,84.8333 284.167,95.6667 295,106.5C 295.667,108.167 295.667,109.833 295,111.5C 283.986,122.347 273.152,133.347 262.5,144.5C 292.669,162.419 323.003,180.086 353.5,197.5C 354.333,182.511 354.833,167.511 355,152.5C 355.374,151.584 355.874,150.75 356.5,150C 373.407,149.175 390.241,149.342 407,150.5C 408.138,158.903 408.638,167.403 408.5,176C 408.638,184.597 408.138,193.097 407,201.5C 390.577,202.492 374.077,202.825 357.5,202.5C 357.5,238.833 357.5,275.167 357.5,311.5C 373.837,311.333 390.17,311.5 406.5,312C 407,312.5 407.5,313 408,313.5C 408.667,329.833 408.667,346.167 408,362.5C 407.5,363 407,363.5 406.5,364C 389.833,364.667 373.167,364.667 356.5,364C 355.674,347.574 355.174,331.074 355,314.5C 324.079,333.045 292.913,351.212 261.5,369C 272.667,380.167 283.833,391.333 295,402.5C 295.667,404.167 295.667,405.833 295,407.5C 284.167,418.333 273.333,429.167 262.5,440C 260.029,440.706 257.695,440.373 255.5,439C 245.333,428.833 235.167,418.667 225,408.5C 223,406.167 223,403.833 225,401.5C 235.833,390.667 246.667,379.833 257.5,369C 226.585,351.293 195.752,333.46 165,315.5C 164.667,330.833 164.333,346.167 164,361.5C 163.626,362.416 163.126,363.25 162.5,364C 146.592,365.636 130.592,365.969 114.5,365C 113.069,364.535 111.903,363.701 111,362.5C 110.182,346.122 110.349,329.789 111.5,313.5C 112.025,312.808 112.692,312.308 113.5,312C 129.497,311.5 145.497,311.333 161.5,311.5C 161.667,274.832 161.5,238.165 161,201.5C 144.863,202.828 128.696,202.828 112.5,201.5C 111.808,200.975 111.308,200.308 111,199.5C 110.333,183.5 110.333,167.5 111,151.5C 111.5,150.333 112.333,149.5 113.5,149C 129.5,148.333 145.5,148.333 161.5,149C 162,149.5 162.5,150 163,150.5C 163.333,166.5 163.667,182.5 164,198.5C 195.249,180.46 226.415,162.293 257.5,144C 245.12,133.287 233.786,121.62 223.5,109C 234.32,96.0136 245.987,83.847 258.5,72.5 Z M 245.5,180.5 C 253.448,184.812 261.114,189.645 268.5,195C 253.427,204.399 238.093,213.399 222.5,222C 218.577,225.677 216.077,230.177 215,235.5C 214.5,252.497 214.333,269.497 214.5,286.5C 206.167,286.5 197.833,286.5 189.5,286.5C 189.333,265.497 189.5,244.497 190,223.5C 191.255,217.157 194.421,211.99 199.5,208C 215.062,199.059 230.396,189.892 245.5,180.5 Z"/></g>
</svg>
