<?xml version="1.0" encoding="UTF-8"?>
<!DOCTYPE svg PUBLIC "-//W3C//DTD SVG 1.1//EN" "http://www.w3.org/Graphics/SVG/1.1/DTD/svg11.dtd">
<svg xmlns="http://www.w3.org/2000/svg" version="1.1" viewBox="0 0 512 512" style="shape-rendering:geometricPrecision; text-rendering:geometricPrecision; image-rendering:optimizeQuality; fill-rule:evenodd; clip-rule:evenodd" xmlns:xlink="http://www.w3.org/1999/xlink">
<g><path style="opacity:0.983" fill="#f3fdfc" d="M 275.5,116.5 C 286.838,116.333 298.172,116.5 309.5,117C 312.913,118.077 315.413,120.244 317,123.5C 317.667,153.167 317.667,182.833 317,212.5C 315.833,215 314,216.833 311.5,218C 299.167,218.667 286.833,218.667 274.5,218C 272,216.833 270.167,215 269,212.5C 268.333,182.5 268.333,152.5 269,122.5C 270.914,120.144 273.081,118.144 275.5,116.5 Z"/></g>
<g><path style="opacity:0.968" fill="#f3fdfc" d="M 349.5,116.5 C 360.838,116.333 372.172,116.5 383.5,117C 387.333,118.167 389.833,120.667 391,124.5C 391.667,153.167 391.667,181.833 391,210.5C 389.923,213.913 387.756,216.413 384.5,218C 372.5,218.667 360.5,218.667 348.5,218C 346.376,216.878 344.543,215.378 343,213.5C 341.357,183.895 341.024,154.228 342,124.5C 343.327,120.675 345.827,118.008 349.5,116.5 Z"/></g>
<g><path style="opacity:0.972" fill="#f3fdfc" d="M 126.5,117.5 C 138.505,117.333 150.505,117.5 162.5,118C 166.165,119.668 168.332,122.501 169,126.5C 169.667,169.167 169.667,211.833 169,254.5C 167.923,257.913 165.756,260.413 162.5,262C 150.167,262.667 137.833,262.667 125.5,262C 122.619,260.749 120.786,258.583 120,255.5C 119.333,211.833 119.333,168.167 120,124.5C 121.018,120.985 123.185,118.652 126.5,117.5 Z"/></g>
<g><path style="opacity:0.972" fill="#f3fdfc" d="M 200.5,117.5 C 212.505,117.333 224.505,117.5 236.5,118C 239.756,119.587 241.923,122.087 243,125.5C 243.667,168.5 243.667,211.5 243,254.5C 241.923,257.913 239.756,260.413 236.5,262C 224.167,262.667 211.833,262.667 199.5,262C 196.619,260.749 194.786,258.583 194,255.5C 193.333,211.833 193.333,168.167 194,124.5C 195.694,121.642 197.861,119.309 200.5,117.5 Z"/></g>
<g><path style="opacity:0.979" fill="#f3fdfc" d="M 276.5,242.5 C 313.228,242.019 349.895,242.519 386.5,244C 388.917,245.663 390.75,247.829 392,250.5C 392.667,264.167 392.667,277.833 392,291.5C 390.833,295.333 388.333,297.833 384.5,299C 348.167,299.667 311.833,299.667 275.5,299C 272.063,297.895 269.563,295.728 268,292.5C 267.333,278.5 267.333,264.5 268,250.5C 269.73,246.57 272.564,243.903 276.5,242.5 Z"/></g>
<g><path style="opacity:0.981" fill="#f3fdfc" d="M 128.5,295.5 C 163.502,295.333 198.502,295.5 233.5,296C 236.562,297.061 239.062,298.894 241,301.5C 242.161,306.416 242.827,311.416 243,316.5C 243.833,318 245,319.167 246.5,320C 292.5,320.333 338.5,320.667 384.5,321C 387.893,321.394 390.06,323.227 391,326.5C 391.667,334.833 391.667,343.167 391,351.5C 387.833,360 382,365.833 373.5,369C 329.027,387.602 283.36,402.602 236.5,414C 209.947,418.611 185.613,413.277 163.5,398C 154.5,391.667 145.5,385.333 136.5,379C 130.964,374.496 125.797,369.663 121,364.5C 119.37,344.565 119.036,324.565 120,304.5C 121.662,300.34 124.495,297.34 128.5,295.5 Z"/></g>
</svg>
