<?xml version="1.0" encoding="UTF-8"?>
<!DOCTYPE svg PUBLIC "-//W3C//DTD SVG 1.1//EN" "http://www.w3.org/Graphics/SVG/1.1/DTD/svg11.dtd">
<svg xmlns="http://www.w3.org/2000/svg" version="1.1" viewBox="0 0 512 512" style="shape-rendering:geometricPrecision; text-rendering:geometricPrecision; image-rendering:optimizeQuality; fill-rule:evenodd; clip-rule:evenodd" xmlns:xlink="http://www.w3.org/1999/xlink">
<g><path style="opacity:0.977" fill="#f3fdfc" d="M 152.5,102.5 C 167.966,102.488 181.799,107.155 194,116.5C 235,100.5 276,100.5 317,116.5C 340.63,99.0735 364.797,98.2402 389.5,114C 410.223,132.055 416.39,154.222 408,180.5C 405.754,185.326 403.254,189.992 400.5,194.5C 426.372,253.452 421.205,309.452 385,362.5C 341.939,415.082 286.772,435.249 219.5,423C 160.05,407.549 120.55,370.716 101,312.5C 89.7413,271.967 92.9079,232.634 110.5,194.5C 96.825,172.998 95.9917,150.998 108,128.5C 119.093,113.211 133.926,104.544 152.5,102.5 Z M 243.5,150.5 C 301.034,148.666 341.201,173.999 364,226.5C 379.675,279.794 366.175,323.961 323.5,359C 280.98,386.932 237.647,388.266 193.5,363C 148.34,330.543 132.174,287.043 145,232.5C 156.311,198.188 178.478,173.688 211.5,159C 221.983,154.945 232.649,152.112 243.5,150.5 Z"/></g>
</svg>
