<?xml version="1.0" encoding="UTF-8"?>
<!DOCTYPE svg PUBLIC "-//W3C//DTD SVG 1.1//EN" "http://www.w3.org/Graphics/SVG/1.1/DTD/svg11.dtd">
<svg xmlns="http://www.w3.org/2000/svg" version="1.1" viewBox="0 0 512 512" style="shape-rendering:geometricPrecision; text-rendering:geometricPrecision; image-rendering:optimizeQuality; fill-rule:evenodd; clip-rule:evenodd" xmlns:xlink="http://www.w3.org/1999/xlink">
<g><path style="opacity:0.969" fill="#f3fdfc" d="M 317.5,98.5 C 320.238,97.9648 322.072,98.9648 323,101.5C 322.138,155.596 316.804,209.262 307,262.5C 292.459,301.247 274.459,338.247 253,373.5C 250.321,377.512 246.988,380.846 243,383.5C 241.739,383.241 240.739,382.574 240,381.5C 239.723,328.601 245.057,276.268 256,224.5C 269.807,188.216 285.807,152.883 304,118.5C 307.938,111.406 312.438,104.739 317.5,98.5 Z"/></g>
<g><path style="opacity:0.977" fill="#f3fdfc" d="M 220.5,157.5 C 221.822,157.33 222.989,157.663 224,158.5C 224.463,162.838 224.963,167.171 225.5,171.5C 220.37,252.133 212.203,332.466 201,412.5C 169.233,413.828 137.4,413.828 105.5,412.5C 125.726,355.052 147.893,298.385 172,242.5C 183.598,215.3 197.265,189.3 213,164.5C 215.396,161.933 217.896,159.6 220.5,157.5 Z"/></g>
<g><path style="opacity:0.976" fill="#f3fdfc" d="M 403.5,157.5 C 405.124,157.36 406.29,158.027 407,159.5C 406.821,178.275 405.154,196.942 402,215.5C 391.644,281.778 379.811,347.778 366.5,413.5C 334.833,413.5 303.167,413.5 271.5,413.5C 296.851,350.978 325.018,289.645 356,229.5C 367.41,207.67 380.076,186.67 394,166.5C 397.062,163.268 400.229,160.268 403.5,157.5 Z"/></g>
</svg>
