<?xml version="1.0" encoding="UTF-8"?>
<!DOCTYPE svg PUBLIC "-//W3C//DTD SVG 1.1//EN" "http://www.w3.org/Graphics/SVG/1.1/DTD/svg11.dtd">
<svg xmlns="http://www.w3.org/2000/svg" version="1.1" viewBox="0 0 512 512" style="shape-rendering:geometricPrecision; text-rendering:geometricPrecision; image-rendering:optimizeQuality; fill-rule:evenodd; clip-rule:evenodd" xmlns:xlink="http://www.w3.org/1999/xlink">
<g><path style="opacity:0.975" fill="#fdfff9" d="M 248.5,81.5 C 266.421,80.0449 280.921,86.3782 292,100.5C 301.167,115 313,126.833 327.5,136C 333.921,138.807 340.588,140.807 347.5,142C 357.859,143.136 368.192,144.469 378.5,146C 400.397,152.432 412.063,167.098 413.5,190C 412.913,202.002 409.08,212.835 402,222.5C 394.896,238.655 393.23,255.322 397,272.5C 400.78,283.394 405.114,294.06 410,304.5C 416.746,323.776 412.912,340.609 398.5,355C 393.945,358.445 388.945,361.112 383.5,363C 370.606,365.89 357.606,368.223 344.5,370C 328.282,373.195 315.115,381.362 305,394.5C 298.585,403.586 291.418,412.086 283.5,420C 266.256,431.798 248.589,432.465 230.5,422C 221.289,413.419 213.122,403.919 206,393.5C 195.834,380.677 182.668,372.843 166.5,370C 154.467,368.186 142.467,366.186 130.5,364C 109.384,358.292 98.3842,344.458 97.5,322.5C 97.6735,318.459 98.1735,314.459 99,310.5C 104,296.833 109,283.167 114,269.5C 116,260.167 116,250.833 114,241.5C 108.398,226.359 103.398,211.026 99,195.5C 96.3075,169.167 107.641,152.833 133,146.5C 144.151,144.574 155.318,142.74 166.5,141C 182.2,137.898 195.034,130.065 205,117.5C 212.004,107.682 219.837,98.5154 228.5,90C 234.73,85.8762 241.397,83.0429 248.5,81.5 Z M 254.5,131.5 C 280.07,170.468 316.403,191.135 363.5,193.5C 343.946,231.126 342.446,269.46 359,308.5C 360.455,311.912 362.288,315.079 364.5,318C 317.856,319.894 281.69,340.06 256,378.5C 230.02,339.751 193.52,319.584 146.5,318C 166.123,282.402 168.623,245.569 154,207.5C 152.153,202.306 149.653,197.472 146.5,193C 185.597,191.698 218.097,176.532 244,147.5C 248.142,142.537 251.642,137.204 254.5,131.5 Z"/></g>
</svg>
