<?xml version="1.0" encoding="UTF-8"?>
<!DOCTYPE svg PUBLIC "-//W3C//DTD SVG 1.1//EN" "http://www.w3.org/Graphics/SVG/1.1/DTD/svg11.dtd">
<svg xmlns="http://www.w3.org/2000/svg" version="1.1" viewBox="0 0 512 512" style="shape-rendering:geometricPrecision; text-rendering:geometricPrecision; image-rendering:optimizeQuality; fill-rule:evenodd; clip-rule:evenodd" xmlns:xlink="http://www.w3.org/1999/xlink">
<g><path style="opacity:0.988" fill="#f3fdfc" d="M 187.5,95.5 C 232.501,95.3333 277.501,95.5 322.5,96C 353.028,126.861 383.861,157.361 415,187.5C 415.667,232.5 415.667,277.5 415,322.5C 384.139,353.028 353.639,383.861 323.5,415C 278.5,415.667 233.5,415.667 188.5,415C 174.5,401 160.5,387 146.5,373C 157.724,376.928 169.058,380.928 180.5,385C 196.936,390.485 213.77,393.985 231,395.5C 233.833,395.167 236.667,394.833 239.5,394.5C 198.514,353.014 157.347,311.68 116,270.5C 118.137,305.086 127.304,337.753 143.5,368.5C 143.333,368.833 143.167,369.167 143,369.5C 127.638,353.804 111.971,338.471 96,323.5C 95.3333,278.5 95.3333,233.5 96,188.5C 127.064,157.937 157.564,126.937 187.5,95.5 Z M 310.5,129.5 C 330.077,131.518 349.244,136.184 368,143.5C 374.084,162.166 378.418,181.166 381,200.5C 357.271,176.938 333.771,153.272 310.5,129.5 Z M 390.5,272.5 C 391.116,285.868 389.616,299.202 386,312.5C 381.399,331.302 375.399,349.635 368,367.5C 341.169,380.666 313.003,389.832 283.5,395C 278.5,395.667 273.5,395.667 268.5,395C 309.368,354.299 350.035,313.465 390.5,272.5 Z"/></g>
</svg>
