<?xml version="1.0" encoding="UTF-8"?>
<!DOCTYPE svg PUBLIC "-//W3C//DTD SVG 1.1//EN" "http://www.w3.org/Graphics/SVG/1.1/DTD/svg11.dtd">
<svg xmlns="http://www.w3.org/2000/svg" version="1.1" viewBox="0 0 512 512" style="shape-rendering:geometricPrecision; text-rendering:geometricPrecision; image-rendering:optimizeQuality; fill-rule:evenodd; clip-rule:evenodd" xmlns:xlink="http://www.w3.org/1999/xlink">
<g><path style="opacity:0.982" fill="#f9fef9" d="M 131.5,157.5 C 149.46,172.99 169.793,184.656 192.5,192.5C 192.833,193.333 193.167,194.167 193.5,195C 184.658,233.375 188.824,270.208 206,305.5C 212.077,317.142 220.577,326.642 231.5,334C 249.827,344.6 267.494,343.6 284.5,331C 301.976,315.227 313.142,295.727 318,272.5C 324.084,245.783 323.918,219.116 317.5,192.5C 340.705,185.734 361.039,174.067 378.5,157.5C 407.479,187.268 419.646,222.934 415,264.5C 407.863,305.958 386.696,338.124 351.5,361C 301.823,390.468 249.489,396.135 194.5,378C 145.041,360.045 113.041,325.879 98.5,275.5C 89.9013,230.548 100.901,191.214 131.5,157.5 Z"/></g>
<g><path style="opacity:0.966" fill="#f9fef9" d="M 241.5,201.5 C 250.841,202.664 260.174,202.831 269.5,202C 274.624,209.368 277.791,217.534 279,226.5C 283.077,247.966 280.077,268.299 270,287.5C 262.6,297.757 253.933,299.09 244,291.5C 234.079,277.499 229.579,261.832 230.5,244.5C 229.956,229.009 233.622,214.676 241.5,201.5 Z"/></g>
</svg>
