<?xml version="1.0" encoding="UTF-8"?>
<svg version="1.1" xmlns="http://www.w3.org/2000/svg" viewBox="0 0 512 512">
<path d="M0 0 C3.8583029 0.00913696 7.71653624 -0.0049616 11.57482481 -0.01591969 C19.11259138 -0.03361823 26.65019779 -0.02990385 34.1879704 -0.01826912 C40.31923412 -0.00920072 46.45045326 -0.00802545 52.58172178 -0.01236439 C53.45749925 -0.01297732 54.33327672 -0.01359025 55.2355929 -0.01422176 C57.01524267 -0.01550078 58.79489242 -0.01679764 60.57454216 -0.01811212 C77.2253743 -0.02949254 93.87611806 -0.0164442 110.5269357 0.00508934 C124.78481511 0.02295801 139.0425642 0.01985319 153.30044127 0.0014143 C169.89553389 -0.02003742 186.49054923 -0.02839414 203.08565378 -0.01613665 C204.8584113 -0.01486258 206.63116883 -0.01360509 208.40392637 -0.01236439 C209.27594224 -0.01174729 210.14795811 -0.01113018 211.0463987 -0.01049438 C217.16357945 -0.00705436 223.2807108 -0.0128406 229.39788389 -0.0222826 C236.86232055 -0.03355192 244.32658916 -0.03035964 251.7910068 -0.00915962 C255.59259433 0.00128494 259.39390264 0.00558681 263.1954875 -0.00775623 C292.4042839 -0.10185485 292.4042839 -0.10185485 305.49282408 4.52289867 C306.31014006 4.79782398 307.12745604 5.07274929 307.96953917 5.35600567 C330.73798214 13.61693078 348.39446035 30.57152035 359.23110533 51.95258617 C365.45156787 65.56660098 368.10497802 78.93974376 368.00075865 93.85444164 C368.00538231 95.32528261 368.01174495 96.79611894 368.01966763 98.26694584 C368.03618329 102.25899593 368.02819684 106.25065773 368.01572275 110.24270821 C368.00660079 114.56727033 368.02067709 118.89176978 368.03164244 123.21631908 C368.04935662 131.66849183 368.0456195 140.12052187 368.03399187 148.57270002 C368.02492972 155.44671606 368.02374554 162.32069233 368.02808714 169.19471264 C368.02870007 170.17595384 368.029313 171.15719503 368.02994451 172.16817081 C368.03122351 174.16202658 368.03252037 176.15588233 368.03383487 178.14973807 C368.04521987 196.81210119 368.03215969 215.47438549 368.01063341 234.13673568 C367.99276433 250.12291799 367.99586902 266.10898408 368.01430845 282.0951643 C368.035752 300.69428766 368.04412143 319.29334208 368.0318594 337.89247608 C368.03058531 339.87867895 368.02932782 341.86488182 368.02808714 343.85108471 C368.02716149 345.3166628 368.02716149 345.3166628 368.02621713 346.81184852 C368.02277468 353.67142043 368.02856867 360.53094833 368.03800535 367.39051342 C368.04926552 375.75890908 368.04610127 384.12715481 368.02488238 392.49553347 C368.01442575 396.75887164 368.0101572 401.02196054 368.02347898 405.28529644 C368.03552167 409.19869611 368.02864825 413.11161877 368.00756878 417.02497602 C368.00315238 418.42988282 368.00525506 419.83483112 368.01507193 421.23971057 C368.17649241 446.28978745 358.21639958 468.91845786 340.80532408 486.77289867 C318.2224814 509.06586565 291.42344278 513.15262984 260.98564816 513.04579735 C257.12734525 513.03666039 253.26911192 513.05075894 249.41082335 513.06171703 C241.87305677 513.07941558 234.33545036 513.0757012 226.79767776 513.06406647 C220.66641403 513.05499807 214.53519489 513.0538228 208.40392637 513.05816174 C207.09026017 513.05908113 207.09026017 513.05908113 205.75005525 513.06001911 C203.97040549 513.06129813 202.19075573 513.06259498 200.41110599 513.06390947 C183.76027385 513.07528988 167.1095301 513.06224155 150.45871246 513.04070801 C136.20083305 513.02283934 121.94308395 513.02594416 107.68520689 513.04438305 C91.09011427 513.06583477 74.49509893 513.07419148 57.89999437 513.06193399 C56.12723685 513.06065992 54.35447932 513.05940244 52.58172178 513.05816174 C51.70970591 513.05754463 50.83769005 513.05692753 49.93924946 513.05629173 C43.82206871 513.05285171 37.70493736 513.05863795 31.58776426 513.06807995 C24.1233276 513.07934926 16.65905899 513.07615698 9.19464135 513.05495697 C5.39305383 513.04451241 1.59174552 513.04021054 -2.20983934 513.05355358 C-31.41863574 513.1476522 -31.41863574 513.1476522 -44.50717592 508.52289867 C-45.3244919 508.24797337 -46.14180788 507.97304806 -46.98389101 507.68979168 C-69.75233398 499.42886657 -87.40881219 482.474277 -98.24545717 461.09321117 C-104.46591972 447.47919637 -107.11932986 434.10605359 -107.01511049 419.19135571 C-107.01973416 417.72051474 -107.0260968 416.24967841 -107.03401947 414.77885151 C-107.05053514 410.78680142 -107.04254869 406.79513962 -107.0300746 402.80308914 C-107.02095263 398.47852702 -107.03502894 394.15402756 -107.04599428 389.82947826 C-107.06370847 381.37730552 -107.05997135 372.92527548 -107.04834372 364.47309732 C-107.03928157 357.59908128 -107.03809738 350.72510502 -107.04243898 343.85108471 C-107.04305192 342.86984351 -107.04366485 341.88860232 -107.04429635 340.87762654 C-107.04557536 338.88377077 -107.04687221 336.88991502 -107.04818672 334.89605927 C-107.05957172 316.23369616 -107.04651154 297.57141186 -107.02498525 278.90906167 C-107.00711618 262.92287936 -107.01022087 246.93681326 -107.0286603 230.95063305 C-107.05010385 212.35150969 -107.05847327 193.75245526 -107.04621124 175.15332127 C-107.04493715 173.1671184 -107.04367967 171.18091553 -107.04243898 169.19471264 C-107.04182188 168.21766058 -107.04120478 167.24060852 -107.04056898 166.23394883 C-107.03712652 159.37437692 -107.04292052 152.51484902 -107.0523572 145.65528393 C-107.06361737 137.28688827 -107.06045312 128.91864254 -107.03923422 120.55026388 C-107.0287776 116.28692571 -107.02450905 112.0238368 -107.03783083 107.76050091 C-107.04987351 103.84710124 -107.04300009 99.93417858 -107.02192062 96.02082133 C-107.01750422 94.61591453 -107.0196069 93.21096622 -107.02942377 91.80608678 C-107.19084425 66.75600989 -97.23075143 44.12733949 -79.81967592 26.27289867 C-57.23683324 3.97993169 -30.43779463 -0.10683249 0 0 Z " fill="#65D1F8" transform="translate(106.5071759223938,-0.5228986740112305)"/>
<path d="M0 0 C1.26516398 -0.00467997 2.53032796 -0.00935994 3.83383024 -0.01418173 C7.30639165 -0.02658268 10.77870236 -0.02057189 14.2512641 -0.01122308 C18.01135205 -0.00438777 21.77139924 -0.01493575 25.53147888 -0.02316284 C32.88146514 -0.03645414 40.23135914 -0.0336433 47.58134891 -0.02492492 C53.55730601 -0.0181316 59.53323738 -0.01723875 65.50919724 -0.02049637 C66.36184654 -0.02095607 67.21449584 -0.02141577 68.092983 -0.0218894 C69.82545302 -0.02284863 71.55792303 -0.02382127 73.29039304 -0.02480717 C89.50850396 -0.03334731 105.72656388 -0.02354804 121.94466643 -0.00740607 C135.84484015 0.00600069 149.74493871 0.0036634 163.64511108 -0.01016235 C179.81089812 -0.0262342 195.97664057 -0.03252853 212.14243448 -0.02332556 C213.86768555 -0.02236997 215.59293663 -0.02142686 217.31818771 -0.02049637 C218.16691511 -0.02003354 219.01564251 -0.01957072 219.89008892 -0.01909386 C225.85628833 -0.01650915 231.82245932 -0.02086367 237.78865433 -0.02793503 C245.06297179 -0.03636786 252.3371922 -0.0340323 259.61149861 -0.0180928 C263.31924387 -0.01023475 267.02682757 -0.00707616 270.73457146 -0.01704025 C274.76109382 -0.02769704 278.78721193 -0.01493129 282.8137207 0 C283.97511491 -0.00669217 285.13650913 -0.01338433 286.3330971 -0.02027929 C302.14673891 0.09319334 316.32860155 5.773762 328.77987671 15.38095093 C330.32675171 16.52563843 330.32675171 16.52563843 331.90487671 17.69345093 C338.34162839 23.71041445 343.07014731 30.39534666 347.09237671 38.19345093 C347.41770386 38.80809204 347.74303101 39.42273315 348.07821655 40.05599976 C354.72288232 53.53690477 354.15471071 67.55665695 353.96737671 82.19345093 C353.95229842 84.25398799 353.9386156 86.31453576 353.92636108 88.37509155 C353.89361445 93.37731337 353.84200667 98.37901131 353.77987671 103.38095093 C352.61230473 103.37208925 352.61230473 103.37208925 351.42114544 103.36304855 C332.4485529 103.22319686 313.47676417 103.1500341 294.50364208 103.15035629 C285.32808986 103.14891747 276.15361962 103.12522019 266.97836304 103.0484314 C258.97756977 102.98152905 250.97794321 102.95709439 242.97689229 102.98285604 C238.74297029 102.99502626 234.5114555 102.98647592 230.27788353 102.92699432 C226.28513777 102.87156917 222.29633172 102.87332472 218.30348206 102.91725731 C216.84545225 102.9235291 215.38716046 102.90964428 213.92957497 102.87310982 C207.77138825 102.72844592 202.30809192 102.69993682 197.55065346 106.95407867 C194.67359658 109.89620351 192.23112574 113.07917253 189.77987671 116.38095093 C188.26508753 118.24005872 186.74523582 120.09506931 185.21737671 121.94345093 C184.49421265 122.84192749 183.77104858 123.74040405 183.02597046 124.66610718 C180.69157081 127.48768588 178.25997073 130.18685804 175.77987671 132.88095093 C172.48655972 136.45887556 169.3333635 140.09634759 166.27987671 143.88095093 C162.43803082 148.64267541 158.37653163 153.14716 154.23300171 157.64657593 C151.90271403 160.24403035 149.70740503 162.90500807 147.52987671 165.63095093 C142.19600688 172.23478976 136.36346435 178.34361466 130.53768921 184.50985718 C127.82137165 187.40122632 125.14673094 190.33038343 122.46737671 193.25595093 C118.3503144 197.7410905 114.1164926 202.07503669 109.77987671 206.34970093 C107.92055387 208.23807569 106.18599586 210.17737846 104.46737671 212.19345093 C103.93311947 212.79631298 103.39886223 213.39917503 102.84841537 214.02030563 C101.31516653 215.77007069 99.82619798 217.55885063 98.36224747 219.36699295 C93.27701856 225.32223842 89.36199563 229.08670581 81.22463989 229.82400513 C78.35627165 229.90147368 75.50568348 229.82997786 72.63827515 229.74325562 C71.05032104 229.73986323 69.46234816 229.74178539 67.87440491 229.74856567 C63.59877282 229.75198395 59.32724925 229.68186662 55.05256557 229.59767818 C50.57250218 229.52223047 46.09232553 229.5155801 41.61172485 229.50137329 C33.14326622 229.46419985 24.67668527 229.36590254 16.20905042 229.24517941 C6.56230554 229.11065625 -3.08453306 229.04497406 -12.73198366 228.98483419 C-32.5624082 228.8596861 -52.39114707 228.64886516 -72.22012329 228.38095093 C-72.29033747 206.57063039 -72.34317214 184.7603286 -72.37555981 162.94991779 C-72.39100053 152.82199121 -72.41203641 142.69413504 -72.44644165 132.56625366 C-72.4764298 123.7343922 -72.49571858 114.90258175 -72.50238878 106.07067078 C-72.50628513 101.39823378 -72.51538334 96.72594267 -72.53731346 92.05355263 C-72.55782767 87.64671287 -72.56392722 83.24007771 -72.55944633 78.83319473 C-72.56026491 77.22447405 -72.56614098 75.61574581 -72.57773972 74.00706673 C-72.66369095 61.46006261 -71.53812313 49.5408059 -65.59512329 38.25595093 C-65.24884888 37.58563843 -64.90257446 36.91532593 -64.54580688 36.22470093 C-57.51195234 23.08225056 -47.53642648 13.88173606 -34.40762329 7.06845093 C-33.79265991 6.74272095 -33.17769653 6.41699097 -32.5440979 6.08139038 C-22.26757813 1.02013529 -11.29983365 -0.06536279 0 0 Z " fill="#FEFEFE" transform="translate(96.22012329101563,23.619049072265625)"/>
<path d="M0 0 C3.8583029 0.00913696 7.71653624 -0.0049616 11.57482481 -0.01591969 C19.11259138 -0.03361823 26.65019779 -0.02990385 34.1879704 -0.01826912 C40.31923412 -0.00920072 46.45045326 -0.00802545 52.58172178 -0.01236439 C53.45749925 -0.01297732 54.33327672 -0.01359025 55.2355929 -0.01422176 C57.01524267 -0.01550078 58.79489242 -0.01679764 60.57454216 -0.01811212 C77.2253743 -0.02949254 93.87611806 -0.0164442 110.5269357 0.00508934 C124.78481511 0.02295801 139.0425642 0.01985319 153.30044127 0.0014143 C169.89553389 -0.02003742 186.49054923 -0.02839414 203.08565378 -0.01613665 C204.8584113 -0.01486258 206.63116883 -0.01360509 208.40392637 -0.01236439 C209.27594224 -0.01174729 210.14795811 -0.01113018 211.0463987 -0.01049438 C217.16357945 -0.00705436 223.2807108 -0.0128406 229.39788389 -0.0222826 C236.86232055 -0.03355192 244.32658916 -0.03035964 251.7910068 -0.00915962 C255.59259433 0.00128494 259.39390264 0.00558681 263.1954875 -0.00775623 C292.4042839 -0.10185485 292.4042839 -0.10185485 305.49282408 4.52289867 C306.31014006 4.79782398 307.12745604 5.07274929 307.96953917 5.35600567 C330.73798214 13.61693078 348.39446035 30.57152035 359.23110533 51.95258617 C365.45156787 65.56660098 368.10497802 78.93974376 368.00075865 93.85444164 C368.00538231 95.32528261 368.01174495 96.79611894 368.01966763 98.26694584 C368.03618329 102.25899593 368.02819684 106.25065773 368.01572275 110.24270821 C368.00660079 114.56727033 368.02067709 118.89176978 368.03164244 123.21631908 C368.04935662 131.66849183 368.0456195 140.12052187 368.03399187 148.57270002 C368.02492972 155.44671606 368.02374554 162.32069233 368.02808714 169.19471264 C368.02870007 170.17595384 368.029313 171.15719503 368.02994451 172.16817081 C368.03122351 174.16202658 368.03252037 176.15588233 368.03383487 178.14973807 C368.04521987 196.81210119 368.03215969 215.47438549 368.01063341 234.13673568 C367.99276433 250.12291799 367.99586902 266.10898408 368.01430845 282.0951643 C368.035752 300.69428766 368.04412143 319.29334208 368.0318594 337.89247608 C368.03058531 339.87867895 368.02932782 341.86488182 368.02808714 343.85108471 C368.02716149 345.3166628 368.02716149 345.3166628 368.02621713 346.81184852 C368.02277468 353.67142043 368.02856867 360.53094833 368.03800535 367.39051342 C368.04926552 375.75890908 368.04610127 384.12715481 368.02488238 392.49553347 C368.01442575 396.75887164 368.0101572 401.02196054 368.02347898 405.28529644 C368.03552167 409.19869611 368.02864825 413.11161877 368.00756878 417.02497602 C368.00315238 418.42988282 368.00525506 419.83483112 368.01507193 421.23971057 C368.17649241 446.28978745 358.21639958 468.91845786 340.80532408 486.77289867 C318.2224814 509.06586565 291.42344278 513.15262984 260.98564816 513.04579735 C257.12734525 513.03666039 253.26911192 513.05075894 249.41082335 513.06171703 C241.87305677 513.07941558 234.33545036 513.0757012 226.79767776 513.06406647 C220.66641403 513.05499807 214.53519489 513.0538228 208.40392637 513.05816174 C207.09026017 513.05908113 207.09026017 513.05908113 205.75005525 513.06001911 C203.97040549 513.06129813 202.19075573 513.06259498 200.41110599 513.06390947 C183.76027385 513.07528988 167.1095301 513.06224155 150.45871246 513.04070801 C136.20083305 513.02283934 121.94308395 513.02594416 107.68520689 513.04438305 C91.09011427 513.06583477 74.49509893 513.07419148 57.89999437 513.06193399 C56.12723685 513.06065992 54.35447932 513.05940244 52.58172178 513.05816174 C51.70970591 513.05754463 50.83769005 513.05692753 49.93924946 513.05629173 C43.82206871 513.05285171 37.70493736 513.05863795 31.58776426 513.06807995 C24.1233276 513.07934926 16.65905899 513.07615698 9.19464135 513.05495697 C5.39305383 513.04451241 1.59174552 513.04021054 -2.20983934 513.05355358 C-31.41863574 513.1476522 -31.41863574 513.1476522 -44.50717592 508.52289867 C-45.3244919 508.24797337 -46.14180788 507.97304806 -46.98389101 507.68979168 C-69.75233398 499.42886657 -87.40881219 482.474277 -98.24545717 461.09321117 C-104.46591972 447.47919637 -107.11932986 434.10605359 -107.01511049 419.19135571 C-107.01973416 417.72051474 -107.0260968 416.24967841 -107.03401947 414.77885151 C-107.05053514 410.78680142 -107.04254869 406.79513962 -107.0300746 402.80308914 C-107.02095263 398.47852702 -107.03502894 394.15402756 -107.04599428 389.82947826 C-107.06370847 381.37730552 -107.05997135 372.92527548 -107.04834372 364.47309732 C-107.03928157 357.59908128 -107.03809738 350.72510502 -107.04243898 343.85108471 C-107.04305192 342.86984351 -107.04366485 341.88860232 -107.04429635 340.87762654 C-107.04557536 338.88377077 -107.04687221 336.88991502 -107.04818672 334.89605927 C-107.05957172 316.23369616 -107.04651154 297.57141186 -107.02498525 278.90906167 C-107.00711618 262.92287936 -107.01022087 246.93681326 -107.0286603 230.95063305 C-107.05010385 212.35150969 -107.05847327 193.75245526 -107.04621124 175.15332127 C-107.04493715 173.1671184 -107.04367967 171.18091553 -107.04243898 169.19471264 C-107.04182188 168.21766058 -107.04120478 167.24060852 -107.04056898 166.23394883 C-107.03712652 159.37437692 -107.04292052 152.51484902 -107.0523572 145.65528393 C-107.06361737 137.28688827 -107.06045312 128.91864254 -107.03923422 120.55026388 C-107.0287776 116.28692571 -107.02450905 112.0238368 -107.03783083 107.76050091 C-107.04987351 103.84710124 -107.04300009 99.93417858 -107.02192062 96.02082133 C-107.01750422 94.61591453 -107.0196069 93.21096622 -107.02942377 91.80608678 C-107.19084425 66.75600989 -97.23075143 44.12733949 -79.81967592 26.27289867 C-57.23683324 3.97993169 -30.43779463 -0.10683249 0 0 Z M-44.56967592 31.08539867 C-45.2381354 31.43054516 -45.90659487 31.77569164 -46.59531069 32.13129711 C-63.35370698 41.13580855 -74.54855524 55.61201951 -80.50717592 73.52289867 C-82.99672416 82.29272749 -82.77729387 91.14746647 -82.7342267 100.17182446 C-82.73366168 101.83830286 -82.73398092 103.50478176 -82.73511171 105.17125988 C-82.73568268 109.66850243 -82.72397002 114.16563707 -82.7099638 118.66285467 C-82.69741358 123.37269727 -82.69628257 128.08254267 -82.69391298 132.79239941 C-82.68771079 141.69920586 -82.6713171 150.6059629 -82.651214 159.51274765 C-82.62881568 169.65788236 -82.6178517 179.8030195 -82.60782313 189.94817281 C-82.5869497 210.80644229 -82.55179834 231.66466736 -82.50717592 252.52289867 C-61.82716432 252.94486851 -41.14787006 253.2615096 -20.46441507 253.45551777 C-10.8587084 253.54802836 -1.25568817 253.67394819 8.34829283 253.88080883 C16.72718977 254.06119505 25.10414054 254.17656839 33.48492539 254.21649158 C37.91678411 254.23980604 42.34307996 254.29386536 46.77313948 254.4260397 C68.43721701 255.67753529 68.43721701 255.67753529 87.09082556 246.35054874 C89.9144018 243.32598142 92.44447757 240.20707635 94.83460951 236.83087826 C98.97405956 231.06940059 103.92742094 225.96911586 108.99282408 221.02289867 C112.65583362 217.4088201 116.15448057 213.7202824 119.49282408 209.80414867 C121.66204081 207.32988584 123.90181722 204.9334559 126.15420103 202.53510571 C131.43855075 196.90820304 136.488692 191.19624823 141.31704283 185.16742992 C143.62314108 182.3645062 146.03433938 179.69286592 148.49282408 177.02289867 C151.78614107 173.44497404 154.93933729 169.80750202 157.99282408 166.02289867 C161.04631086 162.23829533 164.19950709 158.6008233 167.49282408 155.02289867 C171.51175729 150.65611344 175.30339563 146.16352801 178.99673033 141.51899242 C179.82044127 140.53028149 180.6441522 139.54157055 181.49282408 138.52289867 C182.32582108 137.31660903 182.32582108 137.31660903 183.17564631 136.0859499 C186.27141143 132.01171157 188.72797215 129.02384559 193.75756598 127.59621334 C197.70965019 127.25416957 201.59955095 127.21798672 205.55947447 127.29584789 C207.06819802 127.28879544 208.5769064 127.27734775 210.085567 127.26186657 C214.15813531 127.23240965 218.22815965 127.26401852 222.30052066 127.3070302 C226.56468834 127.34154024 230.82856155 127.31929457 235.0927844 127.30320263 C243.15708652 127.28132555 251.22037116 127.31010733 259.28453249 127.35732567 C268.46963908 127.40862347 277.65444054 127.40308968 286.83965266 127.392905 C305.72439435 127.3732322 324.60834675 127.42452929 343.49282408 127.52289867 C343.56770155 121.49468649 343.62176595 115.46675271 343.657619 109.43818188 C343.67258575 107.39288643 343.69296647 105.3476224 343.71914244 103.30243969 C343.89950486 88.83454448 343.77529346 75.51413497 336.86782408 62.39789867 C336.52154966 61.72758617 336.17527525 61.05727367 335.81850767 60.36664867 C326.45821635 42.87735267 311.20553543 31.89638064 292.45766783 26.03071117 C288.28107416 24.95127345 284.40778052 24.39726235 280.08813047 24.39147091 C279.00982308 24.38762976 277.93151569 24.38378862 276.82053232 24.37983108 C275.64166106 24.38069756 274.4627898 24.38156404 273.24819517 24.38245678 C271.99127772 24.37948566 270.73436028 24.37651453 269.43935442 24.37345338 C265.95265873 24.36539609 262.46598365 24.36359451 258.97927976 24.36285591 C255.21766039 24.36100308 251.45605166 24.35345446 247.69443846 24.3467207 C239.46891886 24.33314464 231.24340413 24.32711344 223.01787519 24.32271004 C217.87871526 24.3199457 212.7395572 24.31570792 207.60039854 24.31120586 C193.36357825 24.29901285 179.12675946 24.28871444 164.88993406 24.28533077 C163.9788881 24.28511121 163.06784213 24.28489164 162.12918872 24.28466542 C161.21599126 24.28444714 160.3027938 24.28422887 159.36192369 24.28400397 C157.51151419 24.28356051 155.66110468 24.28311395 153.81069517 24.2826643 C152.89283275 24.28244287 151.97497033 24.28222144 151.02929389 24.2819933 C136.16859384 24.27804833 121.30794291 24.26060366 106.44726181 24.23730478 C91.17944125 24.21356147 75.9116453 24.20112752 60.64380598 24.19996285 C52.075853 24.19904763 43.50796398 24.19333405 34.94002867 24.17514324 C27.64143245 24.15970182 20.34291997 24.15464545 13.04431051 24.16288134 C9.32421264 24.16677395 5.60428318 24.16592686 1.8842063 24.151824 C-2.15954184 24.13663518 -6.20291462 24.14499286 -10.24667788 24.155406 C-11.40770336 24.14734959 -12.56872885 24.13929319 -13.76493692 24.13099265 C-24.53949433 24.1955893 -34.96361892 26.05359384 -44.56967592 31.08539867 Z M191.14345694 167.30709553 C186.91907472 172.97788983 182.04429468 178.09028621 176.99282408 183.02289867 C173.87478782 186.09439708 170.83388324 189.19011773 167.99282408 192.52289867 C165.15157658 195.85590055 162.10835163 198.94870916 158.99282408 202.02289867 C155.33246016 205.63973062 151.83133603 209.32531734 148.49282408 213.24164867 C146.32360734 215.71591151 144.08383093 218.11234145 141.83144712 220.51069164 C136.5470974 226.13759431 131.49695615 231.84954912 126.66860533 237.87836742 C124.36250708 240.68129115 121.95130877 243.35293143 119.49282408 246.02289867 C115.40867833 250.45999529 111.58486326 255.04774845 107.80141783 259.74164867 C104.52203913 263.69243994 101.05275196 267.44898571 97.55923033 271.21039867 C95.37912771 273.54092558 95.37912771 273.54092558 93.49282408 276.52289867 C90.49807119 276.90765953 90.49807119 276.90765953 86.57067442 276.92162609 C85.85026035 276.92827292 85.12984629 276.93491974 84.38760149 276.94176799 C81.96143387 276.9604955 79.53575519 276.95778626 77.1095233 276.95527172 C75.37525305 276.96428296 73.64098921 276.9746086 71.90673399 276.98615551 C67.18797802 277.01382669 62.46934256 277.02302369 57.75051594 277.02900958 C52.82302713 277.03836703 47.89562928 277.06456816 42.96819639 277.08901501 C33.63263197 277.13275631 24.29708512 277.16125633 14.96144927 277.18433839 C4.33519262 277.21134926 -6.29097288 277.25526322 -16.91716456 277.30062711 C-38.78045271 277.39358264 -60.64376815 277.46521333 -82.50717592 277.52289867 C-82.57737333 297.28161903 -82.63021658 317.04031394 -82.66261244 336.7991333 C-82.67805671 345.97426882 -82.6990994 355.14932668 -82.73349428 364.32441235 C-82.76347153 372.32490315 -82.78276865 380.32533768 -82.78944141 388.32588309 C-82.7933396 392.5589569 -82.80244962 396.7918698 -82.82436609 401.02489185 C-82.84486306 405.01641841 -82.85098329 409.00771913 -82.84649897 412.99929333 C-82.8473183 414.45727488 -82.85320487 415.91526468 -82.86479235 417.37320042 C-82.92936478 425.92350565 -82.29800782 433.41445624 -79.50717592 441.52289867 C-79.13076967 442.62762524 -78.75436342 443.7323518 -78.36655092 444.87055492 C-75.54037957 451.7867137 -72.06696811 457.61323793 -67.50717592 463.52289867 C-66.74405092 464.55414867 -65.98092592 465.58539867 -65.19467592 466.64789867 C-59.1777124 473.08465035 -52.49278019 477.81316928 -44.69467592 481.83539867 C-43.77271425 482.3233894 -43.77271425 482.3233894 -42.83212709 482.82123852 C-32.5573832 487.88560467 -21.58611133 488.96920791 -10.28705263 488.9038496 C-9.02188865 488.90852957 -7.75672467 488.91320955 -6.45322239 488.91803133 C-2.98066098 488.93043228 0.49164973 488.9244215 3.96421146 488.91507268 C7.72429942 488.90823737 11.48434661 488.91878535 15.24442625 488.92701244 C22.59441251 488.94030374 29.94430651 488.9374929 37.29429628 488.92877452 C43.27025338 488.9219812 49.24618474 488.92108835 55.2221446 488.92434597 C56.07479391 488.92480567 56.92744321 488.92526537 57.80593037 488.925739 C59.53840039 488.92669823 61.2708704 488.92767087 63.00334041 488.92865677 C79.22145133 488.93719691 95.43951125 488.92739765 111.6576138 488.91125567 C125.55778752 488.89784891 139.45788608 488.90018621 153.35805845 488.91401196 C169.52384549 488.9300838 185.68958794 488.93637813 201.85538185 488.92717516 C203.58063292 488.92621957 205.305884 488.92527646 207.03113508 488.92434597 C208.30422618 488.92365173 208.30422618 488.92365173 209.60303629 488.92294347 C215.5692357 488.92035875 221.53540669 488.92471327 227.5016017 488.93178463 C234.77591916 488.94021746 242.05013956 488.9378819 249.32444598 488.9219424 C253.03219124 488.91408435 256.73977494 488.91092577 260.44751883 488.92088985 C264.47404119 488.93154665 268.5001593 488.91878089 272.52666807 488.9038496 C273.68806228 488.91054177 274.84945649 488.91723393 276.04604447 488.92412889 C291.85968628 488.81065627 306.04154892 483.1300876 318.49282408 473.52289867 C319.52407408 472.75977367 320.55532408 471.99664867 321.61782408 471.21039867 C333.03276914 460.53990655 342.79084631 444.10783987 343.61702257 428.11936206 C343.61664285 427.27676264 343.61626313 426.43416323 343.61587191 425.5660305 C343.61786295 424.58769129 343.619854 423.60935208 343.62190539 422.60136622 C343.61753612 421.00068709 343.61753612 421.00068709 343.61307859 419.36767101 C343.61393302 418.22817133 343.61478744 417.08867165 343.61566776 415.91464168 C343.61731765 412.08832539 343.61180916 408.26205274 343.60634947 404.43574047 C343.60551088 401.69612125 343.60618153 398.95650289 343.60679197 396.21688366 C343.60731625 390.31451177 343.60417951 384.41215094 343.59855413 378.50978184 C343.59042608 369.97595421 343.58782257 361.44213193 343.58656614 352.90830085 C343.58437768 339.06262665 343.57772316 325.21695835 343.56826353 311.37128735 C343.5590841 297.92174337 343.55200586 284.472201 343.54775572 271.02265453 C343.54749299 270.19358338 343.54723027 269.36451223 343.54695959 268.51031771 C343.54565455 264.35109908 343.54439084 260.19188044 343.54314768 256.0326618 C343.53278147 221.52940318 343.51516873 187.02615156 343.49282408 152.52289867 C325.9245357 152.12413394 308.35767695 151.82521463 290.78588533 151.64209175 C282.62504631 151.55476676 274.46703313 151.435941 266.30800962 151.24042797 C259.18860032 151.0699097 252.0712381 150.96106592 244.94984335 150.92339426 C241.18467247 150.90139759 237.425352 150.85051695 233.66207647 150.72548771 C215.04762124 150.13109846 202.81049705 151.47007298 191.14345694 167.30709553 Z " fill="#2E5D6D" transform="translate(106.5071759223938,-0.5228986740112305)"/>
<path d="M0 0 C11.97046798 8.98359497 20.79164248 21.74118474 24.03515625 36.52734375 C25.85819751 56.51786841 22.92899738 74.32792778 9.8203125 90.2109375 C-1.206193 101.95228938 -15.82045355 109.79037771 -32.03125 110.8984375 C-50.79430773 111.2203063 -67.03214552 105.31223797 -80.71484375 92.33984375 C-92.58735021 79.87540321 -98.81641554 63.91115208 -98.48632812 46.70141602 C-97.68075421 30.89568962 -90.7437998 16.42120908 -79.81640625 5.09765625 C-57.05851478 -15.41562126 -25.29072218 -17.59142718 0 0 Z " fill="#2F5E6E" transform="translate(148.96484375,67.47265625)"/>
<path d="M0 0 C7.20597109 6.01575683 12.43680209 14.50280847 13.4675293 23.92626953 C14.15421013 35.88442696 13.02697121 44.74709192 5.125 54.1875 C-3.50990221 63.19044722 -12.41107979 66.81078168 -24.6875 67.3125 C-34.3322103 67.14049243 -42.36568534 63.00864933 -49.375 56.5 C-50.550625 55.2315625 -50.550625 55.2315625 -51.75 53.9375 C-52.430625 53.215625 -53.11125 52.49375 -53.8125 51.75 C-59.82601458 43.02070464 -61.63252854 33.35133682 -60.75 22.9375 C-58.4024523 12.38767721 -52.46746198 4.28753142 -43.6640625 -1.84765625 C-30.16286117 -10.41678607 -12.91070406 -9.04183988 0 0 Z " fill="#65D1F8" transform="translate(135.75,87.0625)"/>
<path d="M0 0 C46.86 0 93.72 0 142 0 C142 7.92 142 15.84 142 24 C95.14 24 48.28 24 0 24 C0 16.08 0 8.16 0 0 Z " fill="#2E5D6D" transform="translate(166,418)"/>
<path d="M0 0 C3.81657237 1.24555075 7.30002096 2.98241251 10.86328125 4.8203125 C11.85829147 5.31659149 12.8533017 5.81287048 13.87846375 6.32418823 C15.96817797 7.37220028 18.05300335 8.43001217 20.13305664 9.49707031 C23.3087048 11.12305679 26.50099756 12.71187564 29.69726562 14.296875 C31.73285901 15.32336576 33.76740243 16.35194187 35.80078125 17.3828125 C36.74979813 17.85494171 37.698815 18.32707092 38.67658997 18.81350708 C44.00371619 21.57226701 47.60318231 24.01300646 51 29 C51.6640625 31.34375 51.6640625 31.34375 51.625 33.5 C51.64433594 34.56734375 51.64433594 34.56734375 51.6640625 35.65625 C50.40115862 40.1135578 47.54294626 43.00686832 43.73358154 45.45880127 C40.92798667 46.98978724 38.09118753 48.42636305 35.22265625 49.8359375 C34.17855087 50.36015289 33.1344455 50.88436829 32.05870056 51.42446899 C29.85739122 52.52531383 27.65259407 53.61920844 25.44458008 54.70654297 C22.06821389 56.37218121 18.70662324 58.06516775 15.34570312 59.76171875 C13.20134793 60.82978716 11.05619155 61.89624888 8.91015625 62.9609375 C7.40522362 63.72016006 7.40522362 63.72016006 5.86988831 64.49472046 C4.92548386 64.95585236 3.98107941 65.41698425 3.00805664 65.89208984 C2.18374649 66.30035004 1.35943634 66.70861023 0.51014709 67.12924194 C-2.49933827 68.17321807 -4.83337418 68.25597385 -8 68 C-12.95551544 65.4736588 -15.04004186 63.16140016 -17 58 C-17.44243649 54.22788141 -17.4442655 50.48232384 -17.43359375 46.6875 C-17.4388356 45.60041748 -17.44407745 44.51333496 -17.44947815 43.39331055 C-17.4558868 41.10043185 -17.45457639 38.80752022 -17.44604492 36.51464844 C-17.43752862 33.01177363 -17.46632474 29.51052666 -17.49804688 26.0078125 C-17.4996589 23.77604215 -17.49908132 21.54426893 -17.49609375 19.3125 C-17.50732773 18.26860107 -17.51856171 17.22470215 -17.53013611 16.14916992 C-17.4725376 10.12454539 -17.06632744 6.55936907 -13 2 C-8.67877522 -0.88081652 -5.07316644 -0.66420139 0 0 Z " fill="#2E5E6E" transform="translate(66,348)"/>
</svg>
