<?xml version="1.0" encoding="UTF-8"?>
<!DOCTYPE svg PUBLIC "-//W3C//DTD SVG 1.1//EN" "http://www.w3.org/Graphics/SVG/1.1/DTD/svg11.dtd">
<svg xmlns="http://www.w3.org/2000/svg" version="1.1" viewBox="0 0 512 512" style="shape-rendering:geometricPrecision; text-rendering:geometricPrecision; image-rendering:optimizeQuality; fill-rule:evenodd; clip-rule:evenodd" xmlns:xlink="http://www.w3.org/1999/xlink">
<g><path style="opacity:0.985" fill="#2e5d6d" d="M 232.5,-0.5 C 247.833,-0.5 263.167,-0.5 278.5,-0.5C 287.977,0.710476 297.477,2.37714 307,4.5C 318.726,3.5254 330.226,5.0254 341.5,9C 364.59,19.3767 386.923,31.0433 408.5,44C 423.3,60.4683 438.467,76.635 454,92.5C 486.737,133.533 505.904,180.199 511.5,232.5C 511.5,247.833 511.5,263.167 511.5,278.5C 500.612,368.144 456.279,435.644 378.5,481C 347.029,497.695 313.696,507.861 278.5,511.5C 263.167,511.5 247.833,511.5 232.5,511.5C 223.023,510.29 213.523,508.623 204,506.5C 193.372,507.353 182.872,506.186 172.5,503C 148.29,492.562 124.956,480.562 102.5,467C 87.6997,450.532 72.5331,434.365 57,418.5C 24.2631,377.467 5.0964,330.801 -0.5,278.5C -0.5,263.167 -0.5,247.833 -0.5,232.5C 10.3879,142.856 54.7213,75.3562 132.5,30C 163.971,13.3053 197.304,3.1386 232.5,-0.5 Z"/></g>
<g><path style="opacity:1" fill="#65d1f8" d="M 235.5,22.5 C 242.841,22.3337 250.174,22.5003 257.5,23C 249.548,29.9458 242.714,37.7791 237,46.5C 200.5,119.5 164,192.5 127.5,265.5C 92.5063,266.5 57.5063,266.833 22.5,266.5C 21.7541,172.125 61.4208,100.625 141.5,52C 170.965,35.7872 202.298,25.9538 235.5,22.5 Z"/></g>
<g><path style="opacity:1" fill="#f5f3f6" d="M 302.5,27.5 C 314.58,26.7356 326.247,28.5689 337.5,33C 357.469,42.3153 376.802,52.6486 395.5,64C 417.037,85.3268 422.203,110.16 411,138.5C 358.318,243.864 305.651,349.198 253,454.5C 235.967,477.741 213.134,486.907 184.5,482C 163.803,473.152 143.47,463.485 123.5,453C 99.6417,435.776 90.4751,412.61 96,383.5C 97,380.5 98,377.5 99,374.5C 151.605,269.624 203.938,164.624 256,59.5C 266.845,41.9997 282.345,31.3331 302.5,27.5 Z"/></g>
<g><path style="opacity:1" fill="#315f6f" d="M 294.5,80.5 C 302.343,80.5024 309.177,83.169 315,88.5C 318.224,98.9423 314.39,103.776 303.5,103C 298.919,101.129 294.752,98.6288 291,95.5C 288.206,89.4076 289.373,84.4076 294.5,80.5 Z"/></g>
<g><path style="opacity:1" fill="#32606f" d="M 352.5,108.5 C 359.701,109.347 366.201,112.013 372,116.5C 375.772,126.818 372.272,131.984 361.5,132C 356.41,130.042 351.91,127.208 348,123.5C 345.074,117.085 346.574,112.085 352.5,108.5 Z"/></g>
<g><path style="opacity:1" fill="#65d0f7" d="M 439.5,113.5 C 474.424,158.282 490.758,209.282 488.5,266.5C 450.167,266.5 411.833,266.5 373.5,266.5C 392.773,225.954 412.606,185.62 433,145.5C 437.355,135.27 439.522,124.603 439.5,113.5 Z"/></g>
<g><path style="opacity:1" fill="#32606f" d="M 273.5,121.5 C 281.745,121.203 288.912,123.87 295,129.5C 297.87,137.761 295.037,142.761 286.5,144.5C 280.205,142.936 274.705,139.936 270,135.5C 267.432,129.909 268.599,125.243 273.5,121.5 Z"/></g>
<g><path style="opacity:1" fill="#305f6e" d="M 332.5,149.5 C 339.701,150.347 346.201,153.013 352,157.5C 355.343,168.823 351.176,173.656 339.5,172C 334.554,170.28 330.387,167.446 327,163.5C 325.025,157.177 326.858,152.51 332.5,149.5 Z"/></g>
<g><path style="opacity:1" fill="#2f5e6e" d="M 240.5,171.5 C 246.509,171.334 252.509,171.501 258.5,172C 278.29,181.395 297.956,191.061 317.5,201C 332.935,212.237 337.102,226.737 330,244.5C 316.667,271.167 303.333,297.833 290,324.5C 279.678,338.13 266.178,342.63 249.5,338C 230.833,328.667 212.167,319.333 193.5,310C 179.373,299.332 174.873,285.499 180,268.5C 193.667,241.167 207.333,213.833 221,186.5C 226.234,179.755 232.734,174.755 240.5,171.5 Z"/></g>
<g><path style="opacity:1" fill="#65d1f8" d="M 245.5,194.5 C 248.518,194.335 251.518,194.502 254.5,195C 271.833,203.667 289.167,212.333 306.5,221C 308.776,223.385 310.109,226.219 310.5,229.5C 297.555,257.391 284.055,285.057 270,312.5C 266.257,316.259 261.757,317.426 256.5,316C 239.167,307.333 221.833,298.667 204.5,290C 202.224,287.615 200.891,284.781 200.5,281.5C 213.383,254.066 226.55,226.732 240,199.5C 241.73,197.598 243.563,195.931 245.5,194.5 Z"/></g>
<g><path style="opacity:1" fill="#859ea9" d="M 115.5,289.5 C 85.1481,288.841 55.1481,289.508 25.5,291.5C 24.596,290.791 24.2627,289.791 24.5,288.5C 55.0046,288.169 85.3379,288.502 115.5,289.5 Z"/></g>
<g><path style="opacity:1" fill="#859ea9" d="M 361.5,289.5 C 402.997,288.501 444.663,288.168 486.5,288.5C 486.737,289.791 486.404,290.791 485.5,291.5C 444.513,289.506 403.18,288.839 361.5,289.5 Z"/></g>
<g><path style="opacity:1" fill="#f4f3f6" d="M 115.5,289.5 C 102.952,315.597 90.1185,341.597 77,367.5C 73.2051,377.141 71.2051,387.141 71,397.5C 46.8416,366.167 31.675,330.834 25.5,291.5C 55.1481,289.508 85.1481,288.841 115.5,289.5 Z"/></g>
<g><path style="opacity:1" fill="#f5f3f6" d="M 361.5,289.5 C 403.18,288.839 444.513,289.506 485.5,291.5C 470.883,372.261 426.883,430.761 353.5,467C 321.692,481.295 288.359,488.295 253.5,488C 261.452,481.054 268.286,473.221 274,464.5C 303.18,406.14 332.347,347.807 361.5,289.5 Z"/></g>
<g><path style="opacity:1" fill="#336070" d="M 162.5,346.5 C 169.202,347.262 175.369,349.595 181,353.5C 186.198,363.944 183.032,369.444 171.5,370C 166.758,367.88 162.258,365.38 158,362.5C 154.994,355.771 156.494,350.438 162.5,346.5 Z"/></g>
<g><path style="opacity:1" fill="#32606f" d="M 219.5,375.5 C 227.448,375.889 234.281,378.889 240,384.5C 242.503,395.001 238.336,399.501 227.5,398C 222.919,396.129 218.752,393.629 215,390.5C 212.064,384.058 213.564,379.058 219.5,375.5 Z"/></g>
<g><path style="opacity:1" fill="#32606f" d="M 141.5,387.5 C 149.995,387.998 157.161,391.331 163,397.5C 164.002,407.496 159.502,411.662 149.5,410C 145.423,408.213 141.59,406.046 138,403.5C 134.129,397.02 135.295,391.687 141.5,387.5 Z"/></g>
<g><path style="opacity:1" fill="#305e6e" d="M 198.5,416.5 C 206.343,416.502 213.177,419.169 219,424.5C 222.224,434.942 218.39,439.776 207.5,439C 202.919,437.129 198.752,434.629 195,431.5C 192.206,425.408 193.373,420.408 198.5,416.5 Z"/></g>
</svg>
