<?xml version="1.0" encoding="UTF-8"?>
<!DOCTYPE svg PUBLIC "-//W3C//DTD SVG 1.1//EN" "http://www.w3.org/Graphics/SVG/1.1/DTD/svg11.dtd">
<svg xmlns="http://www.w3.org/2000/svg" version="1.1" viewBox="0 0 512 512" style="shape-rendering:geometricPrecision; text-rendering:geometricPrecision; image-rendering:optimizeQuality; fill-rule:evenodd; clip-rule:evenodd" xmlns:xlink="http://www.w3.org/1999/xlink">
<g><path style="opacity:0.983" fill="#2e5d6d" d="M 245.5,-0.5 C 252.167,-0.5 258.833,-0.5 265.5,-0.5C 273.9,1.70009 281.567,5.53343 288.5,11C 355.833,70.3333 423.167,129.667 490.5,189C 501.027,197.322 508.027,207.822 511.5,220.5C 511.5,227.5 511.5,234.5 511.5,241.5C 500.232,273.804 477.899,285.638 444.5,277C 439.334,274.92 434.667,272.087 430.5,268.5C 429.667,335.164 429.167,401.831 429,468.5C 427.695,471.961 425.529,474.628 422.5,476.5C 381.167,476.5 339.833,476.5 298.5,476.5C 295.861,474.691 293.694,472.358 292,469.5C 291.5,425.168 291.333,380.835 291.5,336.5C 267.5,336.5 243.5,336.5 219.5,336.5C 219.667,380.835 219.5,425.168 219,469.5C 217.306,472.358 215.139,474.691 212.5,476.5C 171.167,476.5 129.833,476.5 88.5,476.5C 85.4713,474.628 83.3046,471.961 82,468.5C 81.8333,401.831 81.3333,335.164 80.5,268.5C 62.6925,282.081 43.6925,283.914 23.5,274C 11.4225,266.101 3.42253,255.268 -0.5,241.5C -0.5,234.5 -0.5,227.5 -0.5,220.5C 2.97337,207.822 9.97337,197.322 20.5,189C 87.8333,129.667 155.167,70.3333 222.5,11C 229.433,5.53343 237.1,1.70009 245.5,-0.5 Z"/></g>
<g><path style="opacity:1" fill="#65d1f8" d="M 249.5,23.5 C 257.556,22.5765 264.889,24.4099 271.5,29C 342,91.5 412.5,154 483,216.5C 490.366,229.484 488.533,240.984 477.5,251C 466.921,257.256 456.588,256.923 446.5,250C 385.464,195.295 324.13,140.962 262.5,87C 257.833,85 253.167,85 248.5,87C 186.87,140.962 125.536,195.295 64.5,250C 51.0696,258.557 38.9029,257.057 28,245.5C 22,235.833 22,226.167 28,216.5C 98.5,154 169,91.5 239.5,29C 242.767,26.8703 246.1,25.037 249.5,23.5 Z"/></g>
<g><path style="opacity:1" fill="#f5f3f6" d="M 404.5,451.5 C 375.167,451.5 345.833,451.5 316.5,451.5C 316.832,407.997 316.499,364.663 315.5,321.5C 313.982,316.483 310.648,313.316 305.5,312C 271.5,311.333 237.5,311.333 203.5,312C 199.53,314.131 196.863,317.298 195.5,321.5C 194.501,364.663 194.168,407.997 194.5,451.5C 165.167,451.5 135.833,451.5 106.5,451.5C 106.333,382.499 106.5,313.499 107,244.5C 156.594,200.951 206.094,157.284 255.5,113.5C 304.906,157.284 354.406,200.951 404,244.5C 404.5,313.499 404.667,382.499 404.5,451.5 Z"/></g>
<g><path style="opacity:1" fill="#2f5d6d" d="M 228.5,181.5 C 246.17,181.333 263.836,181.5 281.5,182C 286.974,183.474 290.474,186.974 292,192.5C 292.667,209.5 292.667,226.5 292,243.5C 290.474,249.026 286.974,252.526 281.5,254C 263.833,254.667 246.167,254.667 228.5,254C 223.6,252.098 220.433,248.598 219,243.5C 218.333,226.5 218.333,209.5 219,192.5C 220.599,187.406 223.766,183.739 228.5,181.5 Z"/></g>
<g><path style="opacity:1" fill="#d2d9de" d="M 195.5,321.5 C 195.5,365.167 195.5,408.833 195.5,452.5C 165.662,452.831 135.995,452.498 106.5,451.5C 135.833,451.5 165.167,451.5 194.5,451.5C 194.168,407.997 194.501,364.663 195.5,321.5 Z"/></g>
<g><path style="opacity:1" fill="#d2d9de" d="M 315.5,321.5 C 316.499,364.663 316.832,407.997 316.5,451.5C 345.833,451.5 375.167,451.5 404.5,451.5C 375.005,452.498 345.338,452.831 315.5,452.5C 315.5,408.833 315.5,365.167 315.5,321.5 Z"/></g>
</svg>
