<?xml version="1.0" encoding="UTF-8"?>
<!DOCTYPE svg PUBLIC "-//W3C//DTD SVG 1.1//EN" "http://www.w3.org/Graphics/SVG/1.1/DTD/svg11.dtd">
<svg xmlns="http://www.w3.org/2000/svg" version="1.1" viewBox="0 0 512 512" style="shape-rendering:geometricPrecision; text-rendering:geometricPrecision; image-rendering:optimizeQuality; fill-rule:evenodd; clip-rule:evenodd" xmlns:xlink="http://www.w3.org/1999/xlink">
<g><path style="opacity:0.984" fill="#2e5d6d" d="M 221.5,-0.5 C 244.167,-0.5 266.833,-0.5 289.5,-0.5C 296.368,2.19716 301.534,6.86383 305,13.5C 308.988,32.429 312.655,51.429 316,70.5C 324.524,74.9623 333.357,78.9623 342.5,82.5C 358.758,70.7454 375.425,59.5787 392.5,49C 400.286,46.5567 407.619,47.5567 414.5,52C 429.333,66.8333 444.167,81.6667 459,96.5C 464.908,105.821 464.908,115.154 459,124.5C 448.457,139.09 438.29,153.923 428.5,169C 432.124,177.888 436.124,186.555 440.5,195C 459.571,198.345 478.571,202.012 497.5,206C 504.136,209.466 508.803,214.632 511.5,221.5C 511.5,244.167 511.5,266.833 511.5,289.5C 508.803,296.368 504.136,301.534 497.5,305C 478.571,308.988 459.571,312.655 440.5,316C 436.038,324.524 432.038,333.357 428.5,342.5C 440.255,358.758 451.421,375.425 462,392.5C 464.458,400.293 463.458,407.627 459,414.5C 444.167,429.333 429.333,444.167 414.5,459C 405.179,464.908 395.846,464.908 386.5,459C 372.008,448.587 357.341,438.42 342.5,428.5C 333.405,432.027 324.572,436.027 316,440.5C 312.655,459.571 308.988,478.571 305,497.5C 301.534,504.136 296.368,508.803 289.5,511.5C 266.833,511.5 244.167,511.5 221.5,511.5C 214.632,508.803 209.466,504.136 206,497.5C 202.012,478.571 198.345,459.571 195,440.5C 186.476,436.038 177.643,432.038 168.5,428.5C 152.242,440.255 135.575,451.421 118.5,462C 110.714,464.443 103.381,463.443 96.5,459C 81.6667,444.167 66.8333,429.333 52,414.5C 46.092,405.179 46.092,395.846 52,386.5C 62.4133,372.008 72.5799,357.341 82.5,342.5C 78.973,333.405 74.973,324.572 70.5,316C 51.429,312.655 32.429,308.988 13.5,305C 6.86383,301.534 2.19716,296.368 -0.5,289.5C -0.5,266.833 -0.5,244.167 -0.5,221.5C 2.19716,214.632 6.86383,209.466 13.5,206C 32.429,202.012 51.429,198.345 70.5,195C 74.9623,186.476 78.9623,177.643 82.5,168.5C 70.7454,152.242 59.5787,135.575 49,118.5C 46.5567,110.714 47.5567,103.381 52,96.5C 66.8333,81.6667 81.6667,66.8333 96.5,52C 105.821,46.092 115.154,46.092 124.5,52C 138.992,62.4133 153.659,72.5799 168.5,82.5C 177.595,78.973 186.428,74.973 195,70.5C 198.345,51.429 202.012,32.429 206,13.5C 209.466,6.86383 214.632,2.19716 221.5,-0.5 Z"/></g>
<g><path style="opacity:1" fill="#65d1f8" d="M 487.5,228.5 C 487.5,237.167 487.5,245.833 487.5,254.5C 438.833,254.5 390.167,254.5 341.5,254.5C 331.749,208.253 303.249,183.586 256,180.5C 215.69,182.815 188.357,202.815 174,240.5C 172.525,245.063 171.692,249.73 171.5,254.5C 122.167,254.5 72.8333,254.5 23.5,254.5C 23.5,245.833 23.5,237.167 23.5,228.5C 45.205,223.992 67.0383,219.659 89,215.5C 95.9714,199.057 102.805,182.557 109.5,166C 97.1667,147.667 84.8333,129.333 72.5,111C 84.4579,98.0411 96.7913,85.3744 109.5,73C 110.5,72.3333 111.5,72.3333 112.5,73C 130.07,85.5725 147.903,97.7392 166,109.5C 182.797,102.767 199.464,95.767 216,88.5C 220.094,66.8424 224.094,45.1757 228,23.5C 237.092,22.8398 246.258,22.5064 255.5,22.5C 264.742,22.5064 273.908,22.8398 283,23.5C 287.128,45.1405 291.128,66.8071 295,88.5C 311.406,96.0809 328.072,103.081 345,109.5C 363.097,97.7392 380.93,85.5725 398.5,73C 399.5,72.3333 400.5,72.3333 401.5,73C 414.209,85.3744 426.542,98.0411 438.5,111C 426.167,129.333 413.833,147.667 401.5,166C 408.195,182.557 415.029,199.057 422,215.5C 443.902,219.938 465.735,224.272 487.5,228.5 Z"/></g>
<g><path style="opacity:1" fill="#f3f2f5" d="M 247.5,206.5 C 288.591,205.935 311.591,225.935 316.5,266.5C 314.436,296.472 299.103,315.972 270.5,325C 243.605,329.964 222.105,321.464 206,299.5C 188.659,265.703 195.159,237.536 225.5,215C 232.607,211.248 239.94,208.415 247.5,206.5 Z"/></g>
<g><path style="opacity:1" fill="#2f5d6d" d="M 247.5,230.5 C 278.518,229.019 293.351,243.685 292,274.5C 284.615,296.285 269.448,305.452 246.5,302C 222.503,291.697 215.003,274.197 224,249.5C 229.494,240.182 237.328,233.849 247.5,230.5 Z"/></g>
<g><path style="opacity:1" fill="#448ca5" d="M 23.5,228.5 C 23.5,237.167 23.5,245.833 23.5,254.5C 72.8333,254.5 122.167,254.5 171.5,254.5C 122.003,255.499 72.3361,255.832 22.5,255.5C 22.1734,246.318 22.5067,237.318 23.5,228.5 Z"/></g>
<g><path style="opacity:1" fill="#448ca5" d="M 487.5,228.5 C 488.493,237.318 488.827,246.318 488.5,255.5C 439.33,255.832 390.33,255.499 341.5,254.5C 390.167,254.5 438.833,254.5 487.5,254.5C 487.5,245.833 487.5,237.167 487.5,228.5 Z"/></g>
<g><path style="opacity:1" fill="#f5f3f6" d="M 22.5,278.5 C 72.1667,278.5 121.833,278.5 171.5,278.5C 178.853,318.673 202.52,343.173 242.5,352C 289.645,355.491 321.812,335.324 339,291.5C 339.881,287.496 340.714,283.496 341.5,279.5C 390.495,278.5 439.495,278.167 488.5,278.5C 488.714,280.144 488.38,281.644 487.5,283C 465.351,286.473 443.351,290.64 421.5,295.5C 414.736,311.96 408.069,328.46 401.5,345C 413.833,363.333 426.167,381.667 438.5,400C 426.542,412.959 414.209,425.626 401.5,438C 400.5,438.667 399.5,438.667 398.5,438C 381.833,426.333 365.167,414.667 348.5,403C 346.635,401.699 344.635,401.365 342.5,402C 326.65,408.837 310.816,415.671 295,422.5C 290.902,444.384 286.735,466.217 282.5,488C 264.5,488.667 246.5,488.667 228.5,488C 224.271,465.902 220.271,443.735 216.5,421.5C 199.53,415.268 182.697,408.602 166,401.5C 147.903,413.261 130.07,425.427 112.5,438C 111.5,438.667 110.5,438.667 109.5,438C 96.7913,425.626 84.4579,412.959 72.5,400C 85.0496,381.622 97.383,363.122 109.5,344.5C 102.67,328.172 95.8363,311.838 89,295.5C 67.1886,291.392 45.3553,287.225 23.5,283C 22.6198,281.644 22.2865,280.144 22.5,278.5 Z"/></g>
</svg>
