<?xml version="1.0" encoding="UTF-8"?>
<!DOCTYPE svg PUBLIC "-//W3C//DTD SVG 1.1//EN" "http://www.w3.org/Graphics/SVG/1.1/DTD/svg11.dtd">
<svg xmlns="http://www.w3.org/2000/svg" version="1.1" viewBox="0 0 512 512" style="shape-rendering:geometricPrecision; text-rendering:geometricPrecision; image-rendering:optimizeQuality; fill-rule:evenodd; clip-rule:evenodd" xmlns:xlink="http://www.w3.org/1999/xlink">
<g><path style="opacity:0.956" fill="#f3fdfc" d="M 120.5,98.5 C 140.167,98.5 159.833,98.5 179.5,98.5C 179.5,118.167 179.5,137.833 179.5,157.5C 159.833,157.5 140.167,157.5 120.5,157.5C 120.5,137.833 120.5,118.167 120.5,98.5 Z"/></g>
<g><path style="opacity:0.96" fill="#f3fdfc" d="M 337.5,139.5 C 352.833,139.5 368.167,139.5 383.5,139.5C 383.5,154.833 383.5,170.167 383.5,185.5C 368.167,185.5 352.833,185.5 337.5,185.5C 337.5,170.167 337.5,154.833 337.5,139.5 Z"/></g>
<g><path style="opacity:0.956" fill="#f3fdfc" d="M 199.5,174.5 C 211.5,174.5 223.5,174.5 235.5,174.5C 235.5,186.5 235.5,198.5 235.5,210.5C 223.5,210.5 211.5,210.5 199.5,210.5C 199.5,198.5 199.5,186.5 199.5,174.5 Z"/></g>
<g><path style="opacity:0.983" fill="#f3fdfc" d="M 250.5,237.5 C 256.509,237.334 262.509,237.501 268.5,238C 318.753,258.862 369.086,279.529 419.5,300C 421.43,305.874 422.097,312.04 421.5,318.5C 369.336,338.834 317.336,359.668 265.5,381C 260.743,381.81 256.076,381.476 251.5,380C 200.25,359.197 148.917,338.697 97.5,318.5C 97.5,312.5 97.5,306.5 97.5,300.5C 148.899,280.295 199.899,259.295 250.5,237.5 Z"/></g>
<g><path style="opacity:0.949" fill="#f3fdfc" d="M 97.5,349.5 C 148.917,369.697 200.25,390.197 251.5,411C 256.833,413 262.167,413 267.5,411C 318.75,390.197 370.083,369.697 421.5,349.5C 421.831,358.192 421.498,366.859 420.5,375.5C 370.459,396.236 320.459,417.069 270.5,438C 263.167,438.667 255.833,438.667 248.5,438C 198.252,416.864 147.919,396.031 97.5,375.5C 97.5,366.833 97.5,358.167 97.5,349.5 Z"/></g>
</svg>
