<?xml version="1.0" encoding="UTF-8"?>
<!DOCTYPE svg PUBLIC "-//W3C//DTD SVG 1.1//EN" "http://www.w3.org/Graphics/SVG/1.1/DTD/svg11.dtd">
<svg xmlns="http://www.w3.org/2000/svg" version="1.1" viewBox="0 0 512 512" style="shape-rendering:geometricPrecision; text-rendering:geometricPrecision; image-rendering:optimizeQuality; fill-rule:evenodd; clip-rule:evenodd" xmlns:xlink="http://www.w3.org/1999/xlink">
<g><path style="opacity:0.981" fill="#f3fdfc" d="M 195.5,99.5 C 231.125,99.7191 253.292,117.052 262,151.5C 265.711,184.415 252.544,207.582 222.5,221C 190.147,230.441 164.647,221.274 146,193.5C 131.799,162.84 136.966,136.007 161.5,113C 171.7,105.438 183.033,100.938 195.5,99.5 Z"/></g>
<g><path style="opacity:0.967" fill="#f3fdfc" d="M 324.5,205.5 C 349.836,206.004 363.836,218.838 366.5,244C 364.322,267.512 351.488,280.345 328,282.5C 304.5,280.333 291.667,267.5 289.5,244C 291.322,222.019 302.989,209.185 324.5,205.5 Z"/></g>
<g><path style="opacity:0.98" fill="#f3fdfc" d="M 247.5,304.5 C 273.412,301.535 292.245,311.535 304,334.5C 306.441,340.262 307.608,346.262 307.5,352.5C 340.228,353.865 372.228,359.365 403.5,369C 410.275,371.466 416.108,375.3 421,380.5C 423.151,387.364 420.984,392.531 414.5,396C 397.355,404.121 379.355,409.454 360.5,412C 288.057,422.512 215.724,421.845 143.5,410C 127.902,407.579 113.236,402.579 99.5,395C 91.8821,389.055 91.5488,382.722 98.5,376C 106.216,370.976 114.549,367.31 123.5,365C 151.109,358.216 179.109,354.049 207.5,352.5C 209.6,327.072 222.933,311.072 247.5,304.5 Z"/></g>
</svg>
