<?xml version="1.0" encoding="UTF-8"?>
<!DOCTYPE svg PUBLIC "-//W3C//DTD SVG 1.1//EN" "http://www.w3.org/Graphics/SVG/1.1/DTD/svg11.dtd">
<svg xmlns="http://www.w3.org/2000/svg" version="1.1" viewBox="0 0 512 512" style="shape-rendering:geometricPrecision; text-rendering:geometricPrecision; image-rendering:optimizeQuality; fill-rule:evenodd; clip-rule:evenodd" xmlns:xlink="http://www.w3.org/1999/xlink">
<g><path style="opacity:0.979" fill="#f3fdfc" d="M 418.5,88.5 C 421.5,88.5 424.5,88.5 427.5,88.5C 425.252,103.996 419.419,117.996 410,130.5C 379.662,170.605 340.828,199.438 293.5,217C 285.32,220.129 276.987,222.795 268.5,225C 263.429,226.573 259.762,229.74 257.5,234.5C 259.766,235.314 262.1,235.814 264.5,236C 283.543,236.16 302.21,233.493 320.5,228C 339.628,221.457 358.962,215.624 378.5,210.5C 379.167,210.833 379.833,211.167 380.5,211.5C 376.147,224.03 368.814,234.53 358.5,243C 324.278,269.435 285.612,285.435 242.5,291C 236.259,292.452 230.925,295.452 226.5,300C 240.167,300.667 253.833,300.667 267.5,300C 286.487,297.279 305.487,294.779 324.5,292.5C 323.824,296.187 322.324,299.52 320,302.5C 308.642,314.51 295.142,323.343 279.5,329C 254.682,338.303 229.016,342.303 202.5,341C 193.65,342.166 186.483,346.333 181,353.5C 165.656,376.513 149.156,398.68 131.5,420C 128.688,421.549 125.688,422.382 122.5,422.5C 125.917,340.915 144.417,262.915 178,188.5C 184.198,175.628 192.698,164.462 203.5,155C 207.241,152.268 211.241,149.934 215.5,148C 246.668,139.375 278.001,131.375 309.5,124C 333.653,115.727 357.653,107.061 381.5,98C 393.759,94.0195 406.092,90.8529 418.5,88.5 Z"/></g>
</svg>
